<svg xmlns="http://www.w3.org/2000/svg" width="40" height="40" fill="none" viewBox="0 0 40 40">
    <path fill="#000" fill-rule="evenodd" d="M21.667 18.333c-3.106 0-5.716-2.124-6.456-5H3.334V10h11.877c.74-2.875 3.35-5 6.456-5 3.682 0 6.667 2.985 6.667 6.667s-2.985 6.666-6.667 6.666zm10-8.333h5v3.333h-5V10zM13.334 35c-3.106 0-5.717-2.125-6.457-5H3.334v-3.333h3.543c.74-2.876 3.35-5 6.457-5 3.682 0 6.667 2.984 6.667 6.666C20 32.015 17.016 35 13.334 35zm10-5h13.333v-3.333H23.334V30zm-6.667-1.667c0 1.841-1.492 3.334-3.333 3.334-1.841 0-3.333-1.493-3.333-3.334C10 26.493 11.493 25 13.334 25c1.84 0 3.333 1.492 3.333 3.333zm8.334-16.666C25 13.507 23.508 15 21.667 15c-1.84 0-3.333-1.492-3.333-3.333 0-1.841 1.492-3.334 3.333-3.334 1.841 0 3.334 1.493 3.334 3.334z" clip-rule="evenodd"/>
</svg>
