<svg xmlns="http://www.w3.org/2000/svg" width="556" height="334" fill="none" viewBox="0 0 556 334">
    <g clip-path="url(#prefix__clip0)" filter="url(#prefix__filter0_dd)">
        <rect width="556" height="334" fill="#fff" rx="10"/>
        <path stroke="#E4E4E4" stroke-linecap="square" stroke-opacity=".2" d="M77.84 269.894H526.06M77.84 230.029H526.06M77.84 190.164H526.06M77.84 150.3H526.06M77.84 110.435H526.06"/>
        <path stroke="#70BC8A" stroke-linecap="round" stroke-linejoin="round" stroke-width="2" d="M77.84 218.767c19.69-2.129 35.882-15.112 59.376-17.295 12.522-1.163 22.554 1.101 33.746 4.619 11.193 3.517 9.002 5.036 34.173 7.748 20.773 2.238 26.207 9.942 46.562 10.869 20.355.927 29.769-28.082 51.259-25.661 21.491 2.422 25.785-3.839 45.986 8.027 20.201 11.865 38.865 2.397 64.223-.025 25.359-2.421 31.964 5.091 43.998 4.123 12.035-.969 22.871 17.345 33.186 20.009 10.316 2.664 13.241-7.012 35.161-7.012"/>
        <path stroke="#9BA6FA" stroke-linecap="round" stroke-linejoin="round" stroke-width="2" d="M78.201 199.166c25.852-2.653 24.129 13.108 58.167 15.408 34.039 2.299 43.518-13.797 59.029-18.396 15.512-4.599 22.405-25.556 48.258-24.141 25.852 1.415 38.778 15.594 60.321 17.363 21.544 1.768 25.852 13.5 46.103 22.167 20.251 8.667 38.778 9.729 64.199 7.96 25.422-1.769 32.316-19.653 44.38-20.361 12.064-.707 22.836 7.821 33.177 9.767 10.341 1.945 13.357 10.594 35.331 10.594"/>
        <path fill="#70BC8A" fill-rule="evenodd" d="M423.678 268.939v-65.39h1.71v65.39h-1.71z" clip-rule="evenodd"/>
        <g filter="url(#prefix__filter1_dd)">
            <rect width="23.951" height="15.084" x="412.559" y="198.162" fill="#70BC8A" rx="7"/>
            <rect width="21.951" height="13.084" x="413.559" y="199.162" stroke="#fff" stroke-width="2" rx="6"/>
        </g>
        <g filter="url(#prefix__filter2_dd)">
            <path fill="#fff" fill-rule="evenodd" d="M431.312 192.935c-3.271 2.659-8.573 2.659-11.844 0l-6.643-4.645c-.84-.588-1.841-.903-2.866-.903h-16.682c-11.438 0-15.586-.75-19.768-2.158-4.182-1.409-7.464-3.476-9.701-6.109-2.236-2.634-3.427-5.246-3.427-12.45v-17.823c0-7.204 1.191-9.816 3.427-12.45 2.237-2.634 5.519-4.7 9.701-6.109 4.182-1.409 8.33-2.159 19.768-2.159h62.515c11.439 0 15.587.75 19.769 2.159 4.182 1.409 7.464 3.475 9.7 6.109 2.237 2.634 3.428 5.246 3.428 12.45v17.823c0 7.204-1.191 9.816-3.428 12.45-2.236 2.633-5.518 4.7-9.7 6.109-4.182 1.408-8.33 2.158-19.769 2.158h-13.396c-2.05 0-4.051.63-5.731 1.805l-5.353 3.743z" clip-rule="evenodd"/>
        </g>
        <path fill="#666" d="M420.269 173.684h1.015l-2.858-7.75h-.956l-2.857 7.75h1.015l.779-2.218h3.083l.779 2.218zm-2.364-6.499h.086l1.214 3.459h-2.514l1.214-3.459zm7.439.607c-.789 0-1.482.403-1.853 1.069h-.086v-.967h-.881v7.724h.924v-2.804h.086c.317.612.983.972 1.81.972 1.472 0 2.433-1.187 2.433-2.997 0-1.821-.956-2.997-2.433-2.997zm-.22 5.162c-1.042 0-1.703-.838-1.703-2.165 0-1.332.661-2.164 1.708-2.164 1.058 0 1.692.811 1.692 2.164 0 1.354-.634 2.165-1.697 2.165zm4.104.73h.923v-3.588c0-.816.639-1.407 1.52-1.407.183 0 .516.032.591.054v-.924c-.118-.016-.311-.027-.462-.027-.768 0-1.434.398-1.606.962h-.086v-.86h-.88v5.79z"/>
        <path fill="#151522" d="M393.647 154.951h.857v-1.201c1.955-.139 3.42-1.194 3.42-3.01 0-1.583-1.047-2.374-3.01-2.828l-.41-.095v-2.856c.886.124 1.487.622 1.589 1.487h1.707c-.066-1.685-1.384-2.806-3.296-2.952v-1.223h-.857v1.216c-1.912.139-3.281 1.237-3.281 2.922 0 1.531 1.032 2.38 2.907 2.812l.374.088v2.967c-1.091-.118-1.633-.696-1.758-1.502h-1.706c.051 1.78 1.523 2.842 3.464 2.974v1.201zm-1.509-8.687c0-.637.52-1.186 1.509-1.303v2.658c-1.084-.285-1.509-.725-1.509-1.355zm4.021 4.659c0 .725-.513 1.259-1.655 1.362v-2.776c1.26.315 1.655.71 1.655 1.414zm3.955-4.461h1.773c0-1.113.732-1.875 1.882-1.875 1.106 0 1.765.74 1.765 1.699 0 .806-.322 1.311-1.655 2.659l-3.662 3.684v1.275h7.339v-1.568h-4.776v-.124l2.271-2.234c1.816-1.78 2.351-2.637 2.351-3.867 0-1.758-1.428-3.04-3.53-3.04-2.205 0-3.758 1.392-3.758 3.391zm13.389 7.705c2.307 0 3.852-1.516 3.852-3.728 0-2.124-1.464-3.479-3.273-3.479-1.077 0-1.853.366-2.322 1.018h-.125l.293-3.091h4.864v-1.552h-6.336l-.579 6.145h1.714c.359-.696 1.055-1.114 1.956-1.114 1.164 0 1.985.843 1.985 2.103 0 1.296-.821 2.16-2.036 2.16-1.077 0-1.89-.652-2.007-1.64h-1.765c.08 1.853 1.596 3.178 3.779 3.178zm6.335-.263h1.978l4.519-8.995v-1.574h-7.354v1.545h5.45v.117l-4.593 8.907zm7.779 2.79l1.267-4.402h-1.839l-.681 4.402h1.253zm7.141-2.534c2.3 0 3.926-1.538 3.926-3.706 0-2.029-1.473-3.508-3.479-3.508-1.246 0-2.242.571-2.74 1.574h-.124c.014-2.527.93-3.904 2.497-3.904.938 0 1.626.484 1.809 1.311h1.89c-.264-1.706-1.706-2.856-3.735-2.856-2.622 0-4.27 2.109-4.27 5.669 0 3.618 1.78 5.42 4.226 5.42zm-.015-1.538c-1.194 0-2.087-.93-2.087-2.153 0-1.209.864-2.081 2.094-2.081 1.231 0 2.081.872 2.081 2.117 0 1.201-.901 2.117-2.088 2.117zm8.335-3.435h1.326c1.304 0 2.095.652 2.095 1.714 0 1.025-.857 1.714-2.073 1.714-1.223 0-2.051-.63-2.132-1.612h-1.809c.088 1.912 1.663 3.164 3.963 3.164 2.285 0 3.984-1.318 3.984-3.135 0-1.442-.901-2.373-2.336-2.592v-.125c1.12-.3 1.919-1.142 1.926-2.417.007-1.516-1.26-2.827-3.508-2.827-2.293 0-3.728 1.296-3.824 3.149h1.773c.08-1.054.798-1.64 1.948-1.64 1.121 0 1.787.688 1.787 1.56 0 .959-.747 1.633-1.831 1.633h-1.289v1.414zm7.28-2.725h1.773c0-1.113.732-1.875 1.882-1.875 1.106 0 1.765.74 1.765 1.699 0 .806-.322 1.311-1.655 2.659l-3.662 3.684v1.275h7.339v-1.568h-4.776v-.124l2.271-2.234c1.816-1.78 2.351-2.637 2.351-3.867 0-1.758-1.428-3.04-3.53-3.04-2.205 0-3.758 1.392-3.758 3.391z"/>
        <path fill="#999" d="M419.565 298.748h1.015l-2.857-7.75h-.956l-2.858 7.75h1.015l.779-2.218h3.083l.779 2.218zm-2.363-6.499h.086l1.213 3.459h-2.513l1.214-3.459zm7.439.607c-.79 0-1.483.403-1.853 1.069h-.086v-.967h-.881v7.724h.924v-2.804h.086c.316.613.982.972 1.81.972 1.471 0 2.433-1.187 2.433-2.997 0-1.82-.956-2.997-2.433-2.997zm-.221 5.162c-1.042 0-1.702-.838-1.702-2.165 0-1.332.66-2.164 1.708-2.164 1.058 0 1.692.811 1.692 2.164 0 1.354-.634 2.165-1.698 2.165zm4.104.73h.924v-3.587c0-.817.639-1.408 1.52-1.408.182 0 .515.033.591.054v-.924c-.119-.016-.312-.027-.462-.027-.768 0-1.434.398-1.606.962h-.086v-.86h-.881v5.79zM335.478 298.748v-7.75h-1.122l-2.654 6.467h-.086l-2.653-6.467h-1.123v7.75h.903v-5.919h.064l2.444 5.919h.816l2.444-5.919h.065v5.919h.902zm3.47.102c.773 0 1.407-.338 1.783-.956h.086v.854h.881v-3.963c0-1.204-.79-1.929-2.202-1.929-1.236 0-2.149.613-2.272 1.542h.934c.129-.457.613-.72 1.305-.72.865 0 1.311.392 1.311 1.107v.526l-1.67.102c-1.349.081-2.111.677-2.111 1.713 0 1.058.832 1.724 1.955 1.724zm.172-.811c-.672 0-1.171-.343-1.171-.934 0-.58.387-.886 1.267-.945l1.558-.103v.532c0 .827-.704 1.45-1.654 1.45zm4.286.709h.924v-3.587c0-.817.639-1.408 1.52-1.408.182 0 .515.033.591.054v-.924c-.119-.016-.312-.027-.462-.027-.768 0-1.434.398-1.606.962h-.086v-.86h-.881v5.79zM246.373 298.748v-3.357h3.432v-.859h-3.432v-2.664h3.738v-.87h-4.705v7.75h.967zm9.045-1.498c-.242.51-.747.784-1.494.784-.982 0-1.622-.725-1.67-1.869v-.043h4.163v-.355c0-1.799-.951-2.911-2.514-2.911-1.59 0-2.61 1.182-2.61 3.003 0 1.831 1.004 2.991 2.61 2.991 1.268 0 2.17-.612 2.438-1.6h-.923zm-1.526-3.577c.919 0 1.531.676 1.552 1.702h-3.19c.07-1.026.714-1.702 1.638-1.702zm6.854 5.177c1.466 0 2.427-1.187 2.427-2.997 0-1.82-.956-2.997-2.427-2.997-.795 0-1.499.392-1.816 1.015h-.086v-3.211h-.923v8.088h.88v-.923h.086c.366.644 1.053 1.025 1.859 1.025zm-.215-5.161c1.058 0 1.686.811 1.686 2.164 0 1.354-.628 2.165-1.686 2.165-1.053 0-1.708-.827-1.708-2.165 0-1.337.655-2.164 1.708-2.164zM162.091 296.938c0 1.187.913 1.993 2.213 1.993 1.402 0 2.256-.865 2.256-2.342v-5.591h-.967v5.586c0 .951-.467 1.455-1.294 1.455-.731 0-1.225-.451-1.246-1.101h-.962zm7.939 1.912c.773 0 1.407-.338 1.783-.956h.086v.854h.881v-3.963c0-1.204-.79-1.929-2.202-1.929-1.236 0-2.149.613-2.272 1.542h.934c.129-.457.612-.72 1.305-.72.865 0 1.311.392 1.311 1.107v.526l-1.671.102c-1.348.081-2.11.677-2.11 1.713 0 1.058.832 1.724 1.955 1.724zm.172-.811c-.672 0-1.171-.343-1.171-.934 0-.58.386-.886 1.267-.945l1.558-.103v.532c0 .827-.704 1.45-1.654 1.45zm4.286.709h.924v-3.426c0-1.015.596-1.633 1.52-1.633.923 0 1.364.494 1.364 1.536v3.523h.924v-3.749c0-1.375-.725-2.143-2.025-2.143-.886 0-1.45.376-1.74 1.015h-.086v-.913h-.881v5.79zM503.997 298.748v-7.75h-1.123l-2.653 6.467h-.086l-2.653-6.467h-1.123v7.75h.903v-5.919h.064l2.444 5.919h.816l2.444-5.919h.065v5.919h.902zm3.47.102c.773 0 1.407-.338 1.783-.956h.086v.854h.881v-3.963c0-1.204-.79-1.929-2.202-1.929-1.236 0-2.149.613-2.272 1.542h.934c.129-.457.613-.72 1.305-.72.865 0 1.311.392 1.311 1.107v.526l-1.67.102c-1.349.081-2.111.677-2.111 1.713 0 1.058.832 1.724 1.955 1.724zm.172-.811c-.672 0-1.171-.343-1.171-.934 0-.58.386-.886 1.267-.945l1.558-.103v.532c0 .827-.704 1.45-1.654 1.45zm4.565 2.804c1.026 0 1.488-.397 1.982-1.74l2.261-6.145h-.983l-1.584 4.765h-.086l-1.59-4.765h-.999l2.143 5.796-.107.344c-.242.698-.532.95-1.064.95-.129 0-.274-.005-.386-.027v.79c.128.021.29.032.413.032zM78.432 290.998v7.75h2.66c2.303 0 3.657-1.434 3.657-3.878 0-2.438-1.36-3.872-3.658-3.872h-2.659zm.967.87h1.628c1.718 0 2.733 1.117 2.733 3.013 0 1.891-1.004 2.997-2.733 2.997h-1.628v-6.01zm10.742 5.382c-.241.51-.746.784-1.493.784-.983 0-1.622-.725-1.67-1.869v-.043h4.162v-.355c0-1.799-.95-2.911-2.513-2.911-1.59 0-2.61 1.182-2.61 3.003 0 1.831 1.004 2.991 2.61 2.991 1.267 0 2.17-.612 2.438-1.6h-.924zm-1.525-3.577c.918 0 1.53.676 1.552 1.702h-3.19c.07-1.026.714-1.702 1.638-1.702zm8.766 1.058c-.162-1.031-1.02-1.875-2.428-1.875-1.622 0-2.653 1.171-2.653 2.976 0 1.842 1.036 3.018 2.658 3.018 1.391 0 2.256-.784 2.423-1.847h-.935c-.172.655-.714 1.015-1.493 1.015-1.031 0-1.697-.849-1.697-2.186 0-1.311.655-2.143 1.697-2.143.832 0 1.343.467 1.493 1.042h.935zM61.33 271.996c1.74 0 2.74-1.472 2.74-4.045 0-2.567-1.015-4.071-2.74-4.071-1.734 0-2.75 1.498-2.75 4.055 0 2.578 1.005 4.061 2.75 4.061zm0-.844c-1.143 0-1.777-1.144-1.777-3.217 0-2.046.644-3.207 1.778-3.207 1.133 0 1.767 1.15 1.767 3.207 0 2.079-.623 3.217-1.767 3.217zM45.133 226.384h.935c0-.918.618-1.525 1.547-1.525.913 0 1.466.612 1.466 1.434 0 .682-.29 1.085-1.278 2.153l-2.621 2.836v.666h5.016v-.87h-3.673v-.086l1.761-1.82c1.397-1.445 1.783-2.09 1.783-2.981 0-1.257-1.036-2.176-2.39-2.176-1.482 0-2.546.989-2.546 2.369zm9.303 5.747c1.74 0 2.74-1.472 2.74-4.044 0-2.568-1.016-4.072-2.74-4.072-1.735 0-2.75 1.499-2.75 4.055 0 2.579 1.005 4.061 2.75 4.061zm0-.843c-1.144 0-1.778-1.144-1.778-3.218 0-2.046.645-3.206 1.778-3.206s1.767 1.149 1.767 3.206c0 2.079-.623 3.218-1.767 3.218zm6.929.843c1.74 0 2.74-1.472 2.74-4.044 0-2.568-1.016-4.072-2.74-4.072-1.735 0-2.75 1.499-2.75 4.055 0 2.579 1.004 4.061 2.75 4.061zm0-.843c-1.144 0-1.778-1.144-1.778-3.218 0-2.046.644-3.206 1.778-3.206 1.133 0 1.767 1.149 1.767 3.206 0 2.079-.623 3.218-1.767 3.218zM48.292 192.084h.945v-1.606h1.101v-.865h-1.101v-5.28h-1.402c-1.085 1.617-2.272 3.508-3.32 5.264v.881h3.777v1.606zm-2.788-2.53c.843-1.423 1.858-3.024 2.729-4.324h.064v4.389h-2.793v-.065zm8.932 2.712c1.74 0 2.74-1.471 2.74-4.044 0-2.567-1.016-4.071-2.74-4.071-1.735 0-2.75 1.498-2.75 4.055 0 2.578 1.005 4.06 2.75 4.06zm0-.843c-1.144 0-1.778-1.144-1.778-3.217 0-2.046.645-3.207 1.778-3.207s1.767 1.15 1.767 3.207c0 2.079-.623 3.217-1.767 3.217zm6.929.843c1.74 0 2.74-1.471 2.74-4.044 0-2.567-1.016-4.071-2.74-4.071-1.735 0-2.75 1.498-2.75 4.055 0 2.578 1.004 4.06 2.75 4.06zm0-.843c-1.144 0-1.778-1.144-1.778-3.217 0-2.046.644-3.207 1.778-3.207 1.133 0 1.767 1.15 1.767 3.207 0 2.079-.623 3.217-1.767 3.217zM47.556 152.397c1.59 0 2.718-1.112 2.718-2.67 0-1.504-1.07-2.594-2.546-2.594-.924 0-1.681.44-2.063 1.192h-.086c.032-2.105.784-3.179 2.073-3.179.785 0 1.354.402 1.515 1.122h.994c-.199-1.203-1.128-1.982-2.54-1.982-1.832 0-2.982 1.526-2.982 4.19 0 2.61 1.23 3.921 2.917 3.921zm-.011-.849c-.994 0-1.751-.784-1.751-1.821 0-1.026.736-1.756 1.762-1.756s1.74.73 1.74 1.788c0 1.016-.757 1.789-1.751 1.789zm6.891.854c1.74 0 2.74-1.472 2.74-4.044 0-2.568-1.016-4.072-2.74-4.072-1.735 0-2.75 1.499-2.75 4.055 0 2.579 1.005 4.061 2.75 4.061zm0-.843c-1.144 0-1.778-1.144-1.778-3.218 0-2.046.645-3.206 1.778-3.206s1.767 1.149 1.767 3.206c0 2.079-.623 3.218-1.767 3.218zm6.929.843c1.74 0 2.74-1.472 2.74-4.044 0-2.568-1.016-4.072-2.74-4.072-1.735 0-2.75 1.499-2.75 4.055 0 2.579 1.004 4.061 2.75 4.061zm0-.843c-1.144 0-1.778-1.144-1.778-3.218 0-2.046.644-3.206 1.778-3.206 1.133 0 1.767 1.149 1.767 3.206 0 2.079-.623 3.218-1.767 3.218zM47.454 112.537c1.643 0 2.793-.929 2.793-2.255 0-1.01-.64-1.794-1.612-1.977v-.086c.8-.22 1.295-.881 1.295-1.729 0-1.209-1.026-2.068-2.476-2.068s-2.476.859-2.476 2.068c0 .843.505 1.514 1.294 1.729v.086c-.972.183-1.611.967-1.611 1.977 0 1.326 1.15 2.255 2.793 2.255zm0-4.64c-.913 0-1.526-.527-1.526-1.316 0-.8.607-1.332 1.526-1.332.918 0 1.525.532 1.525 1.332 0 .789-.612 1.316-1.525 1.316zm0 3.813c-1.075 0-1.816-.612-1.816-1.498s.742-1.499 1.816-1.499 1.815.613 1.815 1.499c0 .886-.741 1.498-1.815 1.498zm6.982.827c1.74 0 2.74-1.471 2.74-4.044 0-2.567-1.016-4.071-2.74-4.071-1.735 0-2.75 1.498-2.75 4.055 0 2.578 1.005 4.06 2.75 4.06zm0-.843c-1.144 0-1.778-1.144-1.778-3.217 0-2.046.645-3.207 1.778-3.207s1.767 1.15 1.767 3.207c0 2.079-.623 3.217-1.767 3.217zm6.929.843c1.74 0 2.74-1.471 2.74-4.044 0-2.567-1.016-4.071-2.74-4.071-1.735 0-2.75 1.498-2.75 4.055 0 2.578 1.004 4.06 2.75 4.06zm0-.843c-1.144 0-1.778-1.144-1.778-3.217 0-2.046.644-3.207 1.778-3.207 1.133 0 1.767 1.15 1.767 3.207 0 2.079-.623 3.217-1.767 3.217z"/>
        <rect width="13.686" height="8.619" x="172.789" y="62.736" fill="#9BA6FA" rx="4.31"/>
        <path fill="#151522" d="M195.873 65.42h1.242c0-.937.627-1.57 1.582-1.57.938 0 1.494.627 1.494 1.448 0 .685-.281 1.107-1.353 2.226l-2.895 3.012v.89h5.696v-1.118h-3.903v-.1l1.864-1.875c1.482-1.488 1.91-2.186 1.91-3.164 0-1.389-1.143-2.402-2.731-2.402-1.705 0-2.906 1.101-2.906 2.654zm10.477 6.212c1.968 0 3.117-1.623 3.117-4.424 0-2.807-1.166-4.441-3.117-4.441-1.963 0-3.129 1.634-3.129 4.423 0 2.813 1.154 4.442 3.129 4.442zm0-1.09c-1.149 0-1.805-1.172-1.805-3.352 0-2.15.668-3.328 1.805-3.328 1.136 0 1.793 1.166 1.793 3.328 0 2.186-.645 3.352-1.793 3.352zm6.832.885h1.312v-8.455h-1.306l-2.227 1.582v1.289l2.121-1.518h.1v7.102zm6.615.199c2.115 0 3.351-1.676 3.351-4.547 0-2.836-1.359-4.312-3.298-4.312-1.793 0-3.065 1.224-3.065 2.94 0 1.63 1.172 2.82 2.783 2.82 1.002 0 1.811-.47 2.215-1.278h.1c-.035 2.098-.779 3.27-2.074 3.27-.774 0-1.377-.422-1.577-1.12h-1.324c.252 1.36 1.389 2.227 2.889 2.227zm.058-4.16c-1.043 0-1.763-.733-1.763-1.8 0-1.019.762-1.804 1.775-1.804 1.008 0 1.77.797 1.77 1.84 0 1.025-.744 1.764-1.782 1.764z"/>
        <rect width="13.686" height="8.619" x="27.373" y="62.736" fill="#70BC8A" rx="4.31"/>
        <path fill="#151522" d="M50.457 65.42h1.242c0-.937.627-1.57 1.582-1.57.938 0 1.494.627 1.494 1.448 0 .685-.28 1.107-1.353 2.226l-2.895 3.012v.89h5.696v-1.118H52.32v-.1l1.864-1.875c1.482-1.488 1.91-2.186 1.91-3.164 0-1.389-1.143-2.402-2.73-2.402-1.706 0-2.907 1.101-2.907 2.654zm10.477 6.212c1.968 0 3.117-1.623 3.117-4.424 0-2.807-1.166-4.441-3.117-4.441-1.963 0-3.13 1.634-3.13 4.423 0 2.813 1.155 4.442 3.13 4.442zm0-1.09c-1.149 0-1.805-1.172-1.805-3.352 0-2.15.668-3.328 1.805-3.328 1.136 0 1.793 1.166 1.793 3.328 0 2.186-.645 3.352-1.793 3.352zm4.734-5.121h1.242c0-.938.627-1.57 1.582-1.57.938 0 1.494.626 1.494 1.447 0 .685-.28 1.107-1.353 2.226l-2.895 3.012v.89h5.696v-1.118H67.53v-.1l1.863-1.875c1.483-1.488 1.91-2.186 1.91-3.164 0-1.389-1.142-2.402-2.73-2.402-1.705 0-2.906 1.101-2.906 2.654zm10.476 6.21c1.97 0 3.118-1.622 3.118-4.423 0-2.807-1.166-4.441-3.118-4.441-1.962 0-3.128 1.634-3.128 4.423 0 2.813 1.154 4.442 3.128 4.442zm0-1.09c-1.148 0-1.804-1.171-1.804-3.35 0-2.151.668-3.329 1.804-3.329 1.137 0 1.793 1.166 1.793 3.328 0 2.186-.644 3.352-1.793 3.352z"/>
        <path fill="#171725" d="M33.489 31.161v-4.167l3.706-6.402h-2.073l-2.512 4.534h-.125l-2.52-4.534h-2.072l3.706 6.402v4.167h1.89zm10.049 0v-8.98h3.259v-1.589h-8.401v1.59h3.252v8.98h1.89zm5.236-10.569v10.57h3.963c3.164 0 4.973-1.942 4.973-5.333 0-3.318-1.831-5.237-4.973-5.237h-3.963zm1.89 1.59h1.824c2.072 0 3.296 1.347 3.296 3.677 0 2.38-1.194 3.713-3.296 3.713h-1.824v-7.39zm12.913 1.538h1.772c0-1.113.733-1.875 1.882-1.875 1.106 0 1.766.74 1.766 1.7 0 .805-.323 1.31-1.656 2.658l-3.662 3.684v1.274h7.34v-1.567h-4.776v-.125l2.27-2.234c1.817-1.78 2.351-2.636 2.351-3.867 0-1.758-1.428-3.04-3.53-3.04-2.205 0-3.757 1.392-3.757 3.392zm13.432 7.705c2.527 0 4.029-2.044 4.029-5.544 0-3.509-1.524-5.552-4.029-5.552-2.512 0-4.035 2.043-4.035 5.537 0 3.508 1.501 5.559 4.035 5.559zm0-1.53c-1.34 0-2.124-1.392-2.124-4.03 0-2.614.799-3.998 2.124-3.998 1.326 0 2.117 1.377 2.117 3.999 0 2.644-.776 4.028-2.117 4.028zm5.992-6.175h1.772c0-1.113.732-1.875 1.882-1.875 1.106 0 1.765.74 1.765 1.7 0 .805-.322 1.31-1.655 2.658l-3.662 3.684v1.274h7.339v-1.567h-4.775v-.125l2.27-2.234c1.816-1.78 2.351-2.636 2.351-3.867 0-1.758-1.428-3.04-3.53-3.04-2.205 0-3.757 1.392-3.757 3.392zm13.432 7.705c2.527 0 4.028-2.044 4.028-5.544 0-3.509-1.523-5.552-4.028-5.552-2.512 0-4.036 2.043-4.036 5.537 0 3.508 1.502 5.559 4.036 5.559zm0-1.53c-1.34 0-2.124-1.392-2.124-4.03 0-2.614.798-3.998 2.124-3.998s2.117 1.377 2.117 3.999c0 2.644-.777 4.028-2.117 4.028z"/>
        <path fill="#000" fill-rule="evenodd" d="M131.293 22.293l1.414 1.414L124 32.414l-8.707-8.707 1.414-1.414L124 29.586l7.293-7.293z" clip-rule="evenodd"/>
    </g>
    <defs>
        <filter id="prefix__filter0_dd" width="620" height="398" x="-32" y="-8" color-interpolation-filters="sRGB" filterUnits="userSpaceOnUse">
            <feFlood flood-opacity="0" result="BackgroundImageFix"/>
            <feColorMatrix in="SourceAlpha" values="0 0 0 0 0 0 0 0 0 0 0 0 0 0 0 0 0 0 127 0"/>
            <feOffset dy="24"/>
            <feGaussianBlur stdDeviation="16"/>
            <feColorMatrix values="0 0 0 0 0.196487 0 0 0 0 0.196487 0 0 0 0 0.279476 0 0 0 0.08 0"/>
            <feBlend in2="BackgroundImageFix" mode="multiply" result="effect1_dropShadow"/>
            <feColorMatrix in="SourceAlpha" values="0 0 0 0 0 0 0 0 0 0 0 0 0 0 0 0 0 0 127 0"/>
            <feOffset dy="16"/>
            <feGaussianBlur stdDeviation="8"/>
            <feColorMatrix values="0 0 0 0 0.196487 0 0 0 0 0.196487 0 0 0 0 0.279476 0 0 0 0.08 0"/>
            <feBlend in2="effect1_dropShadow" mode="multiply" result="effect2_dropShadow"/>
            <feBlend in="SourceGraphic" in2="effect2_dropShadow" result="shape"/>
        </filter>
        <filter id="prefix__filter1_dd" width="31.951" height="23.084" x="408.559" y="196.162" color-interpolation-filters="sRGB" filterUnits="userSpaceOnUse">
            <feFlood flood-opacity="0" result="BackgroundImageFix"/>
            <feColorMatrix in="SourceAlpha" values="0 0 0 0 0 0 0 0 0 0 0 0 0 0 0 0 0 0 127 0"/>
            <feOffset dy="2"/>
            <feGaussianBlur stdDeviation="2"/>
            <feColorMatrix values="0 0 0 0 0.196487 0 0 0 0 0.196487 0 0 0 0 0.279476 0 0 0 0.06 0"/>
            <feBlend in2="BackgroundImageFix" mode="multiply" result="effect1_dropShadow"/>
            <feColorMatrix in="SourceAlpha" values="0 0 0 0 0 0 0 0 0 0 0 0 0 0 0 0 0 0 127 0"/>
            <feOffset dy="2"/>
            <feGaussianBlur stdDeviation="1"/>
            <feColorMatrix values="0 0 0 0 0.196487 0 0 0 0 0.196487 0 0 0 0 0.279476 0 0 0 0.06 0"/>
            <feBlend in2="effect1_dropShadow" mode="multiply" result="effect2_dropShadow"/>
            <feBlend in="SourceGraphic" in2="effect2_dropShadow" result="shape"/>
        </filter>
        <filter id="prefix__filter2_dd" width="144.308" height="82.8" x="352.381" y="124.129" color-interpolation-filters="sRGB" filterUnits="userSpaceOnUse">
            <feFlood flood-opacity="0" result="BackgroundImageFix"/>
            <feColorMatrix in="SourceAlpha" values="0 0 0 0 0 0 0 0 0 0 0 0 0 0 0 0 0 0 127 0"/>
            <feOffset dy="4"/>
            <feGaussianBlur stdDeviation="4"/>
            <feColorMatrix values="0 0 0 0 0.196487 0 0 0 0 0.196487 0 0 0 0 0.279476 0 0 0 0.06 0"/>
            <feBlend in2="BackgroundImageFix" mode="multiply" result="effect1_dropShadow"/>
            <feColorMatrix in="SourceAlpha" values="0 0 0 0 0 0 0 0 0 0 0 0 0 0 0 0 0 0 127 0"/>
            <feOffset dy="4"/>
            <feGaussianBlur stdDeviation="2"/>
            <feColorMatrix values="0 0 0 0 0.196487 0 0 0 0 0.196487 0 0 0 0 0.279476 0 0 0 0.08 0"/>
            <feBlend in2="effect1_dropShadow" mode="multiply" result="effect2_dropShadow"/>
            <feBlend in="SourceGraphic" in2="effect2_dropShadow" result="shape"/>
        </filter>
        <clipPath id="prefix__clip0">
            <path fill="#fff" d="M0 0H556V334H0z"/>
        </clipPath>
    </defs>
</svg>
