<svg xmlns="http://www.w3.org/2000/svg" width="272" height="231" fill="none" viewBox="0 0 272 231">
    <g clip-path="url(#prefix__clip0)">
        <g filter="url(#prefix__filter0_dd)">
            <rect width="272" height="230" y=".981" fill="#fff" rx="10"/>
        </g>
        <path fill="#000" d="M28.344 33.135c-.515.67-1.228 1.179-2.139 1.524-.911.345-1.946.517-3.105.517-1.192 0-2.247-.27-3.165-.81-.917-.54-1.627-1.312-2.128-2.315-.495-1.009-.752-2.184-.772-3.525v-1.113c0-2.149.514-3.825 1.543-5.03 1.029-1.21 2.464-1.816 4.307-1.816 1.582 0 2.838.39 3.77 1.172.93.781 1.49 1.907 1.679 3.379h-2.422c-.273-1.713-1.266-2.569-2.978-2.569-1.107 0-1.95.4-2.53 1.201-.573.795-.869 1.963-.888 3.506v1.094c0 1.537.322 2.731.966 3.584.652.846 1.553 1.27 2.706 1.27 1.263 0 2.161-.287 2.695-.86v-2.783h-2.93v-1.875h5.39v5.45zm5.01 1.846H30.98v-15h2.372v15zm2.148-5.38c0-1.036.205-1.967.615-2.794.41-.833.986-1.471 1.729-1.914.742-.45 1.595-.674 2.558-.674 1.426 0 2.582.46 3.467 1.377.892.918 1.374 2.136 1.445 3.652l.01.557c0 1.042-.202 1.973-.605 2.793-.397.82-.97 1.455-1.719 1.904-.742.45-1.602.674-2.578.674-1.491 0-2.686-.495-3.584-1.484-.892-.996-1.338-2.321-1.338-3.975V29.6zm2.373.204c0 1.087.225 1.94.674 2.559.449.612 1.074.918 1.875.918.8 0 1.422-.313 1.865-.938.45-.625.674-1.54.674-2.744 0-1.068-.231-1.914-.694-2.539-.455-.625-1.077-.938-1.865-.938-.774 0-1.39.31-1.845.928-.456.612-.684 1.53-.684 2.754zm18.73 0c0 1.64-.367 2.946-1.103 3.916-.73.97-1.735 1.455-3.018 1.455-1.237 0-2.2-.446-2.89-1.338l-.117 1.143h-2.149v-15h2.373v5.45c.684-.808 1.605-1.212 2.764-1.212 1.289 0 2.301.479 3.037 1.436.736.957 1.103 2.295 1.103 4.014v.136zm-2.373-.205c0-1.146-.201-2.005-.605-2.578-.404-.573-.99-.86-1.758-.86-1.029 0-1.751.45-2.168 1.348v4.356c.423.918 1.152 1.377 2.188 1.377.742 0 1.315-.277 1.718-.83.404-.554.612-1.39.625-2.51V29.6zm10.684 5.381c-.104-.202-.195-.53-.273-.986-.756.787-1.68 1.181-2.774 1.181-1.061 0-1.927-.303-2.597-.908-.671-.605-1.006-1.354-1.006-2.246 0-1.126.416-1.989 1.25-2.588.84-.605 2.037-.908 3.593-.908h1.455v-.694c0-.546-.152-.983-.458-1.308-.306-.332-.772-.498-1.397-.498-.54 0-.983.137-1.328.41-.345.267-.518.609-.518 1.025H58.49c0-.579.192-1.12.576-1.62.384-.509.905-.906 1.563-1.192.664-.287 1.403-.43 2.217-.43 1.237 0 2.223.313 2.959.938.735.618 1.113 1.49 1.132 2.617v4.766c0 .95.134 1.709.4 2.275v.166h-2.421zm-2.607-1.709c.468 0 .908-.114 1.318-.342.417-.228.73-.534.937-.918V30.02h-1.279c-.879 0-1.54.153-1.982.459-.443.306-.664.739-.664 1.299 0 .456.15.82.449 1.094.306.267.713.4 1.22.4zm9.638 1.709h-2.373v-15h2.373v15zm19.082 0h-2.47L82.22 24.893v10.088H79.75V20.762h2.47l6.358 10.127V20.762h2.451v14.219zm5.39-5.283v5.283h-2.47V20.762h5.44c1.588 0 2.848.414 3.779 1.24.937.827 1.406 1.921 1.406 3.282 0 1.393-.459 2.477-1.377 3.252-.911.774-2.19 1.162-3.838 1.162h-2.94zm0-1.983h2.97c.879 0 1.549-.205 2.011-.615.463-.417.694-1.016.694-1.797 0-.768-.235-1.38-.703-1.836-.469-.462-1.114-.7-1.934-.713H96.42v4.961zm17.755 3.604c0-.625-.222-1.107-.664-1.445-.436-.339-1.227-.68-2.373-1.026-1.146-.345-2.058-.729-2.735-1.152-1.295-.814-1.943-1.875-1.943-3.184 0-1.146.465-2.09 1.396-2.832.938-.742 2.152-1.113 3.643-1.113.99 0 1.872.182 2.647.547.774.364 1.383.885 1.826 1.562.442.67.664 1.416.664 2.237h-2.461c0-.743-.235-1.322-.703-1.739-.463-.423-1.127-.634-1.992-.634-.808 0-1.436.172-1.885.517-.443.345-.664.827-.664 1.445 0 .521.241.957.722 1.309.482.345 1.276.684 2.383 1.016 1.107.325 1.996.7 2.666 1.123.671.416 1.162.898 1.475 1.445.312.54.469 1.175.469 1.904 0 1.185-.456 2.13-1.368 2.832-.905.697-2.135 1.045-3.691 1.045-1.029 0-1.976-.189-2.842-.566-.859-.384-1.53-.912-2.012-1.582-.475-.67-.712-1.452-.712-2.344h2.47c0 .807.267 1.432.801 1.875.534.443 1.299.664 2.295.664.859 0 1.504-.172 1.934-.517.436-.352.654-.814.654-1.387zM116.262 192.778l3.038-4.858h1.106l-3.654 5.684V198h-.952v-4.326l-3.598-5.754h1.092l2.968 4.858zm5.073.196c0-.737.098-1.428.294-2.072.205-.644.504-1.204.896-1.68.392-.485.877-.868 1.456-1.148.578-.28 1.246-.42 2.002-.42.784 0 1.47.14 2.058.42.597.271 1.092.649 1.484 1.134.401.476.7 1.041.896 1.694.205.644.308 1.335.308 2.072 0 .728-.103 1.414-.308 2.058-.196.635-.49 1.195-.882 1.68-.392.476-.882.854-1.47 1.134-.588.28-1.27.42-2.044.42-.775 0-1.456-.14-2.044-.42-.588-.28-1.078-.658-1.47-1.134-.392-.485-.686-1.045-.882-1.68-.196-.644-.294-1.33-.294-2.058zm4.704 4.48c.653 0 1.213-.121 1.68-.364.476-.252.863-.583 1.162-.994.308-.411.532-.887.672-1.428.149-.541.224-1.106.224-1.694 0-.7-.089-1.325-.266-1.876-.168-.56-.416-1.036-.742-1.428-.327-.392-.724-.691-1.19-.896-.467-.205-.99-.308-1.568-.308-.644 0-1.204.126-1.68.378-.467.252-.854.588-1.162 1.008-.299.411-.523.887-.672 1.428-.14.541-.21 1.106-.21 1.694 0 .597.07 1.167.21 1.708.149.541.373 1.017.672 1.428.308.411.695.737 1.162.98.476.243 1.045.364 1.708.364zm9.678-4.676l3.038-4.858h1.106l-3.654 5.684V198h-.952v-4.326l-3.598-5.754h1.092l2.968 4.858zM148.144 191h.84v3.08h3.08v.84h-3.08V198h-.84v-3.08h-3.08v-.84h3.08V191zm6.009.364c0-.485.074-.924.224-1.316.149-.401.364-.742.644-1.022.28-.289.616-.509 1.008-.658.401-.159.844-.238 1.33-.238.494 0 .928.075 1.302.224.382.14.7.331.952.574.261.243.457.532.588.868.13.336.196.691.196 1.064 0 .439-.075.826-.224 1.162-.14.336-.332.635-.574.896-.234.261-.504.495-.812.7-.299.205-.607.401-.924.588-.318.177-.63.35-.938.518-.308.168-.584.345-.826.532-.159.121-.313.252-.462.392-.15.131-.285.275-.406.434-.122.159-.22.336-.294.532-.075.187-.117.397-.126.63h5.502V198h-6.454c.009-.476.06-.905.154-1.288.093-.383.298-.756.616-1.12.345-.392.7-.728 1.064-1.008.373-.28.737-.527 1.092-.742.354-.224.69-.425 1.008-.602.317-.187.597-.387.84-.602.242-.215.434-.457.574-.728.14-.271.21-.602.21-.994 0-.317-.056-.602-.168-.854-.112-.252-.266-.467-.462-.644s-.425-.308-.686-.392c-.262-.093-.546-.14-.854-.14-.327 0-.626.07-.896.21-.262.131-.49.308-.686.532-.187.224-.332.485-.434.784-.103.299-.145.616-.126.952h-.952zM73.966 210.99c.038.448.136.831.294 1.148.168.308.378.56.63.756.262.196.56.341.896.434.336.084.696.126 1.078.126.448 0 .836-.056 1.162-.168.327-.112.593-.261.798-.448.206-.196.355-.42.448-.672.103-.252.154-.518.154-.798 0-.392-.088-.709-.266-.952-.177-.243-.41-.439-.7-.588-.28-.159-.606-.285-.98-.378-.364-.093-.742-.182-1.134-.266-.382-.093-.76-.201-1.134-.322-.364-.121-.69-.285-.98-.49-.28-.205-.508-.467-.686-.784-.177-.327-.266-.737-.266-1.232 0-.345.07-.681.21-1.008.15-.327.364-.616.644-.868.29-.252.65-.453 1.078-.602.43-.149.924-.224 1.484-.224.57 0 1.064.079 1.484.238.43.159.784.378 1.064.658.28.271.49.588.63.952s.21.751.21 1.162h-.91c0-.383-.07-.714-.21-.994-.13-.28-.312-.509-.546-.686-.233-.177-.499-.308-.798-.392-.298-.084-.606-.126-.924-.126-.485 0-.896.07-1.232.21-.326.131-.588.303-.784.518-.196.215-.33.453-.406.714-.074.261-.088.523-.042.784.056.327.187.588.392.784.206.196.458.359.756.49.3.121.626.224.98.308.364.075.733.159 1.106.252.374.084.733.187 1.078.308.355.121.668.285.938.49.271.205.486.471.644.798.168.317.252.719.252 1.204 0 .933-.322 1.657-.966 2.17-.644.513-1.549.77-2.716.77-.522 0-1.008-.07-1.456-.21-.448-.131-.835-.331-1.162-.602-.326-.28-.583-.621-.77-1.022-.177-.411-.266-.891-.266-1.442h.924zm12.787-.798c-.355.149-.714.247-1.078.294-.364.047-.728.084-1.092.112-.644.047-1.148.191-1.512.434-.355.243-.532.611-.532 1.106 0 .224.042.42.126.588.093.159.21.294.35.406.15.103.317.182.504.238.196.047.392.07.588.07.336 0 .663-.042.98-.126.317-.084.597-.21.84-.378.252-.177.453-.397.602-.658.15-.271.224-.588.224-.952v-1.134zm-1.414-.42c.159-.019.345-.047.56-.084.224-.037.406-.089.546-.154s.224-.173.252-.322c.037-.159.056-.303.056-.434 0-.429-.14-.779-.42-1.05-.27-.28-.733-.42-1.386-.42-.29 0-.555.028-.798.084-.243.047-.457.135-.644.266-.177.121-.327.289-.448.504-.112.205-.187.467-.224.784h-.854c.028-.429.126-.793.294-1.092.168-.308.383-.555.644-.742.27-.196.579-.336.924-.42.355-.093.728-.14 1.12-.14.364 0 .705.042 1.022.126.327.075.607.201.84.378.243.168.43.397.56.686.14.289.21.644.21 1.064v3.948c0 .327.056.537.168.63.121.084.36.061.714-.07v.658l-.294.084c-.121.037-.243.056-.364.056-.13 0-.257-.014-.378-.042-.14-.019-.252-.061-.336-.126-.084-.075-.154-.159-.21-.252-.047-.103-.08-.21-.098-.322-.019-.121-.028-.247-.028-.378-.355.392-.76.691-1.218.896-.457.205-.952.308-1.484.308-.317 0-.625-.042-.924-.126-.29-.084-.546-.215-.77-.392-.224-.177-.401-.392-.532-.644-.13-.261-.196-.569-.196-.924 0-1.232.845-1.96 2.534-2.184l1.162-.154zM90.514 214h-.84v-7.252h.84v1.092h.028c.215-.42.523-.737.924-.952.402-.224.84-.336 1.316-.336.336 0 .621.037.854.112.234.075.43.177.588.308.168.121.304.266.406.434.112.168.206.35.28.546.243-.476.565-.826.966-1.05.411-.233.878-.35 1.4-.35.495 0 .887.084 1.176.252.299.159.528.373.686.644.159.261.262.565.308.91.056.345.084.7.084 1.064V214h-.84v-5.012c0-.523-.112-.933-.336-1.232-.214-.299-.62-.448-1.218-.448-.308 0-.606.07-.896.21-.28.131-.527.336-.742.616-.093.121-.172.266-.238.434-.056.159-.102.327-.14.504-.037.177-.065.355-.084.532-.009.177-.014.341-.014.49V214h-.84v-5.012c0-.523-.112-.933-.336-1.232-.214-.299-.62-.448-1.218-.448-.308 0-.606.07-.896.21-.28.131-.527.336-.742.616-.093.121-.172.266-.238.434-.056.159-.102.327-.14.504-.037.177-.065.355-.084.532-.009.177-.014.341-.014.49V214zm11.872-3.598c0 .411.056.803.168 1.176.112.364.271.686.476.966.215.271.472.49.77.658.308.159.654.238 1.036.238.43 0 .803-.084 1.12-.252.327-.177.593-.415.798-.714.206-.299.355-.644.448-1.036.094-.401.131-.831.112-1.288 0-.457-.065-.859-.196-1.204-.121-.355-.294-.653-.518-.896-.224-.243-.485-.425-.784-.546-.298-.131-.625-.196-.98-.196-.392 0-.742.079-1.05.238-.308.159-.564.378-.77.658-.205.271-.364.597-.476.98-.102.373-.154.779-.154 1.218zm0 6.454h-.84v-10.108h.84v1.274h.028c.122-.233.276-.443.462-.63.196-.187.406-.341.63-.462.234-.121.472-.215.714-.28.243-.065.481-.098.714-.098.588 0 1.088.098 1.498.294.411.196.747.467 1.008.812.271.336.467.737.588 1.204.122.467.182.966.182 1.498 0 .504-.065.989-.196 1.456-.13.467-.331.877-.602 1.232-.261.345-.597.625-1.008.84-.401.205-.877.308-1.428.308-.513 0-1.008-.112-1.484-.336-.466-.233-.835-.574-1.106-1.022v4.018zm7.747-2.856v-10.08h.84V214h-.84zm8.228-4.13c0-.355-.052-.686-.154-.994-.094-.317-.238-.588-.434-.812-.187-.233-.425-.415-.714-.546-.29-.14-.621-.21-.994-.21-.374 0-.705.07-.994.21-.28.14-.523.327-.728.56-.196.233-.355.504-.476.812-.122.308-.201.635-.238.98h4.732zm-4.732.7c0 .392.051.765.154 1.12.102.345.252.649.448.91.205.252.462.457.77.616.308.149.662.224 1.064.224.55 0 1.022-.145 1.414-.434.392-.289.653-.7.784-1.232h.938c-.103.345-.238.667-.406.966-.168.289-.378.546-.63.77-.252.215-.551.383-.896.504-.346.121-.747.182-1.204.182-.579 0-1.078-.098-1.498-.294-.42-.196-.766-.462-1.036-.798-.271-.345-.472-.747-.602-1.204-.131-.467-.196-.966-.196-1.498s.074-1.031.224-1.498c.158-.467.378-.873.658-1.218.289-.355.639-.63 1.05-.826.41-.205.877-.308 1.4-.308.998 0 1.782.345 2.352 1.036.569.681.849 1.675.84 2.982h-5.628zm11.675.42c.038.448.136.831.294 1.148.168.308.378.56.63.756.262.196.56.341.896.434.336.084.696.126 1.078.126.448 0 .836-.056 1.162-.168.327-.112.593-.261.798-.448.206-.196.355-.42.448-.672.103-.252.154-.518.154-.798 0-.392-.088-.709-.266-.952-.177-.243-.41-.439-.7-.588-.28-.159-.606-.285-.98-.378-.364-.093-.742-.182-1.134-.266-.382-.093-.76-.201-1.134-.322-.364-.121-.69-.285-.98-.49-.28-.205-.508-.467-.686-.784-.177-.327-.266-.737-.266-1.232 0-.345.07-.681.21-1.008.15-.327.364-.616.644-.868.29-.252.649-.453 1.078-.602.43-.149.924-.224 1.484-.224.57 0 1.064.079 1.484.238.43.159.784.378 1.064.658.28.271.49.588.63.952s.21.751.21 1.162h-.91c0-.383-.07-.714-.21-.994-.13-.28-.312-.509-.546-.686-.233-.177-.499-.308-.798-.392-.298-.084-.606-.126-.924-.126-.485 0-.896.07-1.232.21-.326.131-.588.303-.784.518-.196.215-.331.453-.406.714-.074.261-.088.523-.042.784.056.327.187.588.392.784.206.196.458.359.756.49.299.121.626.224.98.308.364.075.733.159 1.106.252.374.084.733.187 1.078.308.355.121.668.285.938.49.271.205.486.471.644.798.168.317.252.719.252 1.204 0 .933-.322 1.657-.966 2.17-.644.513-1.549.77-2.716.77-.522 0-1.008-.07-1.456-.21-.448-.131-.835-.331-1.162-.602-.326-.28-.583-.621-.77-1.022-.177-.411-.266-.891-.266-1.442h.924zm7.921 3.01v-7.252h.84V214h-.84zm-.042-8.834v-1.246h.924v1.246h-.924zm2.473 8.834v-.742l4.816-5.81h-4.494v-.7h5.572v.742l-4.816 5.81h4.998v.7h-6.076zm12.796-4.13c0-.355-.051-.686-.154-.994-.093-.317-.238-.588-.434-.812-.186-.233-.424-.415-.714-.546-.289-.14-.62-.21-.994-.21-.373 0-.704.07-.994.21-.28.14-.522.327-.728.56-.196.233-.354.504-.476.812-.121.308-.2.635-.238.98h4.732zm-4.732.7c0 .392.052.765.154 1.12.103.345.252.649.448.91.206.252.462.457.77.616.308.149.663.224 1.064.224.551 0 1.022-.145 1.414-.434.392-.289.654-.7.784-1.232h.938c-.102.345-.238.667-.406.966-.168.289-.378.546-.63.77-.252.215-.55.383-.896.504-.345.121-.746.182-1.204.182-.578 0-1.078-.098-1.498-.294-.42-.196-.765-.462-1.036-.798-.27-.345-.471-.747-.602-1.204-.13-.467-.196-.966-.196-1.498s.075-1.031.224-1.498c.159-.467.378-.873.658-1.218.29-.355.64-.63 1.05-.826.411-.205.878-.308 1.4-.308.999 0 1.783.345 2.352 1.036.57.681.85 1.675.84 2.982h-5.628zm7.682 3.43v-1.232h1.022V214h-1.022zm0-5.656v-1.232h1.022v1.232h-1.022zm10.593-1.68h-2.548v-.588c.373-.028.709-.065 1.008-.112.308-.047.574-.135.798-.266.233-.131.424-.317.574-.56.158-.252.275-.588.35-1.008h.714V214h-.896v-7.336zm4.517.7c0-.485.075-.924.224-1.316.149-.401.364-.742.644-1.022.28-.289.616-.509 1.008-.658.401-.159.845-.238 1.33-.238.495 0 .929.075 1.302.224.383.14.7.331.952.574.261.243.457.532.588.868.131.336.196.691.196 1.064 0 .439-.075.826-.224 1.162-.14.336-.331.635-.574.896-.233.261-.504.495-.812.7-.299.205-.607.401-.924.588-.317.177-.63.35-.938.518-.308.168-.583.345-.826.532-.159.121-.313.252-.462.392-.149.131-.285.275-.406.434-.121.159-.219.336-.294.532-.075.187-.117.397-.126.63h5.502V214h-6.454c.009-.476.061-.905.154-1.288s.299-.756.616-1.12c.345-.392.7-.728 1.064-1.008.373-.28.737-.527 1.092-.742.355-.224.691-.425 1.008-.602.317-.187.597-.387.84-.602.243-.215.434-.457.574-.728.14-.271.21-.602.21-.994 0-.317-.056-.602-.168-.854-.112-.252-.266-.467-.462-.644s-.425-.308-.686-.392c-.261-.093-.546-.14-.854-.14-.327 0-.625.07-.896.21-.261.131-.49.308-.686.532-.187.224-.331.485-.434.784-.103.299-.145.616-.126.952h-.952zm9.263 7.056c0 .411-.098.737-.294.98-.186.252-.429.425-.728.518v-.518c.112-.075.22-.177.322-.308.103-.131.154-.336.154-.616V214h-.476v-1.232h1.022v1.652zm7.775-5.278c0-.532-.033-1.05-.098-1.554-.056-.513-.173-.971-.35-1.372-.178-.401-.43-.723-.756-.966-.318-.243-.738-.364-1.26-.364-.495 0-.901.126-1.218.378-.308.243-.551.569-.728.98-.178.411-.304.877-.378 1.4-.066.523-.098 1.055-.098 1.596 0 .635.037 1.213.112 1.736.084.513.219.952.406 1.316.186.364.434.649.742.854.317.196.714.294 1.19.294.532 0 .956-.131 1.274-.392.326-.261.574-.597.742-1.008.168-.411.28-.873.336-1.386.056-.513.084-1.017.084-1.512zm-2.436-5.012c.485 0 .905.075 1.26.224.354.14.653.336.896.588.252.252.452.546.602.882.158.336.28.695.364 1.078.084.373.14.761.168 1.162.028.401.042.793.042 1.176 0 .653-.047 1.279-.14 1.876-.094.597-.266 1.125-.518 1.582-.243.457-.579.821-1.008 1.092-.43.271-.985.406-1.666.406-.682 0-1.242-.135-1.68-.406-.43-.271-.77-.635-1.022-1.092-.243-.467-.411-1.003-.504-1.61-.094-.616-.14-1.265-.14-1.946 0-.625.042-1.237.126-1.834.084-.597.242-1.129.476-1.596.242-.476.583-.859 1.022-1.148.438-.289 1.012-.434 1.722-.434zm5.539 7.7c.103.532.308.933.616 1.204.317.271.751.406 1.302.406.588 0 1.055-.145 1.4-.434.355-.289.625-.653.812-1.092.196-.439.327-.91.392-1.414.075-.513.121-.994.14-1.442l-.028-.028c-.299.504-.672.887-1.12 1.148-.439.261-.952.392-1.54.392-.467 0-.887-.075-1.26-.224-.373-.149-.695-.364-.966-.644-.261-.28-.467-.616-.616-1.008-.14-.392-.21-.826-.21-1.302 0-.467.065-.896.196-1.288.131-.401.327-.747.588-1.036.261-.299.588-.527.98-.686.401-.168.873-.252 1.414-.252.663 0 1.213.131 1.652.392.448.261.803.616 1.064 1.064.271.448.462.975.574 1.582.112.607.168 1.255.168 1.946 0 .84-.089 1.577-.266 2.212-.177.625-.429 1.153-.756 1.582-.317.429-.695.751-1.134.966-.439.215-.919.322-1.442.322-.383 0-.742-.047-1.078-.14-.336-.093-.63-.238-.882-.434s-.457-.443-.616-.742c-.159-.299-.257-.649-.294-1.05h.91zm2.1-6.944c-.756.019-1.325.252-1.708.7-.383.448-.574 1.059-.574 1.834 0 .756.196 1.344.588 1.764.401.42.966.63 1.694.63.345 0 .653-.065.924-.196.28-.131.513-.308.7-.532.196-.224.341-.481.434-.77.103-.299.154-.616.154-.952 0-.728-.196-1.316-.588-1.764-.392-.457-.933-.695-1.624-.714zm4.993 2.478c0-.485.075-.924.224-1.316.15-.401.364-.742.644-1.022.28-.289.616-.509 1.008-.658.402-.159.845-.238 1.33-.238.495 0 .929.075 1.302.224.383.14.7.331.952.574.262.243.458.532.588.868.131.336.196.691.196 1.064 0 .439-.074.826-.224 1.162-.14.336-.331.635-.574.896-.233.261-.504.495-.812.7-.298.205-.606.401-.924.588-.317.177-.63.35-.938.518-.308.168-.583.345-.826.532-.158.121-.312.252-.462.392-.149.131-.284.275-.406.434-.121.159-.219.336-.294.532-.074.187-.116.397-.126.63h5.502V214h-6.454c.01-.476.061-.905.154-1.288.094-.383.299-.756.616-1.12.346-.392.7-.728 1.064-1.008.374-.28.738-.527 1.092-.742.355-.224.691-.425 1.008-.602.318-.187.598-.387.84-.602.243-.215.434-.457.574-.728.14-.271.21-.602.21-.994 0-.317-.056-.602-.168-.854-.112-.252-.266-.467-.462-.644s-.424-.308-.686-.392c-.261-.093-.546-.14-.854-.14-.326 0-.625.07-.896.21-.261.131-.49.308-.686.532-.186.224-.331.485-.434.784-.102.299-.144.616-.126.952h-.952z"/>
    </g>
    <defs>
        <clipPath id="prefix__clip0">
            <path fill="#fff" d="M0 0.981H272V230.981H0z"/>
        </clipPath>
        <filter id="prefix__filter0_dd" width="336" height="294" x="-32" y="-7.019" color-interpolation-filters="sRGB" filterUnits="userSpaceOnUse">
            <feFlood flood-opacity="0" result="BackgroundImageFix"/>
            <feColorMatrix in="SourceAlpha" values="0 0 0 0 0 0 0 0 0 0 0 0 0 0 0 0 0 0 127 0"/>
            <feOffset dy="24"/>
            <feGaussianBlur stdDeviation="16"/>
            <feColorMatrix values="0 0 0 0 0.196487 0 0 0 0 0.196487 0 0 0 0 0.279476 0 0 0 0.08 0"/>
            <feBlend in2="BackgroundImageFix" mode="multiply" result="effect1_dropShadow"/>
            <feColorMatrix in="SourceAlpha" values="0 0 0 0 0 0 0 0 0 0 0 0 0 0 0 0 0 0 127 0"/>
            <feOffset dy="16"/>
            <feGaussianBlur stdDeviation="8"/>
            <feColorMatrix values="0 0 0 0 0.196487 0 0 0 0 0.196487 0 0 0 0 0.279476 0 0 0 0.08 0"/>
            <feBlend in2="effect1_dropShadow" mode="multiply" result="effect2_dropShadow"/>
            <feBlend in="SourceGraphic" in2="effect2_dropShadow" result="shape"/>
        </filter>
    </defs>
</svg>
