<svg xmlns="http://www.w3.org/2000/svg" width="272" height="230" fill="none" viewBox="0 0 272 230">
    <g clip-path="url(#prefix__clip0)">
        <g filter="url(#prefix__filter0_dd)">
            <rect width="272" height="230" fill="#fff" rx="10"/>
        </g>
        <path fill="#000" d="M27.719 21.773h-4.434V34h-2.451V21.773h-4.395v-1.992h11.28v1.992zm-.83 6.846c0-1.035.205-1.966.615-2.793.41-.833.986-1.471 1.728-1.914.743-.45 1.596-.674 2.559-.674 1.426 0 2.581.46 3.467 1.377.892.918 1.373 2.136 1.445 3.653l.01.556c0 1.042-.202 1.973-.606 2.793-.397.82-.97 1.455-1.718 1.905-.742.449-1.602.673-2.579.673-1.49 0-2.685-.495-3.583-1.484-.892-.996-1.338-2.321-1.338-3.975v-.117zm2.373.205c0 1.087.224 1.94.674 2.559.449.612 1.074.918 1.875.918.8 0 1.422-.313 1.865-.938.449-.625.674-1.54.674-2.744 0-1.068-.232-1.914-.694-2.539-.456-.625-1.077-.937-1.865-.937-.775 0-1.39.309-1.846.927-.455.612-.683 1.53-.683 2.754zm9.013-.185c0-1.628.378-2.933 1.133-3.916.755-.99 1.768-1.485 3.037-1.485 1.12 0 2.025.39 2.715 1.172V19h2.373v15h-2.148l-.117-1.094c-.71.86-1.657 1.29-2.842 1.29-1.237 0-2.24-.499-3.008-1.495-.762-.996-1.143-2.35-1.143-4.062zm2.373.205c0 1.074.205 1.914.616 2.52.416.598 1.005.898 1.767.898.97 0 1.68-.433 2.13-1.3v-4.51c-.437-.847-1.14-1.27-2.11-1.27-.768 0-1.36.306-1.778.918-.416.605-.625 1.52-.625 2.744zM56.322 34c-.104-.202-.195-.53-.273-.986-.755.787-1.68 1.181-2.774 1.181-1.06 0-1.927-.302-2.597-.908-.67-.605-1.006-1.354-1.006-2.246 0-1.126.417-1.989 1.25-2.588.84-.605 2.038-.908 3.594-.908h1.455v-.693c0-.547-.153-.983-.46-1.309-.305-.332-.77-.498-1.396-.498-.54 0-.983.137-1.328.41-.345.267-.517.609-.517 1.026h-2.373c0-.58.192-1.12.576-1.622.384-.507.905-.905 1.562-1.191.664-.287 1.403-.43 2.217-.43 1.237 0 2.223.313 2.959.938.736.618 1.113 1.49 1.133 2.617v4.766c0 .95.133 1.709.4 2.275V34h-2.422zm-2.607-1.709c.469 0 .908-.114 1.318-.342.417-.228.73-.534.938-.918V29.04h-1.28c-.879 0-1.54.153-1.982.459-.443.306-.664.739-.664 1.299 0 .456.15.82.45 1.094.305.267.712.4 1.22.4zm10.654-1.69l2.149-7.167h2.529l-4.2 12.168c-.644 1.777-1.738 2.666-3.28 2.666-.346 0-.727-.059-1.143-.176v-1.836l.449.03c.599 0 1.048-.111 1.348-.333.306-.215.547-.58.722-1.094l.342-.908-3.71-10.517h2.558l2.236 7.168zM71.07 24l-1.212-.752c.586-.853.89-1.755.909-2.705V19h2.08v1.348c0 .67-.173 1.347-.518 2.03-.338.678-.758 1.218-1.26 1.622zm7.5 7.129c0-.423-.176-.745-.528-.967-.345-.221-.921-.417-1.728-.586-.808-.17-1.482-.384-2.022-.644-1.185-.573-1.777-1.403-1.777-2.49 0-.912.384-1.674 1.152-2.286.768-.612 1.745-.918 2.93-.918 1.263 0 2.282.313 3.056.938.782.625 1.172 1.435 1.172 2.431h-2.373c0-.455-.17-.833-.508-1.132-.338-.306-.787-.46-1.347-.46-.521 0-.948.121-1.28.362-.325.24-.488.563-.488.967 0 .364.153.647.46.85.305.201.924.406 1.855.615.93.201 1.66.446 2.187.732.534.28.928.619 1.182 1.016.26.397.39.879.39 1.445 0 .95-.394 1.722-1.181 2.314-.788.586-1.82.88-3.096.88-.866 0-1.637-.157-2.314-.47-.678-.312-1.205-.742-1.583-1.288-.377-.547-.566-1.137-.566-1.768h2.305c.032.56.244.993.635 1.299.39.3.908.449 1.552.449.625 0 1.1-.117 1.426-.352.326-.24.488-.553.488-.937zm20.966-3.867c0 1.393-.24 2.617-.722 3.672-.482 1.048-1.172 1.855-2.07 2.421-.893.56-1.921.84-3.087.84-1.152 0-2.18-.28-3.086-.84-.898-.566-1.595-1.37-2.09-2.412-.488-1.041-.735-2.242-.742-3.603v-.8c0-1.388.244-2.612.733-3.673.495-1.061 1.188-1.872 2.08-2.431.898-.567 1.927-.85 3.086-.85 1.159 0 2.184.28 3.076.84.898.553 1.592 1.354 2.08 2.402.488 1.042.736 2.256.742 3.643v.79zm-2.47-.742c0-1.576-.3-2.784-.899-3.623-.592-.84-1.435-1.26-2.53-1.26-1.067 0-1.904.42-2.509 1.26-.599.833-.905 2.015-.918 3.544v.82c0 1.563.303 2.77.908 3.624.612.853 1.459 1.28 2.54 1.28 1.093 0 1.933-.418 2.519-1.25.592-.834.888-2.052.888-3.653v-.742zm10.234-.918c-.313-.053-.635-.079-.967-.079-1.087 0-1.82.417-2.197 1.25V34h-2.373V23.434h2.265l.059 1.181c.573-.918 1.367-1.377 2.383-1.377.338 0 .618.046.84.137l-.01 2.227zm.859 3.037c0-1.628.378-2.933 1.133-3.916.755-.99 1.768-1.485 3.037-1.485 1.12 0 2.025.39 2.715 1.172V19h2.373v15h-2.148l-.118-1.094c-.709.86-1.657 1.29-2.841 1.29-1.237 0-2.24-.499-3.008-1.495-.762-.996-1.143-2.35-1.143-4.062zm2.373.205c0 1.074.205 1.914.615 2.52.417.598 1.006.898 1.768.898.97 0 1.68-.433 2.129-1.3v-4.51c-.436-.847-1.139-1.27-2.109-1.27-.769 0-1.361.306-1.778.918-.416.605-.625 1.52-.625 2.744zm14.014 5.351c-1.504 0-2.725-.472-3.662-1.416-.931-.95-1.397-2.213-1.397-3.789v-.293c0-1.054.202-1.995.606-2.822.41-.833.983-1.481 1.719-1.943.735-.463 1.556-.694 2.46-.694 1.439 0 2.549.46 3.331 1.377.787.918 1.181 2.217 1.181 3.897v.957h-6.904c.072.872.361 1.562.869 2.07.514.508 1.159.762 1.934.762 1.087 0 1.972-.44 2.656-1.319l1.279 1.221c-.423.632-.989 1.123-1.699 1.475-.703.345-1.494.517-2.373.517zm-.283-9.052c-.651 0-1.179.227-1.582.683-.397.456-.651 1.09-.762 1.904h4.521v-.175c-.052-.795-.263-1.393-.634-1.797-.371-.41-.886-.615-1.543-.615zm11.904.459c-.312-.053-.635-.079-.967-.079-1.087 0-1.819.417-2.197 1.25V34h-2.373V23.434h2.266l.058 1.181c.573-.918 1.367-1.377 2.383-1.377.338 0 .618.046.84.137l-.01 2.227zm7.422 5.527c0-.423-.176-.745-.527-.967-.346-.221-.922-.417-1.729-.586-.807-.17-1.481-.384-2.021-.644-1.185-.573-1.778-1.403-1.778-2.49 0-.912.384-1.674 1.153-2.286.768-.612 1.744-.918 2.929-.918 1.263 0 2.282.313 3.057.938.781.625 1.172 1.435 1.172 2.431h-2.373c0-.455-.17-.833-.508-1.132-.339-.306-.788-.46-1.348-.46-.521 0-.947.121-1.279.362-.326.24-.488.563-.488.967 0 .364.153.647.459.85.306.201.924.406 1.855.615.931.201 1.66.446 2.188.732.533.28.927.619 1.181 1.016.261.397.391.879.391 1.445 0 .95-.394 1.722-1.182 2.314-.788.586-1.819.88-3.095.88-.866 0-1.638-.157-2.315-.47-.677-.312-1.204-.742-1.582-1.288-.378-.547-.566-1.137-.566-1.768h2.304c.033.56.244.993.635 1.299.391.3.908.449 1.553.449.625 0 1.1-.117 1.426-.352.325-.24.488-.553.488-.937zM31.566 202.92h7.336v.812H35.71V213h-.952v-9.268h-3.192v-.812zM40.129 213v-10.08h.84v3.836c.336-.355.681-.644 1.036-.868.364-.224.798-.336 1.302-.336.448 0 .863.079 1.246.238.383.149.705.415.966.798.177.261.28.532.308.812.037.271.056.555.056.854V213h-.84v-4.732c0-.653-.145-1.143-.434-1.47-.29-.327-.77-.49-1.442-.49-.261 0-.5.042-.714.126-.215.075-.41.177-.588.308-.168.131-.313.28-.434.448-.121.168-.215.345-.28.532-.084.233-.135.457-.154.672-.019.215-.028.448-.028.7V213h-.84zm13.03-4.13c0-.355-.052-.686-.155-.994-.093-.317-.238-.588-.434-.812-.186-.233-.424-.415-.714-.546-.289-.14-.62-.21-.994-.21-.373 0-.704.07-.994.21-.28.14-.522.327-.728.56-.196.233-.354.504-.476.812-.12.308-.2.635-.238.98h4.732zm-4.733.7c0 .392.052.765.154 1.12.103.345.252.649.448.91.206.252.462.457.77.616.308.149.663.224 1.064.224.551 0 1.022-.145 1.414-.434.392-.289.654-.7.784-1.232h.938c-.102.345-.238.667-.406.966-.168.289-.378.546-.63.77-.252.215-.55.383-.896.504-.345.121-.746.182-1.204.182-.578 0-1.078-.098-1.498-.294-.42-.196-.765-.462-1.036-.798-.27-.345-.47-.747-.602-1.204-.13-.467-.196-.966-.196-1.498s.075-1.031.224-1.498c.16-.467.378-.873.658-1.218.29-.355.64-.63 1.05-.826.411-.205.878-.308 1.4-.308 1 0 1.783.345 2.352 1.036.57.681.85 1.675.84 2.982h-5.628zM56.57 213h-.84v-7.252h.84v1.358h.028c.233-.579.532-.98.896-1.204.373-.233.863-.35 1.47-.35v.91c-.476-.009-.868.065-1.176.224-.308.159-.556.373-.742.644-.178.271-.304.593-.378.966-.066.364-.098.747-.098 1.148V213zm8.784-4.13c0-.355-.052-.686-.154-.994-.094-.317-.238-.588-.434-.812-.187-.233-.425-.415-.714-.546-.29-.14-.621-.21-.994-.21-.374 0-.705.07-.994.21-.28.14-.523.327-.728.56-.196.233-.355.504-.476.812-.122.308-.201.635-.238.98h4.732zm-4.732.7c0 .392.051.765.154 1.12.102.345.252.649.448.91.205.252.462.457.77.616.308.149.662.224 1.064.224.55 0 1.022-.145 1.414-.434.392-.289.653-.7.784-1.232h.938c-.103.345-.238.667-.406.966-.168.289-.378.546-.63.77-.252.215-.551.383-.896.504-.346.121-.747.182-1.204.182-.579 0-1.078-.098-1.498-.294-.42-.196-.766-.462-1.036-.798-.271-.345-.472-.747-.602-1.204-.131-.467-.196-.966-.196-1.498s.074-1.031.224-1.498c.158-.467.378-.873.658-1.218.289-.355.639-.63 1.05-.826.41-.205.877-.308 1.4-.308.998 0 1.782.345 2.352 1.036.569.681.849 1.675.84 2.982h-5.628zm15.903-.378c-.354.149-.714.247-1.078.294-.364.047-.728.084-1.091.112-.644.047-1.148.191-1.512.434-.355.243-.532.611-.532 1.106 0 .224.041.42.126.588.093.159.21.294.35.406.149.103.317.182.504.238.195.047.391.07.587.07.337 0 .663-.042.98-.126.318-.084.598-.21.84-.378.252-.177.453-.397.603-.658.149-.271.223-.588.223-.952v-1.134zm-1.413-.42c.158-.019.345-.047.56-.084.224-.037.406-.089.546-.154s.224-.173.251-.322c.038-.159.056-.303.056-.434 0-.429-.14-.779-.42-1.05-.27-.28-.732-.42-1.386-.42-.289 0-.555.028-.797.084-.243.047-.458.135-.644.266-.178.121-.327.289-.449.504-.111.205-.186.467-.223.784h-.855c.028-.429.126-.793.294-1.092.168-.308.383-.555.644-.742.271-.196.58-.336.925-.42.354-.093.727-.14 1.12-.14.364 0 .704.042 1.022.126.326.075.606.201.84.378.242.168.429.397.56.686.14.289.21.644.21 1.064v3.948c0 .327.055.537.168.63.12.084.359.061.713-.07v.658l-.293.084c-.122.037-.243.056-.364.056-.131 0-.257-.014-.379-.042-.14-.019-.251-.061-.335-.126-.085-.075-.154-.159-.21-.252-.047-.103-.08-.21-.099-.322-.018-.121-.027-.247-.027-.378-.355.392-.761.691-1.219.896-.457.205-.951.308-1.483.308-.318 0-.626-.042-.924-.126-.29-.084-.546-.215-.77-.392-.225-.177-.402-.392-.532-.644-.131-.261-.197-.569-.197-.924 0-1.232.845-1.96 2.534-2.184l1.163-.154zM80.44 213h-.84v-7.252h.84v1.358h.028c.233-.579.532-.98.896-1.204.373-.233.863-.35 1.47-.35v.91c-.476-.009-.868.065-1.176.224-.308.159-.556.373-.742.644-.178.271-.304.593-.378.966-.066.364-.098.747-.098 1.148V213zm8.784-4.13c0-.355-.051-.686-.154-.994-.093-.317-.238-.588-.434-.812-.187-.233-.425-.415-.714-.546-.29-.14-.62-.21-.994-.21s-.705.07-.994.21c-.28.14-.523.327-.728.56-.196.233-.355.504-.476.812-.121.308-.2.635-.238.98h4.732zm-4.732.7c0 .392.051.765.154 1.12.102.345.252.649.448.91.205.252.462.457.77.616.308.149.663.224 1.064.224.55 0 1.022-.145 1.414-.434.392-.289.653-.7.784-1.232h.938c-.103.345-.238.667-.406.966-.168.289-.378.546-.63.77-.252.215-.55.383-.896.504s-.747.182-1.204.182c-.579 0-1.078-.098-1.498-.294-.42-.196-.766-.462-1.036-.798-.27-.345-.471-.747-.602-1.204-.13-.467-.196-.966-.196-1.498s.075-1.031.224-1.498c.159-.467.378-.873.658-1.218.29-.355.64-.63 1.05-.826.41-.205.877-.308 1.4-.308.998 0 1.782.345 2.352 1.036.57.681.85 1.675.84 2.982h-5.628zm13.244-2.058c.42 0 .802-.023 1.148-.07.345-.056.639-.154.882-.294.252-.149.448-.345.588-.588.14-.243.21-.555.21-.938 0-.308-.056-.569-.168-.784-.112-.224-.266-.406-.462-.546-.187-.14-.411-.243-.672-.308-.252-.065-.518-.098-.798-.098-.318 0-.607.051-.868.154-.252.103-.472.252-.658.448-.187.187-.332.411-.434.672-.103.252-.154.532-.154.84h-.896c0-.448.074-.849.224-1.204.158-.364.4-.7.728-1.008.308-.28.653-.457 1.036-.532.392-.084.793-.126 1.204-.126.392 0 .756.051 1.092.154.345.093.644.243.896.448.252.196.452.448.602.756.149.308.224.667.224 1.078 0 .513-.117.957-.35 1.33-.224.373-.574.663-1.05.868.354.112.644.261.868.448.233.177.415.378.546.602.13.215.219.443.266.686.046.243.07.476.07.7 0 .411-.07.793-.21 1.148-.14.355-.346.667-.616.938-.271.271-.607.49-1.008.658-.392.159-.84.243-1.344.252-.57 0-1.064-.051-1.484-.154-.42-.103-.77-.271-1.05-.504-.28-.243-.5-.555-.658-.938-.16-.392-.266-.877-.322-1.456h.896c0 .756.224 1.33.672 1.722.457.383 1.05.574 1.778.574.354 0 .686-.061.994-.182.308-.121.569-.285.784-.49.224-.205.392-.443.504-.714.121-.271.177-.551.168-.84-.019-.401-.112-.733-.28-.994-.168-.271-.397-.481-.686-.63-.28-.159-.612-.261-.994-.308-.383-.056-.79-.07-1.218-.042v-.728zm9.697 3.052h-4.508v-.77l4.592-6.566h.812v6.58h1.372v.756h-1.372V213h-.896v-2.436zm-3.626-.756h3.626v-5.236l-3.626 5.236zm10.299-1.638c-.345 0-.662.042-.952.126-.289.084-.541.215-.756.392-.214.168-.382.387-.504.658-.121.261-.182.574-.182.938 0 .308.056.593.168.854.122.261.285.49.49.686.215.187.472.336.77.448.308.112.649.168 1.022.168.327 0 .63-.051.91-.154.28-.112.523-.266.728-.462.215-.196.378-.429.49-.7.122-.271.182-.569.182-.896 0-.345-.06-.644-.182-.896-.121-.261-.289-.476-.504-.644-.214-.177-.466-.308-.756-.392-.289-.084-.597-.126-.924-.126zm-.042-4.284c-.28 0-.541.037-.784.112-.242.075-.457.187-.644.336-.177.149-.317.336-.42.56-.102.224-.154.481-.154.77 0 .308.056.574.168.798.122.215.28.392.476.532.196.14.42.247.672.322.252.065.514.098.784.098.271 0 .523-.033.756-.098.234-.075.434-.191.602-.35.168-.159.299-.359.392-.602.103-.243.154-.541.154-.896 0-.504-.163-.891-.49-1.162-.326-.28-.83-.42-1.512-.42zm-1.526 3.808c-.242-.149-.452-.289-.63-.42-.168-.14-.308-.289-.42-.448-.112-.159-.196-.336-.252-.532-.046-.205-.07-.457-.07-.756 0-.336.075-.653.224-.952.15-.299.35-.555.602-.77.252-.224.546-.397.882-.518.346-.121.714-.177 1.106-.168.374 0 .738.047 1.092.14.364.093.686.238.966.434.28.196.504.448.672.756.168.299.252.658.252 1.078 0 .513-.107.952-.322 1.316-.205.364-.546.663-1.022.896.542.196.966.509 1.274.938.318.429.476.933.476 1.512 0 .485-.084.915-.252 1.288-.158.373-.392.686-.7.938-.298.252-.662.443-1.092.574-.429.131-.905.196-1.428.196-.354 0-.718-.061-1.092-.182-.364-.121-.695-.303-.994-.546-.289-.243-.527-.546-.714-.91-.186-.364-.28-.789-.28-1.274 0-.588.145-1.111.434-1.568.299-.467.728-.807 1.288-1.022zm13.23 5.502c-.467-.009-.905-.093-1.316-.252-.401-.159-.756-.397-1.064-.714-.299-.317-.537-.714-.714-1.19-.177-.476-.266-1.031-.266-1.666 0-.532.07-1.027.21-1.484.14-.467.35-.873.63-1.218s.63-.616 1.05-.812c.42-.205.91-.308 1.47-.308.569 0 1.064.103 1.484.308.42.196.77.467 1.05.812.28.336.485.737.616 1.204.14.467.21.966.21 1.498 0 .579-.079 1.101-.238 1.568-.159.467-.387.868-.686 1.204-.289.336-.644.597-1.064.784-.411.177-.868.266-1.372.266zm2.464-3.822c0-.429-.047-.831-.14-1.204-.093-.373-.238-.695-.434-.966-.196-.28-.448-.499-.756-.658-.308-.159-.686-.238-1.134-.238-.439 0-.817.089-1.134.266-.308.168-.56.397-.756.686-.196.28-.341.607-.434.98-.093.364-.14.742-.14 1.134 0 .448.051.863.154 1.246.112.373.271.695.476.966.205.271.462.481.77.63.308.149.663.224 1.064.224.439 0 .812-.084 1.12-.252.317-.177.574-.411.77-.7.196-.289.341-.616.434-.98.093-.364.14-.742.14-1.134zm3.313 3.626h-.84v-7.252h.84v1.358h.028c.234-.579.532-.98.896-1.204.374-.233.864-.35 1.47-.35v.91c-.476-.009-.868.065-1.176.224-.308.159-.555.373-.742.644-.177.271-.303.593-.378.966-.065.364-.098.747-.098 1.148V213zm9.134-3.654c0-.411-.056-.798-.168-1.162-.112-.373-.275-.695-.49-.966-.205-.28-.462-.499-.77-.658-.298-.168-.639-.252-1.022-.252-.438 0-.816.089-1.134.266-.317.168-.578.401-.784.7-.205.299-.354.649-.448 1.05-.093.392-.13.817-.112 1.274 0 .457.061.863.182 1.218.131.345.308.639.532.882.224.243.486.429.784.56.299.121.626.182.98.182.392 0 .742-.079 1.05-.238.308-.159.565-.373.77-.644.206-.28.36-.607.462-.98.112-.383.168-.793.168-1.232zm0-6.426h.84V213h-.84v-1.274h-.028c-.121.243-.28.457-.476.644-.186.177-.396.327-.63.448-.224.121-.457.215-.7.28-.242.065-.48.098-.714.098-.588 0-1.087-.098-1.498-.294-.41-.196-.751-.462-1.022-.798-.261-.345-.452-.751-.574-1.218-.121-.467-.182-.966-.182-1.498 0-.504.066-.989.196-1.456.131-.467.327-.873.588-1.218.271-.355.607-.635 1.008-.84.411-.215.892-.322 1.442-.322.514 0 1.004.117 1.47.35.476.224.85.56 1.12 1.008v-3.99zm8.209 5.95c0-.355-.051-.686-.154-.994-.093-.317-.238-.588-.434-.812-.187-.233-.425-.415-.714-.546-.289-.14-.621-.21-.994-.21s-.705.07-.994.21c-.28.14-.523.327-.728.56-.196.233-.355.504-.476.812-.121.308-.201.635-.238.98h4.732zm-4.732.7c0 .392.051.765.154 1.12.103.345.252.649.448.91.205.252.462.457.77.616.308.149.663.224 1.064.224.551 0 1.022-.145 1.414-.434.392-.289.653-.7.784-1.232h.938c-.103.345-.238.667-.406.966-.168.289-.378.546-.63.77-.252.215-.551.383-.896.504s-.747.182-1.204.182c-.579 0-1.078-.098-1.498-.294-.42-.196-.765-.462-1.036-.798-.271-.345-.471-.747-.602-1.204-.131-.467-.196-.966-.196-1.498s.075-1.031.224-1.498c.159-.467.378-.873.658-1.218.289-.355.639-.63 1.05-.826.411-.205.877-.308 1.4-.308.999 0 1.783.345 2.352 1.036.569.681.849 1.675.84 2.982h-5.628zM152.3 213h-.84v-7.252h.84v1.358h.028c.233-.579.532-.98.896-1.204.373-.233.863-.35 1.47-.35v.91c-.476-.009-.868.065-1.176.224-.308.159-.555.373-.742.644-.177.271-.303.593-.378.966-.065.364-.098.747-.098 1.148V213zm4.27-2.268c.131.625.364 1.069.7 1.33.346.252.836.378 1.47.378.308 0 .574-.037.798-.112.224-.075.406-.173.546-.294.15-.131.262-.275.336-.434.075-.159.112-.327.112-.504 0-.355-.116-.616-.35-.784-.224-.177-.508-.313-.854-.406-.345-.103-.718-.187-1.12-.252-.401-.075-.774-.182-1.12-.322-.345-.14-.634-.341-.868-.602-.224-.261-.336-.63-.336-1.106 0-.607.22-1.101.658-1.484.448-.392 1.078-.588 1.89-.588.784 0 1.419.177 1.904.532.495.345.794.929.896 1.75h-.854c-.074-.56-.289-.952-.644-1.176-.345-.233-.784-.35-1.316-.35s-.938.117-1.218.35c-.28.224-.42.523-.42.896 0 .327.112.579.336.756.234.168.523.308.868.42.346.103.719.196 1.12.28.402.084.775.205 1.12.364.346.149.63.355.854.616.234.261.35.625.35 1.092 0 .345-.074.653-.224.924-.149.261-.354.481-.616.658-.261.177-.574.308-.938.392-.354.093-.746.14-1.176.14-.429 0-.812-.065-1.148-.196-.326-.121-.606-.294-.84-.518-.233-.224-.415-.485-.546-.784-.13-.299-.205-.621-.224-.966h.854zM167.705 213h-.84v-7.252h.84v1.092h.028c.214-.42.522-.737.924-.952.401-.224.84-.336 1.316-.336.336 0 .62.037.854.112.233.075.429.177.588.308.168.121.303.266.406.434.112.168.205.35.28.546.242-.476.564-.826.966-1.05.41-.233.877-.35 1.4-.35.494 0 .886.084 1.176.252.298.159.527.373.686.644.158.261.261.565.308.91.056.345.084.7.084 1.064V213h-.84v-5.012c0-.523-.112-.933-.336-1.232-.215-.299-.621-.448-1.218-.448-.308 0-.607.07-.896.21-.28.131-.528.336-.742.616-.094.121-.173.266-.238.434-.056.159-.103.327-.14.504-.038.177-.066.355-.084.532-.01.177-.014.341-.014.49V213h-.84v-5.012c0-.523-.112-.933-.336-1.232-.215-.299-.621-.448-1.218-.448-.308 0-.607.07-.896.21-.28.131-.528.336-.742.616-.094.121-.173.266-.238.434-.056.159-.103.327-.14.504-.038.177-.066.355-.084.532-.01.177-.014.341-.014.49V213zm15.68-3.808c-.355.149-.714.247-1.078.294-.364.047-.728.084-1.092.112-.644.047-1.148.191-1.512.434-.355.243-.532.611-.532 1.106 0 .224.042.42.126.588.093.159.21.294.35.406.149.103.317.182.504.238.196.047.392.07.588.07.336 0 .663-.042.98-.126.317-.084.597-.21.84-.378.252-.177.453-.397.602-.658.149-.271.224-.588.224-.952v-1.134zm-1.414-.42c.159-.019.345-.047.56-.084.224-.037.406-.089.546-.154s.224-.173.252-.322c.037-.159.056-.303.056-.434 0-.429-.14-.779-.42-1.05-.271-.28-.733-.42-1.386-.42-.289 0-.555.028-.798.084-.243.047-.457.135-.644.266-.177.121-.327.289-.448.504-.112.205-.187.467-.224.784h-.854c.028-.429.126-.793.294-1.092.168-.308.383-.555.644-.742.271-.196.579-.336.924-.42.355-.093.728-.14 1.12-.14.364 0 .705.042 1.022.126.327.075.607.201.84.378.243.168.429.397.56.686.14.289.21.644.21 1.064v3.948c0 .327.056.537.168.63.121.084.359.061.714-.07v.658l-.294.084c-.121.037-.243.056-.364.056-.131 0-.257-.014-.378-.042-.14-.019-.252-.061-.336-.126-.084-.075-.154-.159-.21-.252-.047-.103-.079-.21-.098-.322-.019-.121-.028-.247-.028-.378-.355.392-.761.691-1.218.896-.457.205-.952.308-1.484.308-.317 0-.625-.042-.924-.126-.289-.084-.546-.215-.77-.392-.224-.177-.401-.392-.532-.644-.131-.261-.196-.569-.196-.924 0-1.232.845-1.96 2.534-2.184l1.162-.154zm10.047.574c0-.411-.056-.798-.168-1.162-.112-.373-.275-.695-.49-.966-.205-.28-.462-.499-.77-.658-.299-.168-.639-.252-1.022-.252-.439 0-.817.089-1.134.266-.317.168-.579.401-.784.7-.205.299-.355.649-.448 1.05-.093.392-.131.817-.112 1.274 0 .457.061.863.182 1.218.131.345.308.639.532.882.224.243.485.429.784.56.299.121.625.182.98.182.392 0 .742-.079 1.05-.238.308-.159.565-.373.77-.644.205-.28.359-.607.462-.98.112-.383.168-.793.168-1.232zm0-6.426h.84V213h-.84v-1.274h-.028c-.121.243-.28.457-.476.644-.187.177-.397.327-.63.448-.224.121-.457.215-.7.28-.243.065-.481.098-.714.098-.588 0-1.087-.098-1.498-.294-.411-.196-.751-.462-1.022-.798-.261-.345-.453-.751-.574-1.218-.121-.467-.182-.966-.182-1.498 0-.504.065-.989.196-1.456.131-.467.327-.873.588-1.218.271-.355.607-.635 1.008-.84.411-.215.891-.322 1.442-.322.513 0 1.003.117 1.47.35.476.224.849.56 1.12 1.008v-3.99zm8.209 5.95c0-.355-.052-.686-.154-.994-.094-.317-.238-.588-.434-.812-.187-.233-.425-.415-.714-.546-.29-.14-.621-.21-.994-.21-.374 0-.705.07-.994.21-.28.14-.523.327-.728.56-.196.233-.355.504-.476.812-.122.308-.201.635-.238.98h4.732zm-4.732.7c0 .392.051.765.154 1.12.102.345.252.649.448.91.205.252.462.457.77.616.308.149.662.224 1.064.224.55 0 1.022-.145 1.414-.434.392-.289.653-.7.784-1.232h.938c-.103.345-.238.667-.406.966-.168.289-.378.546-.63.77-.252.215-.551.383-.896.504-.346.121-.747.182-1.204.182-.579 0-1.078-.098-1.498-.294-.42-.196-.766-.462-1.036-.798-.271-.345-.472-.747-.602-1.204-.131-.467-.196-.966-.196-1.498s.074-1.031.224-1.498c.158-.467.378-.873.658-1.218.289-.355.639-.63 1.05-.826.41-.205.877-.308 1.4-.308.998 0 1.782.345 2.352 1.036.569.681.849 1.675.84 2.982h-5.628zm13.706 3.458c-.103.019-.238.051-.406.098-.168.047-.355.07-.56.07-.42 0-.742-.103-.966-.308-.215-.215-.322-.593-.322-1.134v-5.306h-1.022v-.7h1.022v-2.016h.84v2.016h1.358v.7h-1.358v4.97c0 .177.004.331.014.462.009.131.037.238.084.322.046.084.116.145.21.182.102.037.242.056.42.056.112 0 .224-.009.336-.028.121-.019.238-.042.35-.07v.686zm4.232.168c-.467-.009-.905-.093-1.316-.252-.401-.159-.756-.397-1.064-.714-.299-.317-.537-.714-.714-1.19-.177-.476-.266-1.031-.266-1.666 0-.532.07-1.027.21-1.484.14-.467.35-.873.63-1.218s.63-.616 1.05-.812c.42-.205.91-.308 1.47-.308.569 0 1.064.103 1.484.308.42.196.77.467 1.05.812.28.336.485.737.616 1.204.14.467.21.966.21 1.498 0 .579-.079 1.101-.238 1.568-.159.467-.387.868-.686 1.204-.289.336-.644.597-1.064.784-.411.177-.868.266-1.372.266zm2.464-3.822c0-.429-.047-.831-.14-1.204-.093-.373-.238-.695-.434-.966-.196-.28-.448-.499-.756-.658-.308-.159-.686-.238-1.134-.238-.439 0-.817.089-1.134.266-.308.168-.56.397-.756.686-.196.28-.341.607-.434.98-.093.364-.14.742-.14 1.134 0 .448.051.863.154 1.246.112.373.271.695.476.966.205.271.462.481.77.63.308.149.663.224 1.064.224.439 0 .812-.084 1.12-.252.317-.177.574-.411.77-.7.196-.289.341-.616.434-.98.093-.364.14-.742.14-1.134zm8.031-.028c0-.411-.056-.798-.168-1.162-.112-.373-.275-.695-.49-.966-.205-.28-.462-.499-.77-.658-.298-.168-.639-.252-1.022-.252-.438 0-.816.089-1.134.266-.317.168-.578.401-.784.7-.205.299-.354.649-.448 1.05-.093.392-.13.817-.112 1.274 0 .457.061.863.182 1.218.131.345.308.639.532.882.224.243.486.429.784.56.299.121.626.182.98.182.392 0 .742-.079 1.05-.238.308-.159.565-.373.77-.644.206-.28.36-.607.462-.98.112-.383.168-.793.168-1.232zm0-6.426h.84V213h-.84v-1.274h-.028c-.121.243-.28.457-.476.644-.186.177-.396.327-.63.448-.224.121-.457.215-.7.28-.242.065-.48.098-.714.098-.588 0-1.087-.098-1.498-.294-.41-.196-.751-.462-1.022-.798-.261-.345-.452-.751-.574-1.218-.121-.467-.182-.966-.182-1.498 0-.504.066-.989.196-1.456.131-.467.327-.873.588-1.218.271-.355.607-.635 1.008-.84.411-.215.892-.322 1.442-.322.514 0 1.004.117 1.47.35.476.224.85.56 1.12 1.008v-3.99zm7.705 6.272c-.355.149-.714.247-1.078.294-.364.047-.728.084-1.092.112-.644.047-1.148.191-1.512.434-.355.243-.532.611-.532 1.106 0 .224.042.42.126.588.093.159.21.294.35.406.149.103.317.182.504.238.196.047.392.07.588.07.336 0 .663-.042.98-.126.317-.084.597-.21.84-.378.252-.177.453-.397.602-.658.149-.271.224-.588.224-.952v-1.134zm-1.414-.42c.159-.019.345-.047.56-.084.224-.037.406-.089.546-.154s.224-.173.252-.322c.037-.159.056-.303.056-.434 0-.429-.14-.779-.42-1.05-.271-.28-.733-.42-1.386-.42-.289 0-.555.028-.798.084-.243.047-.457.135-.644.266-.177.121-.327.289-.448.504-.112.205-.187.467-.224.784h-.854c.028-.429.126-.793.294-1.092.168-.308.383-.555.644-.742.271-.196.579-.336.924-.42.355-.093.728-.14 1.12-.14.364 0 .705.042 1.022.126.327.075.607.201.84.378.243.168.429.397.56.686.14.289.21.644.21 1.064v3.948c0 .327.056.537.168.63.121.084.359.061.714-.07v.658l-.294.084c-.121.037-.243.056-.364.056-.131 0-.257-.014-.378-.042-.14-.019-.252-.061-.336-.126-.084-.075-.154-.159-.21-.252-.047-.103-.079-.21-.098-.322-.019-.121-.028-.247-.028-.378-.355.392-.761.691-1.218.896-.457.205-.952.308-1.484.308-.317 0-.625-.042-.924-.126-.289-.084-.546-.215-.77-.392-.224-.177-.401-.392-.532-.644-.131-.261-.196-.569-.196-.924 0-1.232.845-1.96 2.534-2.184l1.162-.154zm4.391 6.202l.336.056c.122.019.243.028.364.028.234 0 .425-.075.574-.224.15-.149.271-.331.364-.546.103-.205.187-.425.252-.658.066-.224.14-.415.224-.574l-2.814-7.308h.938l2.324 6.23 2.324-6.23h.91l-2.702 7.154c-.168.457-.331.868-.49 1.232-.149.364-.312.672-.49.924-.168.261-.359.457-.574.588-.205.14-.452.21-.742.21-.149 0-.294-.009-.434-.028-.13-.019-.252-.042-.364-.07v-.784z"/>
        <path fill="#D9D9D9" d="M109.18 82.77c-1.216-3.74.828-7.788 4.65-8.72 12.205-2.976 24.904-3.506 37.359-1.534 14.805 2.345 28.844 8.16 40.971 16.971 12.127 8.81 21.996 20.366 28.801 33.722 5.725 11.235 9.144 23.477 10.086 36.004.294 3.923-2.923 7.117-6.857 7.117-3.935 0-7.091-3.195-7.438-7.114-.909-10.277-3.782-20.307-8.486-29.539-5.784-11.352-14.173-21.174-24.481-28.663-10.307-7.49-22.241-12.432-34.825-14.426-10.233-1.62-20.661-1.253-30.715 1.058-3.835.881-7.849-1.133-9.065-4.875z" opacity=".7"/>
        <path fill="#5B83D7" d="M48.591 161.732c-3.929-.206-6.974-3.564-6.474-7.466 2.233-17.442 9.273-33.973 20.398-47.711 12.623-15.588 29.857-26.78 49.232-31.972 19.375-5.191 39.896-4.115 58.623 3.073 16.503 6.335 30.865 17.13 41.52 31.119 2.384 3.13 1.426 7.561-1.874 9.704-3.3 2.142-7.688 1.182-10.113-1.916-8.987-11.48-20.946-20.35-34.639-25.606-15.917-6.11-33.361-7.024-49.829-2.611-16.47 4.412-31.118 13.926-41.848 27.176-9.23 11.398-15.153 25.059-17.196 39.494-.551 3.896-3.87 6.922-7.8 6.716z"/>
        <path fill="#232323" d="M123.375 144.785c0 .68.109 1.242.328 1.688.406.82 1.145 1.23 2.215 1.23.656 0 1.227-.223 1.711-.668.492-.453.738-1.101.738-1.945 0-1.117-.453-1.863-1.359-2.238-.516-.211-1.328-.317-2.438-.317v-2.39c1.086-.016 1.844-.122 2.274-.317.742-.328 1.113-.992 1.113-1.992 0-.648-.191-1.176-.574-1.582-.375-.406-.906-.609-1.594-.609-.789 0-1.371.25-1.746.75-.367.5-.543 1.167-.527 2.003h-3.118c.032-.843.176-1.644.434-2.402.273-.664.703-1.277 1.289-1.84.438-.398.957-.703 1.559-.914.601-.211 1.34-.316 2.215-.316 1.625 0 2.933.422 3.925 1.265 1 .836 1.5 1.961 1.5 3.375 0 1-.297 1.844-.89 2.532-.375.429-.766.722-1.172.879.304 0 .742.261 1.312.785.852.789 1.278 1.867 1.278 3.234 0 1.438-.5 2.703-1.5 3.797-.993 1.086-2.465 1.629-4.418 1.629-2.407 0-4.078-.785-5.016-2.356-.492-.836-.766-1.929-.82-3.281h3.281zm21.996 1.559h-1.922V150h-3.269v-3.656h-6.727v-2.918l6.246-10.313h3.75v10.617h1.922v2.614zm-5.191-2.614v-7.335l-4.254 7.335h4.254zm10.101 1.336c0 .836.215 1.485.645 1.946.437.461 1.039.691 1.804.691.766 0 1.364-.23 1.793-.691.438-.461.657-1.11.657-1.946 0-.867-.223-1.523-.668-1.968-.438-.453-1.032-.68-1.782-.68s-1.347.227-1.792.68c-.438.445-.657 1.101-.657 1.968zm-3.469.223c0-.953.215-1.816.645-2.59.438-.773 1.074-1.355 1.91-1.746-.82-.547-1.355-1.137-1.605-1.769-.242-.641-.364-1.239-.364-1.793 0-1.235.465-2.286 1.395-3.153.93-.875 2.242-1.312 3.937-1.312 1.696 0 3.008.437 3.938 1.312.93.867 1.394 1.918 1.394 3.153 0 .554-.124 1.152-.374 1.793-.243.632-.774 1.183-1.594 1.652.836.469 1.465 1.09 1.886 1.863.422.774.633 1.637.633 2.59 0 1.43-.531 2.649-1.593 3.656-1.055 1-2.532 1.5-4.43 1.5-1.899 0-3.336-.5-4.313-1.5-.976-1.007-1.465-2.226-1.465-3.656zm3.774-7.523c0 .617.187 1.121.562 1.511.383.391.911.586 1.582.586.68 0 1.204-.195 1.571-.586.375-.39.562-.894.562-1.511 0-.672-.187-1.196-.562-1.571-.367-.383-.891-.574-1.571-.574-.671 0-1.199.191-1.582.574-.375.375-.562.899-.562 1.571z"/>
    </g>
    <defs>
        <clipPath id="prefix__clip0">
            <path fill="#fff" d="M0 0H272V230H0z"/>
        </clipPath>
        <filter id="prefix__filter0_dd" width="336" height="294" x="-32" y="-8" color-interpolation-filters="sRGB" filterUnits="userSpaceOnUse">
            <feFlood flood-opacity="0" result="BackgroundImageFix"/>
            <feColorMatrix in="SourceAlpha" values="0 0 0 0 0 0 0 0 0 0 0 0 0 0 0 0 0 0 127 0"/>
            <feOffset dy="24"/>
            <feGaussianBlur stdDeviation="16"/>
            <feColorMatrix values="0 0 0 0 0.196487 0 0 0 0 0.196487 0 0 0 0 0.279476 0 0 0 0.08 0"/>
            <feBlend in2="BackgroundImageFix" mode="multiply" result="effect1_dropShadow"/>
            <feColorMatrix in="SourceAlpha" values="0 0 0 0 0 0 0 0 0 0 0 0 0 0 0 0 0 0 127 0"/>
            <feOffset dy="16"/>
            <feGaussianBlur stdDeviation="8"/>
            <feColorMatrix values="0 0 0 0 0.196487 0 0 0 0 0.196487 0 0 0 0 0.279476 0 0 0 0.08 0"/>
            <feBlend in2="effect1_dropShadow" mode="multiply" result="effect2_dropShadow"/>
            <feBlend in="SourceGraphic" in2="effect2_dropShadow" result="shape"/>
        </filter>
    </defs>
</svg>
