<svg xmlns="http://www.w3.org/2000/svg" width="272" height="230" fill="none" viewBox="0 0 272 230">
    <g clip-path="url(#prefix__clip0)">
        <g filter="url(#prefix__filter0_dd)">
            <rect width="272" height="230" fill="#fff" rx="10"/>
        </g>
        <path fill="#000" d="M27.719 21.773h-4.434V34h-2.451V21.773h-4.395v-1.992h11.28v1.992zm-.83 6.846c0-1.035.205-1.966.615-2.793.41-.833.986-1.471 1.728-1.914.743-.45 1.596-.674 2.559-.674 1.426 0 2.581.46 3.467 1.377.892.918 1.373 2.136 1.445 3.653l.01.556c0 1.042-.202 1.973-.606 2.793-.397.82-.97 1.455-1.718 1.905-.742.449-1.602.673-2.579.673-1.49 0-2.685-.495-3.583-1.484-.892-.996-1.338-2.321-1.338-3.975v-.117zm2.373.205c0 1.087.224 1.94.674 2.559.449.612 1.074.918 1.875.918.8 0 1.422-.313 1.865-.938.449-.625.674-1.54.674-2.744 0-1.068-.232-1.914-.694-2.539-.456-.625-1.077-.937-1.865-.937-.775 0-1.39.309-1.846.927-.455.612-.683 1.53-.683 2.754zm9.013-.185c0-1.628.378-2.933 1.133-3.916.755-.99 1.768-1.485 3.037-1.485 1.12 0 2.025.39 2.715 1.172V19h2.373v15h-2.148l-.117-1.094c-.71.86-1.657 1.29-2.842 1.29-1.237 0-2.24-.499-3.008-1.495-.762-.996-1.143-2.35-1.143-4.062zm2.373.205c0 1.074.205 1.914.616 2.52.416.598 1.005.898 1.767.898.97 0 1.68-.433 2.13-1.3v-4.51c-.437-.847-1.14-1.27-2.11-1.27-.768 0-1.36.306-1.778.918-.416.605-.625 1.52-.625 2.744zM56.322 34c-.104-.202-.195-.53-.273-.986-.755.787-1.68 1.181-2.774 1.181-1.06 0-1.927-.302-2.597-.908-.67-.605-1.006-1.354-1.006-2.246 0-1.126.417-1.989 1.25-2.588.84-.605 2.038-.908 3.594-.908h1.455v-.693c0-.547-.153-.983-.46-1.309-.305-.332-.77-.498-1.396-.498-.54 0-.983.137-1.328.41-.345.267-.517.609-.517 1.026h-2.373c0-.58.192-1.12.576-1.622.384-.507.905-.905 1.562-1.191.664-.287 1.403-.43 2.217-.43 1.237 0 2.223.313 2.959.938.736.618 1.113 1.49 1.133 2.617v4.766c0 .95.133 1.709.4 2.275V34h-2.422zm-2.607-1.709c.469 0 .908-.114 1.318-.342.417-.228.73-.534.938-.918V29.04h-1.28c-.879 0-1.54.153-1.982.459-.443.306-.664.739-.664 1.299 0 .456.15.82.45 1.094.305.267.712.4 1.22.4zm10.654-1.69l2.149-7.167h2.529l-4.2 12.168c-.644 1.777-1.738 2.666-3.28 2.666-.346 0-.727-.059-1.143-.176v-1.836l.449.03c.599 0 1.048-.111 1.348-.333.306-.215.547-.58.722-1.094l.342-.908-3.71-10.517h2.558l2.236 7.168zM71.07 24l-1.212-.752c.586-.853.89-1.755.909-2.705V19h2.08v1.348c0 .67-.173 1.347-.518 2.03-.338.678-.758 1.218-1.26 1.622zm7.5 7.129c0-.423-.176-.745-.528-.967-.345-.221-.921-.417-1.728-.586-.808-.17-1.482-.384-2.022-.644-1.185-.573-1.777-1.403-1.777-2.49 0-.912.384-1.674 1.152-2.286.768-.612 1.745-.918 2.93-.918 1.263 0 2.282.313 3.056.938.782.625 1.172 1.435 1.172 2.431h-2.373c0-.455-.17-.833-.508-1.132-.338-.306-.787-.46-1.347-.46-.521 0-.948.121-1.28.362-.325.24-.488.563-.488.967 0 .364.153.647.46.85.305.201.924.406 1.855.615.93.201 1.66.446 2.187.732.534.28.928.619 1.182 1.016.26.397.39.879.39 1.445 0 .95-.394 1.722-1.181 2.314-.788.586-1.82.88-3.096.88-.866 0-1.637-.157-2.314-.47-.678-.312-1.205-.742-1.583-1.288-.377-.547-.566-1.137-.566-1.768h2.305c.032.56.244.993.635 1.299.39.3.908.449 1.552.449.625 0 1.1-.117 1.426-.352.326-.24.488-.553.488-.937zm17.05-.791c0-.625-.221-1.107-.664-1.445-.436-.339-1.227-.68-2.373-1.026-1.146-.345-2.057-.729-2.734-1.152-1.296-.814-1.944-1.875-1.944-3.184 0-1.146.466-2.09 1.397-2.832.937-.742 2.151-1.113 3.642-1.113.99 0 1.872.182 2.647.547.775.364 1.383.885 1.826 1.562.443.67.664 1.416.664 2.237h-2.46c0-.742-.235-1.322-.704-1.739-.462-.423-1.126-.634-1.992-.634-.808 0-1.436.172-1.885.517-.443.345-.664.827-.664 1.445 0 .521.24.957.723 1.31.481.344 1.276.683 2.383 1.015 1.106.325 1.995.7 2.666 1.123.67.416 1.162.898 1.474 1.445.313.54.469 1.175.469 1.904 0 1.185-.456 2.13-1.367 2.832-.905.697-2.136 1.045-3.692 1.045-1.028 0-1.976-.188-2.842-.566-.859-.384-1.53-.912-2.011-1.582-.475-.67-.713-1.452-.713-2.344h2.47c0 .807.267 1.432.801 1.875.534.443 1.3.664 2.295.664.86 0 1.504-.172 1.934-.517.436-.352.654-.814.654-1.387zM106.342 34c-.104-.202-.196-.53-.274-.986-.755.787-1.679 1.181-2.773 1.181-1.061 0-1.927-.302-2.598-.908-.67-.605-1.006-1.354-1.006-2.246 0-1.126.417-1.989 1.25-2.588.84-.605 2.038-.908 3.594-.908h1.455v-.693c0-.547-.153-.983-.459-1.309-.306-.332-.771-.498-1.396-.498-.541 0-.983.137-1.328.41-.345.267-.518.609-.518 1.026h-2.373c0-.58.192-1.12.576-1.622.384-.507.905-.905 1.563-1.191.664-.287 1.403-.43 2.216-.43 1.237 0 2.224.313 2.959.938.736.618 1.114 1.49 1.133 2.617v4.766c0 .95.134 1.709.401 2.275V34h-2.422zm-2.608-1.709c.469 0 .909-.114 1.319-.342.416-.228.729-.534.937-.918V29.04h-1.279c-.879 0-1.54.153-1.982.459-.443.306-.665.739-.665 1.299 0 .456.15.82.45 1.094.306.267.713.4 1.22.4zM113.373 34H111V19h2.373v15zm7.246.195c-1.504 0-2.724-.472-3.662-1.416-.931-.95-1.396-2.213-1.396-3.789v-.293c0-1.054.201-1.995.605-2.822.41-.833.983-1.481 1.719-1.943.735-.463 1.556-.694 2.461-.694 1.439 0 2.549.46 3.33 1.377.788.918 1.181 2.217 1.181 3.897v.957h-6.904c.072.872.361 1.562.869 2.07.515.508 1.159.762 1.934.762 1.087 0 1.973-.44 2.656-1.319l1.279 1.221c-.423.632-.989 1.123-1.699 1.475-.703.345-1.494.517-2.373.517zm-.283-9.052c-.651 0-1.178.227-1.582.683-.397.456-.651 1.09-.762 1.904h4.522v-.175c-.052-.795-.264-1.393-.635-1.797-.371-.41-.886-.615-1.543-.615zm12.295 5.986c0-.423-.176-.745-.527-.967-.346-.221-.922-.417-1.729-.586-.807-.17-1.481-.384-2.021-.644-1.185-.573-1.778-1.403-1.778-2.49 0-.912.384-1.674 1.153-2.286.768-.612 1.744-.918 2.929-.918 1.263 0 2.282.313 3.057.938.781.625 1.172 1.435 1.172 2.431h-2.373c0-.455-.17-.833-.508-1.132-.339-.306-.788-.46-1.348-.46-.521 0-.947.121-1.279.362-.326.24-.488.563-.488.967 0 .364.153.647.459.85.306.201.924.406 1.855.615.931.201 1.66.446 2.188.732.533.28.927.619 1.181 1.016.261.397.391.879.391 1.445 0 .95-.394 1.722-1.182 2.314-.788.586-1.819.88-3.095.88-.866 0-1.638-.157-2.315-.47-.677-.312-1.204-.742-1.582-1.288-.378-.547-.566-1.137-.566-1.768h2.304c.033.56.244.993.635 1.299.391.3.908.449 1.553.449.625 0 1.1-.117 1.426-.352.325-.24.488-.553.488-.937zm13.115-.137l2.236-7.558h2.452L146.771 34h-2.06l-3.691-10.566h2.46l2.266 7.558zm12.1.137c0-.423-.176-.745-.528-.967-.345-.221-.921-.417-1.728-.586-.807-.17-1.481-.384-2.022-.644-1.185-.573-1.777-1.403-1.777-2.49 0-.912.384-1.674 1.152-2.286.769-.612 1.745-.918 2.93-.918 1.263 0 2.282.313 3.057.938.781.625 1.172 1.435 1.172 2.431h-2.373c0-.455-.17-.833-.508-1.132-.339-.306-.788-.46-1.348-.46-.521 0-.947.121-1.279.362-.326.24-.489.563-.489.967 0 .364.153.647.459.85.306.201.925.406 1.856.615.931.201 1.66.446 2.187.732.534.28.928.619 1.182 1.016.26.397.391.879.391 1.445 0 .95-.394 1.722-1.182 2.314-.788.586-1.82.88-3.096.88-.866 0-1.637-.157-2.314-.47-.677-.312-1.205-.742-1.582-1.288-.378-.547-.567-1.137-.567-1.768h2.305c.033.56.244.993.635 1.299.391.3.908.449 1.553.449.625 0 1.1-.117 1.425-.352.326-.24.489-.553.489-.937zM167.465 34V19.781h4.873c1.608 0 2.832.323 3.672.967.84.645 1.26 1.605 1.26 2.88 0 .652-.176 1.238-.528 1.759-.351.52-.866.924-1.543 1.21.768.209 1.361.603 1.778 1.182.423.573.634 1.263.634 2.07 0 1.335-.429 2.36-1.289 3.077-.853.716-2.077 1.074-3.672 1.074h-5.185zm2.471-6.416v4.443h2.744c.774 0 1.38-.192 1.816-.576.436-.384.654-.918.654-1.601 0-1.478-.755-2.234-2.265-2.266h-2.949zm0-1.816h2.421c.769 0 1.368-.173 1.797-.518.436-.352.655-.846.655-1.484 0-.703-.202-1.211-.606-1.524-.397-.312-1.019-.469-1.865-.469h-2.402v3.995zm16.318 7.197c-.697.82-1.686 1.23-2.969 1.23-1.146 0-2.015-.335-2.607-1.005-.586-.671-.879-1.641-.879-2.91v-6.846h2.373v6.816c0 1.341.557 2.012 1.67 2.012 1.152 0 1.93-.414 2.334-1.24v-7.588h2.373V34h-2.237l-.058-1.035zm4.267-4.326c0-1.628.378-2.933 1.133-3.916.756-.99 1.768-1.485 3.037-1.485 1.12 0 2.025.39 2.715 1.172V19h2.373v15h-2.148l-.117-1.094c-.71.86-1.657 1.29-2.842 1.29-1.237 0-2.24-.499-3.008-1.495-.762-.996-1.143-2.35-1.143-4.062zm2.374.205c0 1.074.205 1.914.615 2.52.416.598 1.006.898 1.767.898.97 0 1.68-.433 2.129-1.3v-4.51c-.436-.847-1.139-1.27-2.109-1.27-.768 0-1.361.306-1.777.918-.417.605-.625 1.52-.625 2.744zm8.945-.205c0-1.641.384-2.95 1.152-3.926.775-.983 1.8-1.475 3.076-1.475 1.205 0 2.152.42 2.842 1.26l.108-1.064h2.138v10.244c0 1.387-.433 2.48-1.299 3.281-.859.8-2.021 1.201-3.486 1.201-.775 0-1.533-.163-2.275-.488-.736-.32-1.296-.74-1.68-1.26l1.123-1.426c.729.866 1.628 1.3 2.695 1.3.788 0 1.41-.216 1.866-.645.455-.424.683-1.049.683-1.875v-.713c-.683.762-1.595 1.142-2.734 1.142-1.237 0-2.25-.491-3.037-1.474-.782-.983-1.172-2.344-1.172-4.082zm2.363.205c0 1.06.215 1.897.645 2.51.436.605 1.038.908 1.806.908.957 0 1.667-.41 2.129-1.23v-4.65c-.449-.8-1.152-1.2-2.109-1.2-.781 0-1.39.309-1.826.927-.43.619-.645 1.53-.645 2.735zm14.053 5.351c-1.504 0-2.725-.472-3.662-1.416-.931-.95-1.397-2.213-1.397-3.789v-.293c0-1.054.202-1.995.606-2.822.41-.833.983-1.481 1.718-1.943.736-.463 1.556-.694 2.461-.694 1.439 0 2.549.46 3.33 1.377.788.918 1.182 2.217 1.182 3.897v.957h-6.904c.071.872.361 1.562.869 2.07.514.508 1.159.762 1.934.762 1.087 0 1.972-.44 2.656-1.319l1.279 1.221c-.423.632-.989 1.123-1.699 1.475-.703.345-1.494.517-2.373.517zm-.283-9.052c-.651 0-1.179.227-1.582.683-.398.456-.651 1.09-.762 1.904h4.521v-.175c-.052-.795-.263-1.393-.634-1.797-.371-.41-.886-.615-1.543-.615zm9.345-4.278v2.569h1.866v1.757h-1.866v5.899c0 .404.078.697.235.879.162.175.449.263.859.263.274 0 .55-.032.83-.097v1.836c-.54.15-1.061.224-1.562.224-1.823 0-2.735-1.005-2.735-3.017V25.19h-1.738v-1.757h1.738v-2.569h2.373zM62.526 213v-10.08h1.456l3.304 8.89h.028l3.248-8.89h1.442V213h-.952v-8.988h-.028L67.72 213h-.896l-3.318-8.988h-.028V213h-.952zm16.324-3.808c-.355.149-.714.247-1.078.294-.364.047-.728.084-1.092.112-.644.047-1.148.191-1.512.434-.355.243-.532.611-.532 1.106 0 .224.042.42.126.588.093.159.21.294.35.406.149.103.317.182.504.238.196.047.392.07.588.07.336 0 .662-.042.98-.126.317-.084.597-.21.84-.378.252-.177.452-.397.602-.658.149-.271.224-.588.224-.952v-1.134zm-1.414-.42c.158-.019.345-.047.56-.084.224-.037.406-.089.546-.154s.224-.173.252-.322c.037-.159.056-.303.056-.434 0-.429-.14-.779-.42-1.05-.271-.28-.733-.42-1.386-.42-.29 0-.556.028-.798.084-.243.047-.458.135-.644.266-.178.121-.327.289-.448.504-.112.205-.187.467-.224.784h-.854c.028-.429.126-.793.294-1.092.168-.308.382-.555.644-.742.27-.196.578-.336.924-.42.354-.093.728-.14 1.12-.14.364 0 .704.042 1.022.126.326.075.606.201.84.378.242.168.429.397.56.686.14.289.21.644.21 1.064v3.948c0 .327.056.537.168.63.121.084.359.061.714-.07v.658l-.294.084c-.122.037-.243.056-.364.056-.131 0-.257-.014-.378-.042-.14-.019-.252-.061-.336-.126-.084-.075-.154-.159-.21-.252-.047-.103-.08-.21-.098-.322-.019-.121-.028-.247-.028-.378-.355.392-.761.691-1.218.896-.458.205-.952.308-1.484.308-.318 0-.626-.042-.924-.126-.29-.084-.546-.215-.77-.392-.224-.177-.402-.392-.532-.644-.131-.261-.196-.569-.196-.924 0-1.232.844-1.96 2.534-2.184l1.162-.154zm4.391 6.202l.336.056c.121.019.243.028.364.028.233 0 .425-.075.574-.224.15-.149.27-.331.364-.546.103-.205.187-.425.252-.658.065-.224.14-.415.224-.574l-2.814-7.308h.938l2.324 6.23 2.324-6.23h.91l-2.702 7.154c-.168.457-.331.868-.49 1.232-.15.364-.313.672-.49.924-.168.261-.36.457-.574.588-.205.14-.453.21-.742.21-.15 0-.294-.009-.434-.028-.13-.019-.252-.042-.364-.07v-.784zm10.91-8.61c0-.485.075-.924.225-1.316.149-.401.364-.742.644-1.022.28-.289.616-.509 1.008-.658.4-.159.844-.238 1.33-.238.494 0 .928.075 1.302.224.382.14.7.331.952.574.26.243.457.532.588.868.13.336.195.691.195 1.064 0 .439-.074.826-.224 1.162-.14.336-.33.635-.574.896-.233.261-.504.495-.812.7-.298.205-.606.401-.923.588-.318.177-.63.35-.938.518-.309.168-.584.345-.827.532-.158.121-.312.252-.462.392-.149.131-.284.275-.406.434-.12.159-.219.336-.293.532-.075.187-.117.397-.127.63h5.502V213h-6.454c.01-.476.061-.905.154-1.288.094-.383.3-.756.617-1.12.345-.392.7-.728 1.064-1.008.373-.28.737-.527 1.091-.742.355-.224.691-.425 1.008-.602.318-.187.598-.387.84-.602.243-.215.434-.457.575-.728.14-.271.21-.602.21-.994 0-.317-.056-.602-.168-.854-.112-.252-.267-.467-.463-.644-.195-.177-.424-.308-.685-.392-.262-.093-.547-.14-.855-.14-.326 0-.625.07-.895.21-.262.131-.49.308-.687.532-.186.224-.33.485-.433.784-.103.299-.145.616-.127.952h-.951zm8.466 4.466c.102.532.308.933.616 1.204.317.271.751.406 1.302.406.588 0 1.054-.145 1.4-.434.354-.289.625-.653.812-1.092.196-.439.326-.91.392-1.414.074-.513.121-.994.14-1.442l-.028-.028c-.299.504-.672.887-1.12 1.148-.439.261-.952.392-1.54.392-.467 0-.887-.075-1.26-.224-.374-.149-.696-.364-.966-.644-.262-.28-.467-.616-.616-1.008-.14-.392-.21-.826-.21-1.302 0-.467.065-.896.196-1.288.13-.401.326-.747.588-1.036.261-.299.588-.527.98-.686.401-.168.872-.252 1.414-.252.662 0 1.213.131 1.652.392.448.261.802.616 1.064 1.064.27.448.462.975.574 1.582.112.607.168 1.255.168 1.946 0 .84-.089 1.577-.266 2.212-.178.625-.43 1.153-.756 1.582-.318.429-.696.751-1.134.966-.439.215-.92.322-1.442.322-.383 0-.742-.047-1.078-.14-.336-.093-.63-.238-.882-.434s-.458-.443-.616-.742c-.159-.299-.257-.649-.294-1.05h.91zm2.1-6.944c-.756.019-1.326.252-1.708.7-.383.448-.574 1.059-.574 1.834 0 .756.196 1.344.588 1.764.401.42.966.63 1.694.63.345 0 .653-.065.924-.196.28-.131.513-.308.7-.532.196-.224.34-.481.434-.77.102-.299.154-.616.154-.952 0-.728-.196-1.316-.588-1.764-.392-.457-.934-.695-1.624-.714zm6.169.686c0 .411-.098.742-.294.994-.187.243-.429.411-.728.504v-.518c.112-.075.219-.177.322-.308.103-.131.154-.336.154-.616v-.476h-.476v-1.232h1.022v1.652zm1.421 6.16c.13.625.364 1.069.7 1.33.345.252.835.378 1.47.378.308 0 .574-.037.798-.112.224-.075.406-.173.546-.294.149-.131.261-.275.336-.434.074-.159.112-.327.112-.504 0-.355-.117-.616-.35-.784-.224-.177-.509-.313-.854-.406-.346-.103-.719-.187-1.12-.252-.402-.075-.775-.182-1.12-.322-.346-.14-.635-.341-.868-.602-.224-.261-.336-.63-.336-1.106 0-.607.219-1.101.658-1.484.448-.392 1.078-.588 1.89-.588.784 0 1.418.177 1.904.532.494.345.793.929.896 1.75h-.854c-.075-.56-.29-.952-.644-1.176-.346-.233-.784-.35-1.316-.35s-.938.117-1.218.35c-.28.224-.42.523-.42.896 0 .327.112.579.336.756.233.168.522.308.868.42.345.103.718.196 1.12.28.401.084.774.205 1.12.364.345.149.63.355.854.616.233.261.35.625.35 1.092 0 .345-.075.653-.224.924-.15.261-.355.481-.616.658-.262.177-.574.308-.938.392-.355.093-.747.14-1.176.14-.43 0-.812-.065-1.148-.196-.327-.121-.607-.294-.84-.518-.234-.224-.416-.485-.546-.784-.131-.299-.206-.621-.224-.966h.854zm11.484 1.456h2.422c.523 0 .975-.023 1.358-.07.392-.047.714-.14.966-.28.252-.149.439-.355.56-.616.131-.271.196-.625.196-1.064 0-.42-.07-.756-.21-1.008-.14-.261-.341-.462-.602-.602-.261-.14-.574-.233-.938-.28-.364-.056-.77-.084-1.218-.084h-2.534v4.004zm0-4.816h2.408c.495 0 .91-.042 1.246-.126.336-.084.607-.205.812-.364.205-.168.35-.369.434-.602.093-.243.14-.518.14-.826 0-.317-.051-.583-.154-.798-.103-.224-.266-.401-.49-.532-.224-.14-.518-.238-.882-.294-.355-.065-.793-.098-1.316-.098h-2.198v3.64zm-.952 5.628v-10.08h3.64c.588 0 1.092.061 1.512.182.42.121.761.294 1.022.518.271.224.467.495.588.812.121.308.182.649.182 1.022 0 .355-.047.663-.14.924-.093.252-.215.467-.364.644-.149.168-.322.303-.518.406-.187.093-.383.159-.588.196v.028c.7.103 1.218.378 1.554.826.345.448.518 1.008.518 1.68 0 .523-.084.966-.252 1.33-.159.364-.383.658-.672.882-.289.224-.639.387-1.05.49-.401.093-.84.14-1.316.14h-4.116zm14.126-7.252h.84V213h-.84v-1.008c-.112.131-.238.266-.378.406s-.303.271-.49.392c-.177.112-.387.205-.63.28-.243.084-.523.126-.84.126-.485 0-.891-.065-1.218-.196-.327-.14-.593-.331-.798-.574-.196-.243-.341-.523-.434-.84-.084-.327-.126-.681-.126-1.064v-4.774h.84v4.76c0 .625.145 1.106.434 1.442.289.327.765.49 1.428.49.345 0 .653-.065.924-.196.28-.14.513-.331.7-.574.187-.243.331-.532.434-.868.103-.336.154-.705.154-1.106v-3.948zm8.465 3.598c0-.411-.056-.798-.168-1.162-.112-.373-.275-.695-.49-.966-.205-.28-.462-.499-.77-.658-.298-.168-.639-.252-1.022-.252-.438 0-.816.089-1.134.266-.317.168-.578.401-.784.7-.205.299-.354.649-.448 1.05-.093.392-.13.817-.112 1.274 0 .457.061.863.182 1.218.131.345.308.639.532.882.224.243.486.429.784.56.299.121.626.182.98.182.392 0 .742-.079 1.05-.238.308-.159.565-.373.77-.644.206-.28.36-.607.462-.98.112-.383.168-.793.168-1.232zm0-6.426h.84V213h-.84v-1.274h-.028c-.121.243-.28.457-.476.644-.186.177-.396.327-.63.448-.224.121-.457.215-.7.28-.242.065-.48.098-.714.098-.588 0-1.087-.098-1.498-.294-.41-.196-.751-.462-1.022-.798-.261-.345-.452-.751-.574-1.218-.121-.467-.182-.966-.182-1.498 0-.504.066-.989.196-1.456.131-.467.327-.873.588-1.218.271-.355.607-.635 1.008-.84.411-.215.892-.322 1.442-.322.514 0 1.004.117 1.47.35.476.224.85.56 1.12 1.008v-3.99zm8.559 6.482c0-.439-.056-.845-.168-1.218-.103-.383-.257-.709-.462-.98-.206-.28-.462-.499-.77-.658-.308-.159-.658-.238-1.05-.238-.355 0-.682.065-.98.196-.299.121-.56.303-.784.546-.224.243-.402.541-.532.896-.122.345-.182.747-.182 1.204-.019.457.018.887.112 1.288.093.392.242.737.448 1.036.205.299.466.537.784.714.317.168.695.252 1.134.252.382 0 .723-.079 1.022-.238.308-.168.564-.387.77-.658.214-.28.378-.602.49-.966.112-.373.168-.765.168-1.176zm0-3.654h.84v6.552c0 .485-.052.947-.154 1.386-.094.448-.266.84-.518 1.176-.252.336-.598.602-1.036.798-.439.205-1.004.308-1.694.308-.532 0-.99-.07-1.372-.21-.383-.131-.696-.299-.938-.504-.243-.205-.43-.434-.56-.686-.122-.243-.187-.471-.196-.686h.896c.065.271.168.49.308.658.14.177.303.313.49.406.196.103.41.173.644.21.233.037.476.056.728.056.569 0 1.026-.098 1.372-.294.345-.196.606-.453.784-.77.177-.317.289-.677.336-1.078.056-.401.079-.812.07-1.232-.271.448-.644.789-1.12 1.022-.467.224-.957.336-1.47.336-.551 0-1.032-.103-1.442-.308-.402-.215-.738-.495-1.008-.84-.262-.355-.458-.765-.588-1.232-.131-.467-.196-.952-.196-1.456 0-.532.06-1.031.182-1.498.121-.467.312-.868.574-1.204.27-.345.611-.616 1.022-.812.41-.196.91-.294 1.498-.294.233 0 .471.033.714.098.242.065.476.159.7.28.233.121.443.275.63.462.196.187.354.397.476.63h.028v-1.274zm8.208 3.122c0-.355-.051-.686-.154-.994-.093-.317-.238-.588-.434-.812-.186-.233-.424-.415-.714-.546-.289-.14-.62-.21-.994-.21-.373 0-.704.07-.994.21-.28.14-.522.327-.728.56-.196.233-.354.504-.476.812-.121.308-.2.635-.238.98h4.732zm-4.732.7c0 .392.052.765.154 1.12.103.345.252.649.448.91.206.252.462.457.77.616.308.149.663.224 1.064.224.551 0 1.022-.145 1.414-.434.392-.289.654-.7.784-1.232h.938c-.102.345-.238.667-.406.966-.168.289-.378.546-.63.77-.252.215-.55.383-.896.504-.345.121-.746.182-1.204.182-.578 0-1.078-.098-1.498-.294-.42-.196-.765-.462-1.036-.798-.27-.345-.471-.747-.602-1.204-.13-.467-.196-.966-.196-1.498s.075-1.031.224-1.498c.159-.467.378-.873.658-1.218.29-.355.64-.63 1.05-.826.411-.205.878-.308 1.4-.308.999 0 1.783.345 2.352 1.036.57.681.85 1.675.84 2.982h-5.628zm9.81 3.458c-.103.019-.238.051-.406.098-.168.047-.355.07-.56.07-.42 0-.742-.103-.966-.308-.215-.215-.322-.593-.322-1.134v-5.306h-1.022v-.7h1.022v-2.016h.84v2.016h1.358v.7h-1.358v4.97c0 .177.004.331.014.462.009.131.037.238.084.322.046.084.116.145.21.182.102.037.242.056.42.056.112 0 .224-.009.336-.028.121-.019.238-.042.35-.07v.686zm1.768-.028v-1.232h1.022V213h-1.022zm0-5.656v-1.232h1.022v1.232h-1.022zm9.935-3.458c-.261 0-.509.042-.742.126-.224.084-.425.205-.602.364-.168.149-.303.331-.406.546-.093.215-.14.453-.14.714 0 .308.047.565.14.77.103.205.238.378.406.518.177.131.378.238.602.322.233.084.481.163.742.238v-3.598zm.658 8.624c.289 0 .56-.051.812-.154.261-.103.49-.243.686-.42.196-.177.35-.387.462-.63.112-.252.168-.527.168-.826 0-.345-.056-.63-.168-.854-.112-.233-.266-.42-.462-.56-.187-.149-.411-.266-.672-.35-.252-.084-.527-.159-.826-.224v4.018zm0 1.82h-.644v-1.064c-.793-.047-1.451-.266-1.974-.658-.513-.392-.854-.98-1.022-1.764-.019-.121-.033-.238-.042-.35l-.028-.336h.91c0 .317.051.616.154.896.103.271.247.513.434.728.196.205.425.373.686.504.261.131.551.205.868.224v-4.158c-.383-.093-.747-.201-1.092-.322-.336-.131-.63-.294-.882-.49-.252-.205-.453-.457-.602-.756-.14-.299-.21-.667-.21-1.106 0-.392.075-.747.224-1.064.149-.317.35-.588.602-.812.261-.224.56-.392.896-.504.336-.121.695-.177 1.078-.168v-.854h.644v.854c.383 0 .737.056 1.064.168.327.103.611.261.854.476.243.205.434.462.574.77.14.308.219.658.238 1.05h-.91c0-.252-.051-.481-.154-.686-.093-.215-.224-.397-.392-.546-.159-.149-.35-.266-.574-.35-.215-.084-.448-.126-.7-.126v3.724c.457.112.873.233 1.246.364.373.131.691.303.952.518.261.215.462.495.602.84.149.336.224.77.224 1.302 0 .411-.089.779-.266 1.106-.177.317-.411.588-.7.812-.28.224-.602.397-.966.518s-.728.187-1.092.196v1.064zm7.457-6.16c-.345 0-.662.042-.952.126-.289.084-.541.215-.756.392-.214.168-.382.387-.504.658-.121.261-.182.574-.182.938 0 .308.056.593.168.854.122.261.285.49.49.686.215.187.472.336.77.448.308.112.649.168 1.022.168.327 0 .63-.051.91-.154.28-.112.523-.266.728-.462.215-.196.378-.429.49-.7.122-.271.182-.569.182-.896 0-.345-.06-.644-.182-.896-.121-.261-.289-.476-.504-.644-.214-.177-.466-.308-.756-.392-.289-.084-.597-.126-.924-.126zm-.042-4.284c-.28 0-.541.037-.784.112-.242.075-.457.187-.644.336-.177.149-.317.336-.42.56-.102.224-.154.481-.154.77 0 .308.056.574.168.798.122.215.28.392.476.532.196.14.42.247.672.322.252.065.514.098.784.098.271 0 .523-.033.756-.098.234-.075.434-.191.602-.35.168-.159.299-.359.392-.602.103-.243.154-.541.154-.896 0-.504-.163-.891-.49-1.162-.326-.28-.83-.42-1.512-.42zm-1.526 3.808c-.242-.149-.452-.289-.63-.42-.168-.14-.308-.289-.42-.448-.112-.159-.196-.336-.252-.532-.046-.205-.07-.457-.07-.756 0-.336.075-.653.224-.952.15-.299.35-.555.602-.77.252-.224.546-.397.882-.518.346-.121.714-.177 1.106-.168.374 0 .738.047 1.092.14.364.093.686.238.966.434.28.196.504.448.672.756.168.299.252.658.252 1.078 0 .513-.107.952-.322 1.316-.205.364-.546.663-1.022.896.542.196.966.509 1.274.938.318.429.476.933.476 1.512 0 .485-.084.915-.252 1.288-.158.373-.392.686-.7.938-.298.252-.662.443-1.092.574-.429.131-.905.196-1.428.196-.354 0-.718-.061-1.092-.182-.364-.121-.695-.303-.994-.546-.289-.243-.527-.546-.714-.91-.186-.364-.28-.789-.28-1.274 0-.588.145-1.111.434-1.568.299-.467.728-.807 1.288-1.022zm11.77.448c0-.532-.033-1.05-.098-1.554-.056-.513-.173-.971-.35-1.372-.178-.401-.43-.723-.756-.966-.318-.243-.738-.364-1.26-.364-.495 0-.901.126-1.218.378-.308.243-.551.569-.728.98-.178.411-.304.877-.378 1.4-.066.523-.098 1.055-.098 1.596 0 .635.037 1.213.112 1.736.084.513.219.952.406 1.316.186.364.434.649.742.854.317.196.714.294 1.19.294.532 0 .956-.131 1.274-.392.326-.261.574-.597.742-1.008.168-.411.28-.873.336-1.386.056-.513.084-1.017.084-1.512zm-2.436-5.012c.485 0 .905.075 1.26.224.354.14.653.336.896.588.252.252.452.546.602.882.158.336.28.695.364 1.078.084.373.14.761.168 1.162.028.401.042.793.042 1.176 0 .653-.047 1.279-.14 1.876-.094.597-.266 1.125-.518 1.582-.243.457-.579.821-1.008 1.092-.43.271-.985.406-1.666.406-.682 0-1.242-.135-1.68-.406-.43-.271-.77-.635-1.022-1.092-.243-.467-.411-1.003-.504-1.61-.094-.616-.14-1.265-.14-1.946 0-.625.042-1.237.126-1.834.084-.597.242-1.129.476-1.596.242-.476.583-.859 1.022-1.148.438-.289 1.012-.434 1.722-.434zm8.974 9.87v-10.08h.952v5.222l5.166-5.222h1.078l-3.976 4.018 4.676 6.062h-1.162l-4.2-5.474-1.582 1.582V213h-.952z"/>
        <path fill="#D9D9D9" d="M109.18 82.77c-1.216-3.74.828-7.788 4.65-8.72 12.205-2.976 24.904-3.506 37.359-1.534 14.805 2.345 28.844 8.16 40.971 16.971 12.127 8.81 21.996 20.366 28.801 33.722 5.725 11.235 9.144 23.477 10.086 36.004.294 3.923-2.923 7.117-6.857 7.117-3.935 0-7.091-3.195-7.438-7.114-.909-10.277-3.782-20.307-8.486-29.539-5.784-11.352-14.173-21.174-24.481-28.663-10.307-7.49-22.241-12.432-34.825-14.426-10.233-1.62-20.661-1.253-30.715 1.058-3.835.881-7.849-1.133-9.065-4.875z" opacity=".7"/>
        <path fill="#5B83D7" d="M48.591 161.732c-3.929-.206-6.974-3.564-6.474-7.466 2.233-17.442 9.273-33.973 20.398-47.711 12.623-15.588 29.857-26.78 49.232-31.972 19.375-5.191 39.896-4.115 58.623 3.073 16.503 6.335 30.865 17.13 41.52 31.119 2.384 3.13 1.426 7.561-1.874 9.704-3.3 2.142-7.688 1.182-10.113-1.916-8.987-11.48-20.946-20.35-34.639-25.606-15.917-6.11-33.361-7.024-49.829-2.611-16.47 4.412-31.118 13.926-41.848 27.176-9.23 11.398-15.153 25.059-17.196 39.494-.551 3.896-3.87 6.922-7.8 6.716z"/>
        <path fill="#000" d="M99.46 147.809c.618-.079 1.067-.219 1.349-.422.492-.36.738-.981.738-1.864 0-.671-.231-1.203-.692-1.593-.273-.227-.738-.461-1.394-.703v4.582zm-1.112-12.247c-.68.016-1.184.2-1.512.551-.328.344-.492.817-.492 1.418 0 .657.246 1.176.738 1.559.274.211.695.406 1.266.586v-4.114zm1.136 17.215h-1.136v-2.332c-1.54-.172-2.688-.507-3.446-1.007-1.336-.899-1.992-2.43-1.968-4.594h3.164c.109.984.261 1.644.457 1.98.304.524.902.864 1.793 1.02v-5.004l-.95-.281c-1.492-.438-2.546-1.047-3.164-1.829-.609-.781-.914-1.722-.914-2.824 0-.726.118-1.386.352-1.98.242-.594.578-1.106 1.008-1.535.554-.555 1.172-.938 1.851-1.149.414-.133 1.02-.23 1.817-.293v-1.558h1.113v1.582c1.273.101 2.273.414 3 .937 1.32.836 2.004 2.192 2.051 4.067h-3.082c-.063-.696-.18-1.204-.352-1.524-.297-.555-.836-.859-1.617-.914v4.465c1.859.641 3.109 1.207 3.75 1.699 1.055.82 1.582 1.977 1.582 3.469 0 1.969-.723 3.398-2.168 4.289-.883.547-1.93.867-3.14.961v2.355zm16.899-8.156c0 .914.246 1.66.738 2.238.492.579 1.117.868 1.875.868.742 0 1.324-.278 1.746-.832.43-.563.645-1.29.645-2.18 0-.992-.242-1.75-.727-2.274-.484-.531-1.078-.796-1.781-.796-.57 0-1.074.171-1.512.515-.656.508-.984 1.328-.984 2.461zm4.699-7.336c0-.273-.105-.574-.316-.902-.36-.531-.903-.797-1.629-.797-1.086 0-1.86.609-2.321 1.828-.25.672-.421 1.664-.515 2.977.414-.493.894-.852 1.441-1.079.547-.226 1.172-.339 1.875-.339 1.508 0 2.742.511 3.703 1.535.969 1.023 1.453 2.332 1.453 3.926 0 1.586-.472 2.984-1.418 4.195-.945 1.211-2.414 1.816-4.406 1.816-2.14 0-3.719-.894-4.734-2.683-.789-1.399-1.184-3.203-1.184-5.414 0-1.297.055-2.352.164-3.164.196-1.446.575-2.649 1.137-3.61.484-.82 1.117-1.48 1.898-1.98.79-.5 1.731-.75 2.825-.75 1.578 0 2.836.406 3.773 1.218.938.805 1.465 1.879 1.582 3.223h-3.328zM126.391 150c.031-1.219.293-2.332.785-3.34.476-1.133 1.601-2.332 3.375-3.598 1.539-1.101 2.535-1.89 2.988-2.367.695-.742 1.043-1.554 1.043-2.437 0-.719-.199-1.317-.598-1.793-.398-.477-.968-.715-1.711-.715-1.015 0-1.707.379-2.074 1.137-.211.437-.336 1.133-.375 2.086h-3.246c.055-1.446.317-2.614.785-3.504.891-1.696 2.473-2.543 4.746-2.543 1.797 0 3.227.5 4.289 1.5 1.063.992 1.594 2.308 1.594 3.949 0 1.258-.375 2.375-1.125 3.352-.492.648-1.301 1.371-2.426 2.168l-1.336.949c-.835.594-1.41 1.023-1.722 1.289-.305.265-.563.574-.774.926h7.418V150h-11.636zm13.992 2.777c.672-.187 1.164-.5 1.476-.937.321-.438.504-1.051.551-1.84h-2.027v-3.492h3.609v3.023c0 .531-.07 1.086-.211 1.664-.14.578-.402 1.078-.785 1.5-.414.453-.902.793-1.465 1.02-.554.234-.937.351-1.148.351v-1.289zm9.211-7.992c0 .68.109 1.242.328 1.688.406.82 1.144 1.23 2.215 1.23.656 0 1.226-.223 1.711-.668.492-.453.738-1.101.738-1.945 0-1.117-.453-1.863-1.359-2.238-.516-.211-1.329-.317-2.438-.317v-2.39c1.086-.016 1.844-.122 2.273-.317.743-.328 1.114-.992 1.114-1.992 0-.648-.192-1.176-.574-1.582-.375-.406-.907-.609-1.594-.609-.789 0-1.371.25-1.746.75-.367.5-.543 1.167-.528 2.003h-3.117c.031-.843.176-1.644.434-2.402.273-.664.703-1.277 1.289-1.84.437-.398.957-.703 1.558-.914.602-.211 1.34-.316 2.215-.316 1.625 0 2.934.422 3.926 1.265 1 .836 1.5 1.961 1.5 3.375 0 1-.297 1.844-.891 2.532-.375.429-.765.722-1.171.879.304 0 .742.261 1.312.785.852.789 1.277 1.867 1.277 3.234 0 1.438-.5 2.703-1.5 3.797-.992 1.086-2.464 1.629-4.418 1.629-2.406 0-4.078-.785-5.015-2.356-.492-.836-.766-1.929-.821-3.281h3.282zM159.789 150c.031-1.219.293-2.332.785-3.34.477-1.133 1.602-2.332 3.375-3.598 1.539-1.101 2.535-1.89 2.989-2.367.695-.742 1.042-1.554 1.042-2.437 0-.719-.199-1.317-.597-1.793-.399-.477-.969-.715-1.711-.715-1.016 0-1.707.379-2.074 1.137-.211.437-.336 1.133-.375 2.086h-3.246c.054-1.446.316-2.614.785-3.504.89-1.696 2.472-2.543 4.746-2.543 1.797 0 3.226.5 4.289 1.5 1.062.992 1.594 2.308 1.594 3.949 0 1.258-.375 2.375-1.125 3.352-.493.648-1.301 1.371-2.426 2.168l-1.336.949c-.836.594-1.41 1.023-1.723 1.289-.304.265-.562.574-.773.926h7.418V150h-11.637zm13.359 0c.032-1.219.293-2.332.786-3.34.476-1.133 1.601-2.332 3.375-3.598 1.539-1.101 2.535-1.89 2.988-2.367.695-.742 1.043-1.554 1.043-2.437 0-.719-.199-1.317-.598-1.793-.398-.477-.969-.715-1.711-.715-1.015 0-1.707.379-2.074 1.137-.211.437-.336 1.133-.375 2.086h-3.246c.055-1.446.316-2.614.785-3.504.891-1.696 2.473-2.543 4.746-2.543 1.797 0 3.227.5 4.289 1.5 1.063.992 1.594 2.308 1.594 3.949 0 1.258-.375 2.375-1.125 3.352-.492.648-1.301 1.371-2.426 2.168l-1.336.949c-.836.594-1.41 1.023-1.722 1.289-.305.265-.563.574-.774.926h7.418V150h-11.637z"/>
    </g>
    <defs>
        <clipPath id="prefix__clip0">
            <path fill="#fff" d="M0 0H272V230H0z"/>
        </clipPath>
        <filter id="prefix__filter0_dd" width="336" height="294" x="-32" y="-8" color-interpolation-filters="sRGB" filterUnits="userSpaceOnUse">
            <feFlood flood-opacity="0" result="BackgroundImageFix"/>
            <feColorMatrix in="SourceAlpha" values="0 0 0 0 0 0 0 0 0 0 0 0 0 0 0 0 0 0 127 0"/>
            <feOffset dy="24"/>
            <feGaussianBlur stdDeviation="16"/>
            <feColorMatrix values="0 0 0 0 0.196487 0 0 0 0 0.196487 0 0 0 0 0.279476 0 0 0 0.08 0"/>
            <feBlend in2="BackgroundImageFix" mode="multiply" result="effect1_dropShadow"/>
            <feColorMatrix in="SourceAlpha" values="0 0 0 0 0 0 0 0 0 0 0 0 0 0 0 0 0 0 127 0"/>
            <feOffset dy="16"/>
            <feGaussianBlur stdDeviation="8"/>
            <feColorMatrix values="0 0 0 0 0.196487 0 0 0 0 0.196487 0 0 0 0 0.279476 0 0 0 0.08 0"/>
            <feBlend in2="effect1_dropShadow" mode="multiply" result="effect2_dropShadow"/>
            <feBlend in="SourceGraphic" in2="effect2_dropShadow" result="shape"/>
        </filter>
    </defs>
</svg>
