<svg xmlns="http://www.w3.org/2000/svg" width="556" height="336" fill="none" viewBox="0 0 556 336">
    <g clip-path="url(#prefix__clip0)">
        <g filter="url(#prefix__filter0_dd)">
            <rect width="556" height="336" fill="#fff" rx="10"/>
        </g>
        <path fill="#E9B4B4" d="M373 35H397V59H373z"/>
        <path fill="#C0EAE7" d="M373 83H397V107H373z"/>
        <path fill="#B8D4BC" d="M373 131H397V155H373z"/>
        <path fill="#D1EBC0" d="M373 179H397V203H373z"/>
        <path fill="#BED3ED" d="M373 227H397V251H373z"/>
        <path fill="#E3BCDF" d="M373 277H397V301H373z"/>
        <path fill="#393939" d="M436.846 37.045h2.707V47.67h6.416V50h-9.123V37.045zm13.377 2.232h-2.54v-2.311h2.54v2.311zm-2.54 1.143h2.54V50h-2.54v-9.58zm10.88 0h2.69L457.799 50h-2.646l-3.436-9.58h2.812l1.995 7.066 2.039-7.066zm6.689-1.143h-2.54v-2.311h2.54v2.311zm-2.54 1.143h2.54V50h-2.54v-9.58zm10.283-.229c.99 0 1.799.261 2.426.783.633.515.949 1.374.949 2.575V50h-2.566v-5.827c0-.504-.068-.89-.202-1.16-.247-.492-.715-.739-1.407-.739-.849 0-1.432.36-1.749 1.081-.164.381-.246.868-.246 1.46V50h-2.496v-9.563h2.417v1.398c.322-.492.627-.847.914-1.063.516-.387 1.169-.58 1.96-.58zm9.809 7.752c.586 0 1.081-.22 1.485-.659.404-.445.607-1.151.607-2.118 0-.908-.194-1.6-.581-2.074-.38-.475-.893-.712-1.538-.712-.879 0-1.485.413-1.819 1.24-.176.439-.264.98-.264 1.625 0 .557.094 1.052.282 1.486.339.808.949 1.212 1.828 1.212zm-.624-7.752c.48 0 .899.074 1.257.22.609.252 1.101.715 1.476 1.389v-1.38h2.435v9.088c0 1.236-.208 2.168-.624 2.795-.715 1.078-2.086 1.617-4.114 1.617-1.224 0-2.223-.24-2.997-.72-.773-.481-1.201-1.199-1.283-2.154h2.725c.07.293.184.504.342.633.27.228.724.343 1.363.343.902 0 1.506-.302 1.81-.906.2-.386.299-1.037.299-1.951v-.615c-.24.41-.498.718-.773.923-.498.38-1.146.57-1.943.57-1.23 0-2.215-.43-2.953-1.291-.732-.867-1.098-2.04-1.098-3.516 0-1.423.354-2.619 1.063-3.586.709-.972 1.714-1.459 3.015-1.459zM438.479 87.295v8.455h2.497c1.277 0 2.168-.63 2.671-1.89.276-.691.414-1.514.414-2.47 0-1.318-.208-2.329-.624-3.032-.411-.709-1.231-1.063-2.461-1.063h-2.497zm2.954-2.25c.802.012 1.47.105 2.004.281.908.299 1.643.847 2.206 1.644.451.644.758 1.341.922 2.091.164.75.247 1.465.247 2.145 0 1.723-.346 3.182-1.038 4.377-.937 1.611-2.384 2.417-4.341 2.417h-5.581V85.045h5.581zm9.799 2.232h-2.54v-2.311h2.54v2.311zm-2.54 1.143h2.54V98h-2.54v-9.58zm10.284-.229c.99 0 1.798.261 2.425.783.633.515.95 1.374.95 2.575V98h-2.567v-5.827c0-.504-.067-.89-.202-1.16-.246-.493-.715-.739-1.406-.739-.85 0-1.433.36-1.749 1.082-.164.38-.246.867-.246 1.459V98h-2.496v-9.563h2.417v1.398c.322-.492.627-.847.914-1.063.515-.387 1.169-.58 1.96-.58zm8.27-.914h-2.54v-2.311h2.54v2.311zm-2.54 1.143h2.54V98h-2.54v-9.58zm10.283-.229c.99 0 1.799.261 2.426.783.633.515.949 1.374.949 2.575V98h-2.566v-5.827c0-.504-.068-.89-.202-1.16-.246-.493-.715-.739-1.407-.739-.849 0-1.432.36-1.749 1.082-.164.38-.246.867-.246 1.459V98h-2.496v-9.563h2.417v1.398c.323-.492.627-.847.914-1.063.516-.387 1.169-.58 1.96-.58zm9.809 7.752c.586 0 1.081-.22 1.485-.659.405-.445.607-1.151.607-2.118 0-.908-.194-1.6-.58-2.074-.381-.475-.894-.712-1.539-.712-.878 0-1.485.413-1.819 1.24-.176.439-.264.98-.264 1.625 0 .557.094 1.052.282 1.486.34.808.949 1.212 1.828 1.212zm-.624-7.752c.48 0 .899.074 1.257.22.609.252 1.101.715 1.476 1.389v-1.38h2.435v9.088c0 1.236-.208 2.168-.624 2.795-.715 1.078-2.086 1.617-4.114 1.617-1.224 0-2.223-.24-2.997-.721-.773-.48-1.201-1.198-1.283-2.153h2.725c.07.293.184.504.343.633.269.228.723.342 1.362.342.902 0 1.506-.301 1.81-.905.2-.386.299-1.037.299-1.951v-.615c-.24.41-.498.718-.773.923-.498.38-1.146.57-1.943.57-1.23 0-2.214-.43-2.953-1.291-.732-.867-1.098-2.04-1.098-3.516 0-1.424.354-2.619 1.063-3.586.709-.972 1.714-1.459 3.015-1.459zM426.466 135.295v2.856h3.181c.569 0 1.029-.105 1.38-.316.358-.217.536-.598.536-1.143 0-.603-.234-1.002-.703-1.195-.404-.135-.92-.202-1.547-.202h-2.847zm0 5.001v3.454h3.181c.569 0 1.011-.076 1.328-.229.574-.281.861-.82.861-1.617 0-.674-.278-1.136-.835-1.388-.311-.141-.747-.214-1.31-.22h-3.225zm3.709-7.251c1.588.023 2.713.483 3.375 1.38.398.551.597 1.21.597 1.977 0 .791-.199 1.427-.597 1.908-.223.269-.551.515-.985.738.663.24 1.161.621 1.495 1.142.339.522.509 1.155.509 1.899 0 .767-.193 1.456-.58 2.065-.246.405-.553.744-.923 1.02-.416.316-.908.533-1.476.65-.563.117-1.175.176-1.837.176h-5.871v-12.955h6.293zm10.248 5.185c-.58 0-1.031.182-1.354.545-.316.364-.515.856-.597 1.477h3.893c-.041-.662-.243-1.163-.606-1.503-.358-.346-.803-.519-1.336-.519zm0-2.065c.797 0 1.515.149 2.153.448.639.299 1.166.771 1.582 1.415.375.569.618 1.228.73 1.978.064.439.091 1.072.079 1.898h-6.557c.035.961.337 1.635.905 2.022.346.24.762.36 1.248.36.516 0 .935-.146 1.257-.439.176-.159.331-.378.466-.659h2.558c-.065.568-.361 1.145-.888 1.731-.82.932-1.969 1.397-3.445 1.397-1.219 0-2.294-.392-3.226-1.177-.931-.785-1.397-2.063-1.397-3.832 0-1.659.419-2.93 1.257-3.815.843-.885 1.936-1.327 3.278-1.327zm9.773.026c.58 0 1.096.129 1.547.387.451.252.818.604 1.099 1.055v-4.571h2.54V146h-2.435v-1.327c-.357.568-.764.981-1.221 1.239-.457.258-1.026.387-1.705.387-1.12 0-2.063-.451-2.831-1.354-.761-.908-1.142-2.071-1.142-3.489 0-1.635.375-2.921 1.125-3.858.756-.938 1.764-1.407 3.023-1.407zm.545 7.998c.709 0 1.248-.263 1.617-.791.37-.527.554-1.21.554-2.047 0-1.172-.296-2.01-.888-2.514-.363-.305-.785-.457-1.265-.457-.733 0-1.272.278-1.617.835-.34.551-.51 1.236-.51 2.056 0 .885.173 1.594.518 2.127.352.528.882.791 1.591.791zm12.129-7.998c.047 0 .085.003.114.009.036 0 .109.003.22.009v2.566c-.158-.017-.299-.029-.422-.035-.123-.006-.222-.009-.299-.009-1.007 0-1.684.329-2.03.985-.193.369-.29.937-.29 1.705V146h-2.522v-9.58h2.39v1.67c.387-.639.724-1.075 1.011-1.31.469-.392 1.078-.589 1.828-.589zm6.109 8.042c.732 0 1.294-.26 1.687-.782.393-.521.589-1.263.589-2.223 0-.961-.196-1.7-.589-2.215-.393-.522-.955-.783-1.687-.783-.733 0-1.298.261-1.697.783-.392.515-.589 1.254-.589 2.215 0 .96.197 1.702.589 2.223.399.522.964.782 1.697.782zm4.904-3.005c0 1.406-.404 2.61-1.213 3.612-.809.996-2.036 1.494-3.683 1.494-1.646 0-2.874-.498-3.682-1.494-.809-1.002-1.213-2.206-1.213-3.612 0-1.383.404-2.582 1.213-3.595.808-1.014 2.036-1.521 3.682-1.521 1.647 0 2.874.507 3.683 1.521.809 1.013 1.213 2.212 1.213 3.595zm6.099 3.005c.733 0 1.295-.26 1.688-.782.392-.521.589-1.263.589-2.223 0-.961-.197-1.7-.589-2.215-.393-.522-.955-.783-1.688-.783-.732 0-1.297.261-1.696.783-.392.515-.589 1.254-.589 2.215 0 .96.197 1.702.589 2.223.399.522.964.782 1.696.782zm4.905-3.005c0 1.406-.405 2.61-1.213 3.612-.809.996-2.036 1.494-3.683 1.494-1.646 0-2.874-.498-3.682-1.494-.809-1.002-1.213-2.206-1.213-3.612 0-1.383.404-2.582 1.213-3.595.808-1.014 2.036-1.521 3.682-1.521 1.647 0 2.874.507 3.683 1.521.808 1.013 1.213 2.212 1.213 3.595zm12.507-5.019c.421 0 .837.082 1.248.246.41.164.782.451 1.116.861.269.334.451.745.545 1.231.058.322.088.794.088 1.415l-.018 6.038h-2.566v-6.1c0-.363-.059-.662-.176-.896-.223-.445-.633-.668-1.231-.668-.691 0-1.169.287-1.432.861-.135.305-.202.671-.202 1.099V146h-2.523v-5.704c0-.568-.058-.982-.176-1.239-.211-.463-.624-.695-1.239-.695-.715 0-1.195.232-1.441.695-.135.263-.202.656-.202 1.177V146h-2.54v-9.562h2.434v1.397c.311-.498.604-.853.879-1.064.486-.375 1.116-.562 1.89-.562.732 0 1.324.161 1.775.483.363.299.639.683.826 1.152.328-.563.736-.976 1.222-1.24.516-.263 1.09-.395 1.723-.395zM433.585 192.066c1.072 0 1.922-.395 2.549-1.186.633-.791.949-1.916.949-3.375 0-1.453-.316-2.575-.949-3.366-.627-.797-1.477-1.196-2.549-1.196-1.072 0-1.928.396-2.566 1.187-.639.791-.958 1.916-.958 3.375s.319 2.584.958 3.375c.638.791 1.494 1.186 2.566 1.186zm6.205-4.561c0 2.326-.653 4.107-1.96 5.344-.978 1.007-2.393 1.511-4.245 1.511-1.852 0-3.267-.504-4.245-1.511-1.313-1.237-1.969-3.018-1.969-5.344 0-2.373.656-4.154 1.969-5.344.978-1.008 2.393-1.512 4.245-1.512 1.852 0 3.267.504 4.245 1.512 1.307 1.19 1.96 2.971 1.96 5.344zm4.368-3.085v5.774c0 .545.065.955.194 1.231.228.486.676.729 1.344.729.856 0 1.442-.345 1.758-1.037.164-.375.246-.87.246-1.485v-5.212h2.54V194h-2.434v-1.354c-.024.03-.082.118-.176.264-.094.147-.205.276-.334.387-.393.351-.774.592-1.143.721-.363.128-.791.193-1.283.193-1.418 0-2.373-.51-2.865-1.529-.276-.563-.413-1.392-.413-2.488v-5.774h2.566zm7.524 1.872v-1.784h1.336v-2.672h2.478v2.672h1.556v1.784h-1.556v5.062c0 .393.05.639.15.739.099.094.404.14.914.14h.237l.255-.017v1.872l-1.187.044c-1.183.041-1.992-.164-2.426-.615-.281-.288-.421-.73-.421-1.328v-5.897h-1.336zm10.511-2.101c.58 0 1.096.129 1.547.387.451.252.818.604 1.099 1.055v-4.571h2.54V194h-2.435v-1.327c-.357.568-.764.981-1.221 1.239-.457.258-1.026.387-1.705.387-1.12 0-2.063-.451-2.83-1.354-.762-.908-1.143-2.071-1.143-3.489 0-1.635.375-2.921 1.125-3.858.756-.938 1.764-1.407 3.023-1.407zm.545 7.998c.709 0 1.248-.263 1.617-.791.37-.527.554-1.21.554-2.047 0-1.172-.296-2.01-.888-2.514-.363-.305-.785-.457-1.265-.457-.733 0-1.272.278-1.617.835-.34.551-.51 1.236-.51 2.056 0 .885.173 1.594.518 2.127.352.528.882.791 1.591.791zm11.224.044c.732 0 1.295-.26 1.687-.782.393-.521.589-1.263.589-2.223 0-.961-.196-1.7-.589-2.215-.392-.522-.955-.783-1.687-.783-.733 0-1.298.261-1.696.783-.393.515-.589 1.254-.589 2.215 0 .96.196 1.702.589 2.223.398.522.963.782 1.696.782zm4.904-3.005c0 1.406-.404 2.61-1.213 3.612-.808.996-2.036 1.494-3.682 1.494-1.647 0-2.874-.498-3.683-1.494-.809-1.002-1.213-2.206-1.213-3.612 0-1.383.404-2.582 1.213-3.595.809-1.014 2.036-1.521 3.683-1.521 1.646 0 2.874.507 3.682 1.521.809 1.013 1.213 2.212 1.213 3.595zm6.1 3.005c.732 0 1.295-.26 1.687-.782.393-.521.589-1.263.589-2.223 0-.961-.196-1.7-.589-2.215-.392-.522-.955-.783-1.687-.783-.733 0-1.298.261-1.696.783-.393.515-.589 1.254-.589 2.215 0 .96.196 1.702.589 2.223.398.522.963.782 1.696.782zm4.904-3.005c0 1.406-.404 2.61-1.213 3.612-.808.996-2.036 1.494-3.682 1.494-1.647 0-2.874-.498-3.683-1.494-.809-1.002-1.213-2.206-1.213-3.612 0-1.383.404-2.582 1.213-3.595.809-1.014 2.036-1.521 3.683-1.521 1.646 0 2.874.507 3.682 1.521.809 1.013 1.213 2.212 1.213 3.595zm7.005-5.037c.047 0 .085.003.114.009.035 0 .109.003.22.009v2.566c-.158-.017-.299-.029-.422-.035-.123-.006-.223-.009-.299-.009-1.008 0-1.684.329-2.03.985-.193.369-.29.937-.29 1.705V194h-2.522v-9.58h2.39v1.67c.387-.639.724-1.075 1.011-1.31.469-.392 1.078-.589 1.828-.589zM443.578 240.066c1.072 0 1.922-.395 2.549-1.186.633-.791.949-1.916.949-3.375 0-1.453-.316-2.575-.949-3.366-.627-.797-1.477-1.196-2.549-1.196-1.072 0-1.928.396-2.566 1.187-.639.791-.958 1.916-.958 3.375s.319 2.584.958 3.375c.638.791 1.494 1.186 2.566 1.186zm6.205-4.561c0 2.326-.653 4.107-1.96 5.344-.978 1.007-2.393 1.511-4.245 1.511-1.851 0-3.266-.504-4.245-1.511-1.312-1.237-1.969-3.018-1.969-5.344 0-2.373.657-4.154 1.969-5.344.979-1.008 2.394-1.512 4.245-1.512 1.852 0 3.267.504 4.245 1.512 1.307 1.19 1.96 2.971 1.96 5.344zm5.405-6.592c.159 0 .302.006.431.018.129.006.305.017.527.035v2.039c-.14-.018-.377-.029-.711-.035-.329-.012-.557.061-.686.219-.123.153-.185.323-.185.51v.809h1.644v1.766h-1.644V242h-2.496v-7.726h-1.397v-1.766h1.371v-.615c0-1.026.173-1.732.519-2.119.363-.574 1.239-.861 2.627-.861zm8.561.053h2.452v2.285h-2.452v-2.285zm0 3.498h2.496V242h-2.496v-9.536zm-2.505-3.551c.152 0 .308.006.466.018l.492.035v2.039c-.117-.006-.231-.009-.343-.009-.111-.006-.246-.009-.404-.009-.393 0-.633.109-.721.325-.088.217-.126.557-.114 1.02v.176h1.644v1.766h-1.644V242h-2.496v-7.726h-1.397v-1.766h1.371v-.615c0-1.02.225-1.779.676-2.277.405-.469 1.228-.703 2.47-.703zm13.131 6.943c-.047-.357-.167-.679-.36-.966-.282-.387-.718-.58-1.31-.58-.844 0-1.421.419-1.731 1.256-.164.446-.246 1.038-.246 1.776 0 .703.082 1.268.246 1.696.298.797.861 1.195 1.687 1.195.586 0 1.002-.158 1.248-.474.246-.317.396-.727.448-1.231h2.558c-.059.762-.334 1.483-.826 2.162-.785 1.096-1.948 1.644-3.489 1.644s-2.675-.457-3.402-1.371c-.726-.914-1.09-2.101-1.09-3.56 0-1.646.402-2.926 1.204-3.841.803-.914 1.911-1.371 3.323-1.371 1.201 0 2.182.27 2.944.809.768.539 1.222 1.491 1.362 2.856h-2.566zm8.077-1.626c-.58 0-1.031.182-1.353.545-.317.364-.516.856-.598 1.477h3.894c-.041-.662-.244-1.163-.607-1.503-.357-.346-.803-.519-1.336-.519zm0-2.065c.797 0 1.515.149 2.153.448.639.299 1.166.771 1.583 1.415.374.569.618 1.228.729 1.978.064.439.091 1.072.079 1.898h-6.557c.036.961.337 1.635.906 2.022.345.24.761.36 1.248.36.515 0 .934-.146 1.257-.439.175-.159.331-.378.465-.659h2.558c-.064.568-.36 1.145-.888 1.731-.82.932-1.968 1.397-3.445 1.397-1.219 0-2.294-.392-3.226-1.177-.931-.785-1.397-2.063-1.397-3.832 0-1.659.419-2.93 1.257-3.815.844-.885 1.936-1.327 3.278-1.327zM452.437 279.045h3.893V292h-2.522v-8.763c0-.252.003-.603.008-1.054.006-.457.009-.809.009-1.055L451.373 292h-2.628l-2.434-10.872c0 .246.002.598.008 1.055.006.451.009.802.009 1.054V292h-2.522v-12.955h3.937l2.356 10.186 2.338-10.186zm8.78 2.232h-2.54v-2.311h2.54v2.311zm-2.54 1.143h2.54V292h-2.54v-9.58zm6.926 6.521c.052.446.167.762.342.95.311.334.885.501 1.723.501.492 0 .882-.074 1.169-.22.293-.147.439-.366.439-.659 0-.282-.117-.495-.351-.642-.235-.146-1.105-.398-2.611-.756-1.084-.269-1.848-.606-2.293-1.011-.446-.398-.668-.972-.668-1.722 0-.885.345-1.644 1.037-2.277.697-.638 1.675-.958 2.935-.958 1.196 0 2.168.241 2.918.721.756.475 1.19 1.298 1.301 2.47h-2.505c-.035-.322-.126-.577-.272-.765-.276-.34-.745-.51-1.407-.51-.545 0-.934.085-1.169.255-.228.17-.342.37-.342.598 0 .287.123.495.369.624.246.135 1.116.366 2.61.694.996.235 1.743.589 2.241 1.064.493.48.739 1.081.739 1.802 0 .949-.355 1.725-1.064 2.329-.703.597-1.793.896-3.269.896-1.506 0-2.62-.316-3.34-.949-.715-.639-1.073-1.45-1.073-2.435h2.541zm13.79-3.085c-.047-.357-.167-.679-.361-.966-.281-.387-.718-.58-1.309-.58-.844 0-1.421.419-1.732 1.256-.164.446-.246 1.038-.246 1.776 0 .703.082 1.268.246 1.696.299.797.862 1.195 1.688 1.195.586 0 1.002-.158 1.248-.474.246-.317.395-.727.448-1.231h2.558c-.059.762-.334 1.483-.827 2.162-.785 1.096-1.948 1.644-3.489 1.644s-2.675-.457-3.401-1.371c-.727-.914-1.09-2.101-1.09-3.56 0-1.646.401-2.926 1.204-3.841.803-.914 1.91-1.371 3.322-1.371 1.202 0 2.183.27 2.945.809.767.539 1.221 1.491 1.362 2.856h-2.566z"/>
        <path fill="#E9B4B4" d="M281.888 184.371c0-14.204-2.927-28.256-8.6-41.278-5.672-13.023-13.967-24.736-24.368-34.41-10.4-9.673-22.683-17.1-36.081-21.815-13.399-4.716-27.625-6.619-41.792-5.592l3.177 43.815c8.146-.59 16.326.504 24.031 3.216 7.704 2.711 14.766 6.981 20.747 12.543 5.98 5.563 10.75 12.298 14.011 19.786 3.262 7.488 4.945 15.567 4.945 23.735h43.93z"/>
        <path fill="#E3BCDF" d="M171.048 81.276c-8.135.59-16.172 2.141-23.943 4.62l13.353 41.852c4.469-1.426 9.09-2.317 13.767-2.657l-3.177-43.815z"/>
        <path fill="#BED3ED" d="M147.104 85.897c-23.27 7.424-43.16 22.85-56.14 43.542-12.982 20.691-18.216 45.312-14.775 69.495l43.492-6.19c-1.978-13.905 1.031-28.061 8.495-39.959 7.464-11.898 18.901-20.768 32.281-25.037l-13.353-41.852z"/>
        <path fill="#D1EBC0" d="M76.19 198.933c2.644 18.584 10.299 36.096 22.142 50.658l34.081-27.719c-6.81-8.373-11.211-18.443-12.732-29.128l-43.492 6.189z"/>
        <path fill="#B8D4BC" d="M98.332 249.591c16.606 20.418 40.376 33.733 66.462 37.229 26.085 3.495 52.522-3.091 73.918-18.416l-25.58-35.714c-12.303 8.812-27.504 12.599-42.503 10.589-15-2.01-28.667-9.666-38.216-21.407l-34.081 27.719z"/>
        <path fill="#C0EAE7" d="M238.711 268.404c13.358-9.568 24.242-22.181 31.751-36.795 7.508-14.615 11.425-30.808 11.425-47.239h-43.93c0 9.448-2.252 18.759-6.57 27.162-4.317 8.404-10.576 15.656-18.256 21.158l25.58 35.714z"/>
        <path stroke="#E9B4B4" d="M248.92 108.684l17.599-18.922"/>
        <path fill="#232323" d="M268.805 80.464h.814c.512-.008.914-.143 1.207-.404.293-.262.44-.615.44-1.06 0-1-.498-1.5-1.495-1.5-.468 0-.843.134-1.125.403-.277.266-.416.62-.416 1.061h-1.084c0-.676.247-1.236.739-1.682.496-.449 1.125-.673 1.886-.673.805 0 1.436.212 1.893.638.457.426.686 1.018.686 1.776 0 .37-.121.73-.364 1.078-.238.347-.564.607-.978.779.469.148.83.395 1.084.738.258.344.387.764.387 1.26 0 .766-.25 1.373-.75 1.822-.5.45-1.151.674-1.952.674-.8 0-1.453-.217-1.957-.65-.5-.434-.75-1.006-.75-1.717h1.09c0 .45.147.809.44 1.078.293.27.685.404 1.177.404.524 0 .924-.136 1.202-.41.277-.273.416-.666.416-1.177 0-.497-.153-.877-.457-1.143-.305-.266-.745-.402-1.319-.41h-.814v-.885zm10.511 1.154c0 1.27-.216 2.213-.65 2.83-.434.618-1.111.926-2.033.926-.91 0-1.584-.3-2.022-.902-.437-.606-.664-1.508-.679-2.707v-1.448c0-1.253.216-2.185.65-2.794.434-.61 1.113-.914 2.039-.914.918 0 1.594.294 2.027.884.434.586.657 1.493.668 2.719v1.406zm-1.084-1.482c0-.918-.128-1.586-.386-2.004-.258-.422-.666-.633-1.225-.633-.555 0-.959.21-1.213.627-.254.418-.385 1.06-.392 1.928v1.734c0 .922.132 1.604.398 2.045.27.438.676.656 1.219.656.535 0 .931-.207 1.189-.62.262-.415.399-1.067.41-1.958v-1.775zm2.379-1.77c0-.511.162-.933.487-1.265.328-.332.748-.498 1.259-.498.52 0 .94.168 1.26.504.324.332.487.763.487 1.294v.416c0 .516-.165.938-.493 1.266-.324.324-.738.487-1.242.487-.508 0-.928-.163-1.26-.487-.332-.328-.498-.763-.498-1.306v-.41zm.809.451c0 .305.086.557.258.756.172.196.402.293.691.293.277 0 .5-.095.668-.287.172-.191.258-.453.258-.785v-.428c0-.304-.084-.556-.252-.755-.168-.2-.397-.3-.686-.3-.289 0-.517.1-.685.3-.168.199-.252.459-.252.779v.427zm3.346 4.348c0-.512.162-.931.486-1.26.328-.332.748-.498 1.26-.498.511 0 .931.164 1.259.493.329.328.493.763.493 1.306v.416c0 .512-.164.934-.493 1.266-.324.328-.74.492-1.248.492-.507 0-.927-.162-1.259-.486-.332-.328-.498-.764-.498-1.307v-.422zm.808.457c0 .309.086.563.258.762.172.195.402.293.691.293.282 0 .506-.096.674-.287.168-.195.252-.46.252-.791v-.434c0-.308-.086-.56-.258-.756-.168-.195-.394-.293-.679-.293-.278 0-.504.098-.68.293-.172.192-.258.451-.258.78v.433zm-2.959.99l-.615-.386 4.166-6.668.615.386-4.166 6.668z"/>
        <path stroke="#E3BCDF" d="M158.939 82.878l-4.896-25.373"/>
        <path fill="#232323" d="M143.801 50.135h1.184v.885h-1.184V53h-1.09v-1.98h-3.884v-.64l3.82-5.911h1.154v5.666zm-3.744 0h2.654V45.95l-.128.234-2.526 3.95zm5.813-4.026c0-.511.162-.933.486-1.265.328-.332.748-.498 1.26-.498.519 0 .939.168 1.259.504.325.332.487.763.487 1.294v.416c0 .516-.164.938-.492 1.266-.325.324-.739.486-1.243.486-.507 0-.927-.162-1.259-.486-.332-.328-.498-.764-.498-1.306v-.41zm.808.451c0 .305.086.557.258.756.172.196.402.293.691.293.278 0 .5-.095.668-.287.172-.191.258-.453.258-.785v-.428c0-.304-.084-.556-.252-.756-.168-.199-.396-.298-.685-.298-.289 0-.518.1-.686.298-.168.2-.252.46-.252.78v.427zm3.346 4.348c0-.511.162-.931.486-1.26.328-.332.748-.498 1.26-.498s.932.165 1.26.493c.328.328.492.763.492 1.306v.416c0 .512-.164.934-.492 1.266-.324.328-.74.492-1.248.492s-.928-.162-1.26-.486c-.332-.328-.498-.764-.498-1.307v-.422zm.809.457c0 .309.085.563.257.762.172.195.403.293.692.293.281 0 .506-.096.674-.287.168-.196.252-.46.252-.791v-.434c0-.308-.086-.56-.258-.756-.168-.195-.395-.293-.68-.293-.277 0-.504.098-.68.293-.172.192-.257.451-.257.78v.433zm-2.959.99l-.616-.386 4.166-6.668.616.386-4.166 6.669z"/>
        <path stroke="#BED3ED" d="M90.962 129.439l-21.89-13.733"/>
        <path fill="#232323" d="M51.079 111.201h-1.09v-7.225l-2.186.803v-.984l3.106-1.166h.17v8.572zm7.33-3.75c-.227.27-.498.486-.815.65-.312.165-.656.247-1.031.247-.492 0-.922-.122-1.29-.364-.362-.242-.644-.582-.843-1.019-.2-.442-.299-.928-.299-1.459 0-.571.108-1.084.323-1.541.218-.457.527-.807.925-1.049.399-.242.864-.363 1.395-.363.844 0 1.508.316 1.992.949.488.629.733 1.488.733 2.578v.316c0 1.661-.329 2.873-.985 3.639-.656.762-1.646 1.152-2.97 1.172h-.211v-.914h.228c.895-.016 1.582-.248 2.063-.697.48-.454.742-1.168.785-2.145zm-1.67 0c.363 0 .697-.111 1.002-.334.308-.223.533-.498.673-.826v-.434c0-.711-.154-1.289-.462-1.734-.309-.445-.7-.668-1.172-.668-.477 0-.86.184-1.149.551-.289.363-.433.843-.433 1.441 0 .582.138 1.063.416 1.442.281.375.656.562 1.125.562zm4.16-3.141c0-.511.162-.933.486-1.265.328-.332.748-.498 1.26-.498.52 0 .94.168 1.26.504.324.332.486.763.486 1.295v.416c0 .515-.164.937-.492 1.265-.324.324-.738.487-1.242.487-.508 0-.928-.163-1.26-.487-.332-.328-.498-.763-.498-1.306v-.411zm.809.452c0 .304.085.556.257.755.172.196.403.293.692.293.277 0 .5-.095.668-.287.172-.191.258-.453.258-.785v-.428c0-.304-.084-.556-.252-.755-.168-.2-.397-.299-.686-.299-.29 0-.518.099-.686.299-.168.199-.252.459-.252.779v.428zm3.345 4.347c0-.511.162-.931.487-1.26.328-.332.748-.498 1.26-.498.511 0 .93.165 1.26.493.327.328.491.763.491 1.306v.416c0 .512-.164.934-.492 1.266-.324.328-.74.492-1.248.492s-.928-.162-1.26-.486c-.332-.328-.498-.764-.498-1.307v-.422zm.809.457c0 .309.086.563.258.762.171.195.402.293.691.293.281 0 .506-.096.674-.287.168-.195.252-.459.252-.791v-.434c0-.308-.086-.56-.258-.756-.168-.195-.394-.293-.68-.293-.277 0-.504.098-.68.293-.171.192-.257.452-.257.78v.433zm-2.96.991l-.614-.387 4.166-6.668.615.387-4.166 6.668z"/>
        <path stroke="#D1EBC0" d="M83.81 225.77l-23.677 10.35"/>
        <path fill="#232323" d="M50.402 224.952c0 .426-.113.805-.34 1.137-.222.332-.525.592-.908.779.446.192.797.471 1.055.838.262.367.393.783.393 1.248 0 .739-.25 1.326-.75 1.764-.496.437-1.15.656-1.963.656-.82 0-1.479-.219-1.975-.656-.492-.442-.738-1.029-.738-1.764 0-.461.125-.877.375-1.248.254-.371.603-.652 1.049-.844-.38-.187-.678-.447-.897-.779-.219-.332-.328-.709-.328-1.131 0-.718.23-1.289.691-1.711.461-.422 1.069-.632 1.823-.632.75 0 1.355.21 1.816.632.465.422.697.993.697 1.711zm-.884 3.979c0-.477-.153-.865-.458-1.166-.3-.301-.695-.451-1.183-.451-.488 0-.88.148-1.178.445-.293.297-.44.687-.44 1.172 0 .484.143.865.428 1.142.29.278.69.416 1.202.416.508 0 .906-.138 1.195-.416.289-.281.434-.662.434-1.142zm-1.63-5.432c-.425 0-.77.133-1.036.399-.262.261-.393.619-.393 1.072 0 .433.129.785.387 1.055.261.265.61.398 1.043.398.433 0 .779-.133 1.037-.398.261-.27.392-.622.392-1.055 0-.434-.134-.787-.404-1.061-.27-.273-.611-.41-1.025-.41zm3.985.867c0-.511.162-.933.486-1.265.328-.332.748-.498 1.26-.498.52 0 .94.168 1.26.504.324.332.486.763.486 1.294v.417c0 .515-.164.937-.492 1.265-.324.324-.738.486-1.242.486-.508 0-.928-.162-1.26-.486-.332-.328-.498-.764-.498-1.307v-.41zm.809.452c0 .304.086.556.258.755.171.196.402.293.69.293.278 0 .5-.095.669-.287.172-.191.258-.453.258-.785v-.428c0-.304-.084-.556-.252-.756-.168-.199-.397-.298-.686-.298-.289 0-.517.099-.685.298-.168.2-.252.459-.252.78v.428zm3.345 4.347c0-.512.163-.931.487-1.26.328-.332.748-.498 1.26-.498.511 0 .931.164 1.26.493.327.328.491.763.491 1.306v.416c0 .512-.164.934-.492 1.266-.324.328-.74.492-1.248.492s-.928-.162-1.26-.486c-.332-.328-.498-.764-.498-1.307v-.422zm.809.457c0 .309.086.563.258.762.172.195.402.293.691.293.281 0 .506-.096.674-.287.168-.196.252-.459.252-.791v-.434c0-.308-.086-.56-.258-.756-.168-.195-.394-.293-.68-.293-.277 0-.504.098-.68.293-.171.192-.257.451-.257.78v.433zm-2.959.99l-.615-.386 4.166-6.668.615.386-4.166 6.668z"/>
        <path stroke="#B8D4BC" d="M164.796 286.82l-3.433 25.612"/>
        <path fill="#232323" d="M141.153 303.207h.814c.512-.008.914-.143 1.207-.404.293-.262.44-.615.44-1.061 0-1-.498-1.5-1.494-1.5-.469 0-.844.135-1.125.404-.278.266-.416.62-.416 1.061h-1.084c0-.676.246-1.236.738-1.682.496-.449 1.125-.673 1.887-.673.804 0 1.435.212 1.892.638.457.426.686 1.018.686 1.776 0 .371-.121.73-.364 1.078-.238.347-.564.607-.978.779.469.148.83.395 1.084.738.258.344.387.764.387 1.26 0 .766-.25 1.373-.75 1.822-.5.45-1.151.674-1.952.674-.8 0-1.453-.217-1.957-.65-.5-.434-.75-1.006-.75-1.717h1.09c0 .449.147.809.44 1.078.293.27.685.404 1.177.404.524 0 .924-.136 1.202-.41.277-.273.416-.666.416-1.177 0-.497-.153-.877-.457-1.143-.305-.266-.745-.402-1.319-.41h-.814v-.885zm10.512 1.154c0 1.27-.217 2.213-.651 2.83-.433.618-1.111.926-2.033.926-.91 0-1.584-.301-2.022-.902-.437-.606-.664-1.508-.679-2.707v-1.447c0-1.254.217-2.186.65-2.795.434-.61 1.113-.914 2.039-.914.918 0 1.594.294 2.028.884.433.586.656 1.493.668 2.719v1.406zm-1.084-1.482c0-.918-.129-1.586-.387-2.004-.258-.422-.666-.633-1.225-.633-.554 0-.959.209-1.213.627-.254.418-.384 1.061-.392 1.928v1.734c0 .922.133 1.604.398 2.045.27.438.676.656 1.219.656.535 0 .932-.207 1.189-.621.262-.414.399-1.066.411-1.957v-1.775zm2.378-1.77c0-.511.163-.933.487-1.265.328-.332.748-.498 1.26-.498.519 0 .939.168 1.259.504.325.332.487.763.487 1.295v.416c0 .515-.164.937-.493 1.265-.324.324-.738.486-1.242.486-.508 0-.927-.162-1.259-.486-.333-.328-.499-.764-.499-1.306v-.411zm.809.452c0 .304.086.556.258.755.172.196.402.293.691.293.278 0 .5-.095.668-.287.172-.191.258-.453.258-.785v-.428c0-.304-.084-.556-.252-.755-.168-.2-.396-.299-.685-.299-.29 0-.518.099-.686.299-.168.199-.252.458-.252.779v.428zm3.346 4.347c0-.512.162-.931.486-1.26.328-.332.748-.498 1.26-.498s.931.164 1.26.493c.328.328.492.763.492 1.306v.416c0 .512-.164.934-.492 1.266-.325.328-.741.492-1.248.492-.508 0-.928-.162-1.26-.486-.332-.328-.498-.764-.498-1.307v-.422zm.808.457c0 .309.086.563.258.762.172.195.403.293.692.293.281 0 .505-.096.673-.287.168-.195.252-.459.252-.791v-.434c0-.308-.086-.56-.257-.756-.168-.195-.395-.293-.68-.293-.277 0-.504.098-.68.293-.172.192-.258.452-.258.78v.433zm-2.959.99l-.615-.386 4.166-6.668.615.387-4.166 6.667z"/>
        <path stroke="#C0EAE7" d="M270.463 231.609l22.985 11.809"/>
        <path fill="#232323" d="M297.719 238.913h-1.09v-7.224l-2.186.803v-.985l3.106-1.166h.17v8.572zm8.683-7.921l-3.533 7.921h-1.137l3.522-7.64h-4.617v-.891h5.765v.61zm1.137 1.031c0-.512.162-.934.486-1.266.329-.332.748-.498 1.26-.498.52 0 .94.168 1.26.504.324.332.486.764.486 1.295v.416c0 .516-.164.937-.492 1.266-.324.324-.738.486-1.242.486-.508 0-.928-.162-1.26-.486-.332-.329-.498-.764-.498-1.307v-.41zm.809.451c0 .305.086.557.257.756.172.195.403.293.692.293.277 0 .5-.096.668-.287.172-.192.258-.453.258-.785v-.428c0-.305-.084-.557-.252-.756-.168-.199-.397-.299-.686-.299-.289 0-.517.1-.685.299-.168.199-.252.459-.252.779v.428zm3.345 4.348c0-.512.162-.932.487-1.26.328-.332.748-.498 1.259-.498.512 0 .932.164 1.26.492.328.328.492.764.492 1.307v.416c0 .511-.164.933-.492 1.265-.324.328-.74.492-1.248.492s-.928-.162-1.26-.486c-.332-.328-.498-.764-.498-1.306v-.422zm.809.457c0 .308.086.562.258.761.172.196.402.293.691.293.281 0 .506-.095.674-.287.168-.195.252-.459.252-.791v-.433c0-.309-.086-.561-.258-.756-.168-.196-.394-.293-.68-.293-.277 0-.503.097-.679.293-.172.191-.258.451-.258.779v.434zm-2.959.99l-.615-.387 4.166-6.668.615.387-4.166 6.668z"/>
    </g>
    <defs>
        <clipPath id="prefix__clip0">
            <path fill="#fff" d="M0 0H556V336H0z"/>
        </clipPath>
        <filter id="prefix__filter0_dd" width="620" height="400" x="-32" y="-8" color-interpolation-filters="sRGB" filterUnits="userSpaceOnUse">
            <feFlood flood-opacity="0" result="BackgroundImageFix"/>
            <feColorMatrix in="SourceAlpha" values="0 0 0 0 0 0 0 0 0 0 0 0 0 0 0 0 0 0 127 0"/>
            <feOffset dy="24"/>
            <feGaussianBlur stdDeviation="16"/>
            <feColorMatrix values="0 0 0 0 0.196487 0 0 0 0 0.196487 0 0 0 0 0.279476 0 0 0 0.08 0"/>
            <feBlend in2="BackgroundImageFix" mode="multiply" result="effect1_dropShadow"/>
            <feColorMatrix in="SourceAlpha" values="0 0 0 0 0 0 0 0 0 0 0 0 0 0 0 0 0 0 127 0"/>
            <feOffset dy="16"/>
            <feGaussianBlur stdDeviation="8"/>
            <feColorMatrix values="0 0 0 0 0.196487 0 0 0 0 0.196487 0 0 0 0 0.279476 0 0 0 0.08 0"/>
            <feBlend in2="effect1_dropShadow" mode="multiply" result="effect2_dropShadow"/>
            <feBlend in="SourceGraphic" in2="effect2_dropShadow" result="shape"/>
        </filter>
    </defs>
</svg>
