<svg xmlns="http://www.w3.org/2000/svg" width="272" height="230" fill="none" viewBox="0 0 272 230">
    <g clip-path="url(#prefix__clip0)">
        <g filter="url(#prefix__filter0_dd)">
            <rect width="272" height="230" fill="#fff" rx="10"/>
        </g>
        <path fill="#000" d="M28.725 34h-2.471l-6.338-10.088V34h-2.47V19.781h2.47l6.357 10.127V19.781h2.452V34zm7.343.195c-1.503 0-2.724-.472-3.662-1.416-.93-.95-1.396-2.213-1.396-3.789v-.293c0-1.054.202-1.995.605-2.822.41-.833.983-1.481 1.719-1.943.736-.463 1.556-.694 2.46-.694 1.44 0 2.55.46 3.331 1.377.788.918 1.182 2.217 1.182 3.897v.957h-6.905c.072.872.362 1.562.87 2.07.514.508 1.158.762 1.933.762 1.087 0 1.973-.44 2.656-1.319l1.28 1.221c-.424.632-.99 1.123-1.7 1.475-.703.345-1.494.517-2.373.517zm-.283-9.052c-.65 0-1.178.227-1.582.683-.397.456-.65 1.09-.762 1.904h4.522v-.175c-.052-.795-.264-1.393-.635-1.797-.371-.41-.885-.615-1.543-.615zm11.026 9.052c-1.504 0-2.725-.472-3.663-1.416-.93-.95-1.396-2.213-1.396-3.789v-.293c0-1.054.202-1.995.605-2.822.41-.833.983-1.481 1.72-1.943.735-.463 1.555-.694 2.46-.694 1.439 0 2.549.46 3.33 1.377.788.918 1.182 2.217 1.182 3.897v.957h-6.904c.071.872.36 1.562.869 2.07.514.508 1.158.762 1.933.762 1.087 0 1.973-.44 2.656-1.319l1.28 1.221c-.423.632-.99 1.123-1.7 1.475-.703.345-1.493.517-2.373.517zm-.284-9.052c-.65 0-1.178.227-1.582.683-.397.456-.65 1.09-.761 1.904h4.521v-.175c-.052-.795-.264-1.393-.635-1.797-.37-.41-.885-.615-1.543-.615zm5.928 3.496c0-1.628.378-2.933 1.133-3.916.755-.99 1.767-1.485 3.037-1.485 1.12 0 2.025.39 2.715 1.172V19h2.373v15h-2.148l-.118-1.094c-.71.86-1.657 1.29-2.842 1.29-1.236 0-2.24-.499-3.007-1.495-.762-.996-1.143-2.35-1.143-4.062zm2.373.205c0 1.074.205 1.914.615 2.52.417.598 1.006.898 1.768.898.97 0 1.68-.433 2.129-1.3v-4.51c-.436-.847-1.14-1.27-2.11-1.27-.768 0-1.36.306-1.777.918-.417.605-.625 1.52-.625 2.744zm17.315-7.979v2.569h1.865v1.757h-1.865v5.899c0 .404.078.697.234.879.163.175.45.263.86.263.273 0 .55-.032.83-.097v1.836c-.541.15-1.062.224-1.563.224-1.823 0-2.735-1.005-2.735-3.017V25.19h-1.738v-1.757h1.738v-2.569h2.374zm2.949 7.754c0-1.035.205-1.966.615-2.793.41-.833.986-1.471 1.729-1.914.742-.45 1.595-.674 2.558-.674 1.426 0 2.582.46 3.467 1.377.892.918 1.374 2.136 1.445 3.653l.01.556c0 1.042-.202 1.973-.605 2.793-.398.82-.97 1.455-1.72 1.905-.741.449-1.6.673-2.577.673-1.491 0-2.686-.495-3.584-1.484-.892-.996-1.338-2.321-1.338-3.975v-.117zm2.373.205c0 1.087.224 1.94.674 2.559.449.612 1.074.918 1.875.918.8 0 1.422-.313 1.865-.938.45-.625.674-1.54.674-2.744 0-1.068-.231-1.914-.694-2.539-.455-.625-1.077-.937-1.865-.937-.775 0-1.39.309-1.846.927-.455.612-.683 1.53-.683 2.754zm20.361 2.305c0-.423-.176-.745-.527-.967-.345-.221-.921-.417-1.729-.586-.807-.17-1.48-.384-2.021-.644-1.185-.573-1.778-1.403-1.778-2.49 0-.912.385-1.674 1.153-2.286.768-.612 1.745-.918 2.93-.918 1.263 0 2.281.313 3.056.938.781.625 1.172 1.435 1.172 2.431h-2.373c0-.455-.17-.833-.508-1.132-.338-.306-.788-.46-1.347-.46-.521 0-.948.121-1.28.362-.325.24-.488.563-.488.967 0 .364.153.647.459.85.306.201.924.406 1.855.615.931.201 1.66.446 2.188.732.534.28.928.619 1.181 1.016.261.397.391.879.391 1.445 0 .95-.394 1.722-1.181 2.314-.788.586-1.82.88-3.096.88-.866 0-1.638-.157-2.315-.47-.677-.312-1.204-.742-1.582-1.288-.377-.547-.566-1.137-.566-1.768h2.305c.032.56.244.993.634 1.299.391.3.909.449 1.553.449.625 0 1.1-.117 1.426-.352.325-.24.488-.553.488-.937zm6.748-6.543c.775-.898 1.755-1.348 2.94-1.348 2.252 0 3.395 1.286 3.427 3.858V34h-2.373v-6.816c0-.73-.159-1.244-.478-1.543-.313-.306-.775-.46-1.387-.46-.95 0-1.66.424-2.129 1.27V34h-2.373V19h2.373v5.586zM115.873 34H113.5V23.434h2.373V34zm-2.519-13.31c0-.365.113-.668.341-.909.235-.24.567-.361.996-.361.43 0 .762.12.997.361.234.241.351.544.351.909 0 .357-.117.657-.351.898-.235.234-.567.351-.997.351-.429 0-.761-.117-.996-.351-.228-.241-.341-.54-.341-.899zm14.365 8.134c0 1.634-.371 2.94-1.114 3.916-.742.97-1.738 1.455-2.988 1.455-1.159 0-2.086-.38-2.783-1.142v5.01h-2.373v-14.63h2.187l.098 1.075c.697-.846 1.644-1.27 2.842-1.27 1.289 0 2.298.482 3.027 1.446.736.957 1.104 2.288 1.104 3.994v.146zm-2.364-.205c0-1.055-.211-1.891-.634-2.51-.417-.618-1.016-.927-1.797-.927-.97 0-1.667.4-2.09 1.2v4.688c.43.82 1.133 1.23 2.109 1.23.756 0 1.345-.302 1.768-.907.43-.612.644-1.537.644-2.774zM31.566 202.92h7.336v.812H35.71V213h-.952v-9.268h-3.192v-.812zM40.129 213v-10.08h.84v3.836c.336-.355.681-.644 1.036-.868.364-.224.798-.336 1.302-.336.448 0 .863.079 1.246.238.383.149.705.415.966.798.177.261.28.532.308.812.037.271.056.555.056.854V213h-.84v-4.732c0-.653-.145-1.143-.434-1.47-.29-.327-.77-.49-1.442-.49-.261 0-.5.042-.714.126-.215.075-.41.177-.588.308-.168.131-.313.28-.434.448-.121.168-.215.345-.28.532-.084.233-.135.457-.154.672-.019.215-.028.448-.028.7V213h-.84zm13.03-4.13c0-.355-.052-.686-.155-.994-.093-.317-.238-.588-.434-.812-.186-.233-.424-.415-.714-.546-.289-.14-.62-.21-.994-.21-.373 0-.704.07-.994.21-.28.14-.522.327-.728.56-.196.233-.354.504-.476.812-.12.308-.2.635-.238.98h4.732zm-4.733.7c0 .392.052.765.154 1.12.103.345.252.649.448.91.206.252.462.457.77.616.308.149.663.224 1.064.224.551 0 1.022-.145 1.414-.434.392-.289.654-.7.784-1.232h.938c-.102.345-.238.667-.406.966-.168.289-.378.546-.63.77-.252.215-.55.383-.896.504-.345.121-.746.182-1.204.182-.578 0-1.078-.098-1.498-.294-.42-.196-.765-.462-1.036-.798-.27-.345-.47-.747-.602-1.204-.13-.467-.196-.966-.196-1.498s.075-1.031.224-1.498c.16-.467.378-.873.658-1.218.29-.355.64-.63 1.05-.826.411-.205.878-.308 1.4-.308 1 0 1.783.345 2.352 1.036.57.681.85 1.675.84 2.982h-5.628zM56.57 213h-.84v-7.252h.84v1.358h.028c.233-.579.532-.98.896-1.204.373-.233.863-.35 1.47-.35v.91c-.476-.009-.868.065-1.176.224-.308.159-.556.373-.742.644-.178.271-.304.593-.378.966-.066.364-.098.747-.098 1.148V213zm8.784-4.13c0-.355-.052-.686-.154-.994-.094-.317-.238-.588-.434-.812-.187-.233-.425-.415-.714-.546-.29-.14-.621-.21-.994-.21-.374 0-.705.07-.994.21-.28.14-.523.327-.728.56-.196.233-.355.504-.476.812-.122.308-.201.635-.238.98h4.732zm-4.732.7c0 .392.051.765.154 1.12.102.345.252.649.448.91.205.252.462.457.77.616.308.149.662.224 1.064.224.55 0 1.022-.145 1.414-.434.392-.289.653-.7.784-1.232h.938c-.103.345-.238.667-.406.966-.168.289-.378.546-.63.77-.252.215-.551.383-.896.504-.346.121-.747.182-1.204.182-.579 0-1.078-.098-1.498-.294-.42-.196-.766-.462-1.036-.798-.271-.345-.472-.747-.602-1.204-.131-.467-.196-.966-.196-1.498s.074-1.031.224-1.498c.158-.467.378-.873.658-1.218.289-.355.639-.63 1.05-.826.41-.205.877-.308 1.4-.308.998 0 1.782.345 2.352 1.036.569.681.849 1.675.84 2.982h-5.628zm15.903-.378c-.354.149-.714.247-1.078.294-.364.047-.728.084-1.091.112-.644.047-1.148.191-1.512.434-.355.243-.532.611-.532 1.106 0 .224.041.42.126.588.093.159.21.294.35.406.149.103.317.182.504.238.195.047.391.07.587.07.337 0 .663-.042.98-.126.318-.084.598-.21.84-.378.252-.177.453-.397.603-.658.149-.271.223-.588.223-.952v-1.134zm-1.413-.42c.158-.019.345-.047.56-.084.224-.037.406-.089.546-.154s.224-.173.251-.322c.038-.159.056-.303.056-.434 0-.429-.14-.779-.42-1.05-.27-.28-.732-.42-1.386-.42-.289 0-.555.028-.797.084-.243.047-.458.135-.644.266-.178.121-.327.289-.449.504-.111.205-.186.467-.223.784h-.855c.028-.429.126-.793.294-1.092.168-.308.383-.555.644-.742.271-.196.58-.336.925-.42.354-.093.727-.14 1.12-.14.364 0 .704.042 1.022.126.326.075.606.201.84.378.242.168.429.397.56.686.14.289.21.644.21 1.064v3.948c0 .327.055.537.168.63.12.084.359.061.713-.07v.658l-.293.084c-.122.037-.243.056-.364.056-.131 0-.257-.014-.379-.042-.14-.019-.251-.061-.335-.126-.085-.075-.154-.159-.21-.252-.047-.103-.08-.21-.099-.322-.018-.121-.027-.247-.027-.378-.355.392-.761.691-1.219.896-.457.205-.951.308-1.483.308-.318 0-.626-.042-.924-.126-.29-.084-.546-.215-.77-.392-.225-.177-.402-.392-.532-.644-.131-.261-.197-.569-.197-.924 0-1.232.845-1.96 2.534-2.184l1.163-.154zM80.44 213h-.84v-7.252h.84v1.358h.028c.233-.579.532-.98.896-1.204.373-.233.863-.35 1.47-.35v.91c-.476-.009-.868.065-1.176.224-.308.159-.556.373-.742.644-.178.271-.304.593-.378.966-.066.364-.098.747-.098 1.148V213zm8.784-4.13c0-.355-.051-.686-.154-.994-.093-.317-.238-.588-.434-.812-.187-.233-.425-.415-.714-.546-.29-.14-.62-.21-.994-.21s-.705.07-.994.21c-.28.14-.523.327-.728.56-.196.233-.355.504-.476.812-.121.308-.2.635-.238.98h4.732zm-4.732.7c0 .392.051.765.154 1.12.102.345.252.649.448.91.205.252.462.457.77.616.308.149.663.224 1.064.224.55 0 1.022-.145 1.414-.434.392-.289.653-.7.784-1.232h.938c-.103.345-.238.667-.406.966-.168.289-.378.546-.63.77-.252.215-.55.383-.896.504s-.747.182-1.204.182c-.579 0-1.078-.098-1.498-.294-.42-.196-.766-.462-1.036-.798-.27-.345-.471-.747-.602-1.204-.13-.467-.196-.966-.196-1.498s.075-1.031.224-1.498c.159-.467.378-.873.658-1.218.29-.355.64-.63 1.05-.826.41-.205.877-.308 1.4-.308.998 0 1.782.345 2.352 1.036.57.681.85 1.675.84 2.982h-5.628zm13.244-2.058c.42 0 .802-.023 1.148-.07.345-.056.639-.154.882-.294.252-.149.448-.345.588-.588.14-.243.21-.555.21-.938 0-.308-.056-.569-.168-.784-.112-.224-.266-.406-.462-.546-.187-.14-.411-.243-.672-.308-.252-.065-.518-.098-.798-.098-.318 0-.607.051-.868.154-.252.103-.472.252-.658.448-.187.187-.332.411-.434.672-.103.252-.154.532-.154.84h-.896c0-.448.074-.849.224-1.204.158-.364.4-.7.728-1.008.308-.28.653-.457 1.036-.532.392-.084.793-.126 1.204-.126.392 0 .756.051 1.092.154.345.093.644.243.896.448.252.196.452.448.602.756.149.308.224.667.224 1.078 0 .513-.117.957-.35 1.33-.224.373-.574.663-1.05.868.354.112.644.261.868.448.233.177.415.378.546.602.13.215.219.443.266.686.046.243.07.476.07.7 0 .411-.07.793-.21 1.148-.14.355-.346.667-.616.938-.271.271-.607.49-1.008.658-.392.159-.84.243-1.344.252-.57 0-1.064-.051-1.484-.154-.42-.103-.77-.271-1.05-.504-.28-.243-.5-.555-.658-.938-.16-.392-.266-.877-.322-1.456h.896c0 .756.224 1.33.672 1.722.457.383 1.05.574 1.778.574.354 0 .686-.061.994-.182.308-.121.569-.285.784-.49.224-.205.392-.443.504-.714.121-.271.177-.551.168-.84-.019-.401-.112-.733-.28-.994-.168-.271-.397-.481-.686-.63-.28-.159-.612-.261-.994-.308-.383-.056-.79-.07-1.218-.042v-.728zm9.697 3.052h-4.508v-.77l4.592-6.566h.812v6.58h1.372v.756h-1.372V213h-.896v-2.436zm-3.626-.756h3.626v-5.236l-3.626 5.236zm10.299-1.638c-.345 0-.662.042-.952.126-.289.084-.541.215-.756.392-.214.168-.382.387-.504.658-.121.261-.182.574-.182.938 0 .308.056.593.168.854.122.261.285.49.49.686.215.187.472.336.77.448.308.112.649.168 1.022.168.327 0 .63-.051.91-.154.28-.112.523-.266.728-.462.215-.196.378-.429.49-.7.122-.271.182-.569.182-.896 0-.345-.06-.644-.182-.896-.121-.261-.289-.476-.504-.644-.214-.177-.466-.308-.756-.392-.289-.084-.597-.126-.924-.126zm-.042-4.284c-.28 0-.541.037-.784.112-.242.075-.457.187-.644.336-.177.149-.317.336-.42.56-.102.224-.154.481-.154.77 0 .308.056.574.168.798.122.215.28.392.476.532.196.14.42.247.672.322.252.065.514.098.784.098.271 0 .523-.033.756-.098.234-.075.434-.191.602-.35.168-.159.299-.359.392-.602.103-.243.154-.541.154-.896 0-.504-.163-.891-.49-1.162-.326-.28-.83-.42-1.512-.42zm-1.526 3.808c-.242-.149-.452-.289-.63-.42-.168-.14-.308-.289-.42-.448-.112-.159-.196-.336-.252-.532-.046-.205-.07-.457-.07-.756 0-.336.075-.653.224-.952.15-.299.35-.555.602-.77.252-.224.546-.397.882-.518.346-.121.714-.177 1.106-.168.374 0 .738.047 1.092.14.364.093.686.238.966.434.28.196.504.448.672.756.168.299.252.658.252 1.078 0 .513-.107.952-.322 1.316-.205.364-.546.663-1.022.896.542.196.966.509 1.274.938.318.429.476.933.476 1.512 0 .485-.084.915-.252 1.288-.158.373-.392.686-.7.938-.298.252-.662.443-1.092.574-.429.131-.905.196-1.428.196-.354 0-.718-.061-1.092-.182-.364-.121-.695-.303-.994-.546-.289-.243-.527-.546-.714-.91-.186-.364-.28-.789-.28-1.274 0-.588.145-1.111.434-1.568.299-.467.728-.807 1.288-1.022zm13.23 5.502c-.467-.009-.905-.093-1.316-.252-.401-.159-.756-.397-1.064-.714-.299-.317-.537-.714-.714-1.19-.177-.476-.266-1.031-.266-1.666 0-.532.07-1.027.21-1.484.14-.467.35-.873.63-1.218s.63-.616 1.05-.812c.42-.205.91-.308 1.47-.308.569 0 1.064.103 1.484.308.42.196.77.467 1.05.812.28.336.485.737.616 1.204.14.467.21.966.21 1.498 0 .579-.079 1.101-.238 1.568-.159.467-.387.868-.686 1.204-.289.336-.644.597-1.064.784-.411.177-.868.266-1.372.266zm2.464-3.822c0-.429-.047-.831-.14-1.204-.093-.373-.238-.695-.434-.966-.196-.28-.448-.499-.756-.658-.308-.159-.686-.238-1.134-.238-.439 0-.817.089-1.134.266-.308.168-.56.397-.756.686-.196.28-.341.607-.434.98-.093.364-.14.742-.14 1.134 0 .448.051.863.154 1.246.112.373.271.695.476.966.205.271.462.481.77.63.308.149.663.224 1.064.224.439 0 .812-.084 1.12-.252.317-.177.574-.411.77-.7.196-.289.341-.616.434-.98.093-.364.14-.742.14-1.134zm3.313 3.626h-.84v-7.252h.84v1.358h.028c.234-.579.532-.98.896-1.204.374-.233.864-.35 1.47-.35v.91c-.476-.009-.868.065-1.176.224-.308.159-.555.373-.742.644-.177.271-.303.593-.378.966-.065.364-.098.747-.098 1.148V213zm9.134-3.654c0-.411-.056-.798-.168-1.162-.112-.373-.275-.695-.49-.966-.205-.28-.462-.499-.77-.658-.298-.168-.639-.252-1.022-.252-.438 0-.816.089-1.134.266-.317.168-.578.401-.784.7-.205.299-.354.649-.448 1.05-.093.392-.13.817-.112 1.274 0 .457.061.863.182 1.218.131.345.308.639.532.882.224.243.486.429.784.56.299.121.626.182.98.182.392 0 .742-.079 1.05-.238.308-.159.565-.373.77-.644.206-.28.36-.607.462-.98.112-.383.168-.793.168-1.232zm0-6.426h.84V213h-.84v-1.274h-.028c-.121.243-.28.457-.476.644-.186.177-.396.327-.63.448-.224.121-.457.215-.7.28-.242.065-.48.098-.714.098-.588 0-1.087-.098-1.498-.294-.41-.196-.751-.462-1.022-.798-.261-.345-.452-.751-.574-1.218-.121-.467-.182-.966-.182-1.498 0-.504.066-.989.196-1.456.131-.467.327-.873.588-1.218.271-.355.607-.635 1.008-.84.411-.215.892-.322 1.442-.322.514 0 1.004.117 1.47.35.476.224.85.56 1.12 1.008v-3.99zm8.209 5.95c0-.355-.051-.686-.154-.994-.093-.317-.238-.588-.434-.812-.187-.233-.425-.415-.714-.546-.289-.14-.621-.21-.994-.21s-.705.07-.994.21c-.28.14-.523.327-.728.56-.196.233-.355.504-.476.812-.121.308-.201.635-.238.98h4.732zm-4.732.7c0 .392.051.765.154 1.12.103.345.252.649.448.91.205.252.462.457.77.616.308.149.663.224 1.064.224.551 0 1.022-.145 1.414-.434.392-.289.653-.7.784-1.232h.938c-.103.345-.238.667-.406.966-.168.289-.378.546-.63.77-.252.215-.551.383-.896.504s-.747.182-1.204.182c-.579 0-1.078-.098-1.498-.294-.42-.196-.765-.462-1.036-.798-.271-.345-.471-.747-.602-1.204-.131-.467-.196-.966-.196-1.498s.075-1.031.224-1.498c.159-.467.378-.873.658-1.218.289-.355.639-.63 1.05-.826.411-.205.877-.308 1.4-.308.999 0 1.783.345 2.352 1.036.569.681.849 1.675.84 2.982h-5.628zM152.3 213h-.84v-7.252h.84v1.358h.028c.233-.579.532-.98.896-1.204.373-.233.863-.35 1.47-.35v.91c-.476-.009-.868.065-1.176.224-.308.159-.555.373-.742.644-.177.271-.303.593-.378.966-.065.364-.098.747-.098 1.148V213zm4.27-2.268c.131.625.364 1.069.7 1.33.346.252.836.378 1.47.378.308 0 .574-.037.798-.112.224-.075.406-.173.546-.294.15-.131.262-.275.336-.434.075-.159.112-.327.112-.504 0-.355-.116-.616-.35-.784-.224-.177-.508-.313-.854-.406-.345-.103-.718-.187-1.12-.252-.401-.075-.774-.182-1.12-.322-.345-.14-.634-.341-.868-.602-.224-.261-.336-.63-.336-1.106 0-.607.22-1.101.658-1.484.448-.392 1.078-.588 1.89-.588.784 0 1.419.177 1.904.532.495.345.794.929.896 1.75h-.854c-.074-.56-.289-.952-.644-1.176-.345-.233-.784-.35-1.316-.35s-.938.117-1.218.35c-.28.224-.42.523-.42.896 0 .327.112.579.336.756.234.168.523.308.868.42.346.103.719.196 1.12.28.402.084.775.205 1.12.364.346.149.63.355.854.616.234.261.35.625.35 1.092 0 .345-.074.653-.224.924-.149.261-.354.481-.616.658-.261.177-.574.308-.938.392-.354.093-.746.14-1.176.14-.429 0-.812-.065-1.148-.196-.326-.121-.606-.294-.84-.518-.233-.224-.415-.485-.546-.784-.13-.299-.205-.621-.224-.966h.854zM167.705 213h-.84v-7.252h.84v1.092h.028c.214-.42.522-.737.924-.952.401-.224.84-.336 1.316-.336.336 0 .62.037.854.112.233.075.429.177.588.308.168.121.303.266.406.434.112.168.205.35.28.546.242-.476.564-.826.966-1.05.41-.233.877-.35 1.4-.35.494 0 .886.084 1.176.252.298.159.527.373.686.644.158.261.261.565.308.91.056.345.084.7.084 1.064V213h-.84v-5.012c0-.523-.112-.933-.336-1.232-.215-.299-.621-.448-1.218-.448-.308 0-.607.07-.896.21-.28.131-.528.336-.742.616-.094.121-.173.266-.238.434-.056.159-.103.327-.14.504-.038.177-.066.355-.084.532-.01.177-.014.341-.014.49V213h-.84v-5.012c0-.523-.112-.933-.336-1.232-.215-.299-.621-.448-1.218-.448-.308 0-.607.07-.896.21-.28.131-.528.336-.742.616-.094.121-.173.266-.238.434-.056.159-.103.327-.14.504-.038.177-.066.355-.084.532-.01.177-.014.341-.014.49V213zm15.68-3.808c-.355.149-.714.247-1.078.294-.364.047-.728.084-1.092.112-.644.047-1.148.191-1.512.434-.355.243-.532.611-.532 1.106 0 .224.042.42.126.588.093.159.21.294.35.406.149.103.317.182.504.238.196.047.392.07.588.07.336 0 .663-.042.98-.126.317-.084.597-.21.84-.378.252-.177.453-.397.602-.658.149-.271.224-.588.224-.952v-1.134zm-1.414-.42c.159-.019.345-.047.56-.084.224-.037.406-.089.546-.154s.224-.173.252-.322c.037-.159.056-.303.056-.434 0-.429-.14-.779-.42-1.05-.271-.28-.733-.42-1.386-.42-.289 0-.555.028-.798.084-.243.047-.457.135-.644.266-.177.121-.327.289-.448.504-.112.205-.187.467-.224.784h-.854c.028-.429.126-.793.294-1.092.168-.308.383-.555.644-.742.271-.196.579-.336.924-.42.355-.093.728-.14 1.12-.14.364 0 .705.042 1.022.126.327.075.607.201.84.378.243.168.429.397.56.686.14.289.21.644.21 1.064v3.948c0 .327.056.537.168.63.121.084.359.061.714-.07v.658l-.294.084c-.121.037-.243.056-.364.056-.131 0-.257-.014-.378-.042-.14-.019-.252-.061-.336-.126-.084-.075-.154-.159-.21-.252-.047-.103-.079-.21-.098-.322-.019-.121-.028-.247-.028-.378-.355.392-.761.691-1.218.896-.457.205-.952.308-1.484.308-.317 0-.625-.042-.924-.126-.289-.084-.546-.215-.77-.392-.224-.177-.401-.392-.532-.644-.131-.261-.196-.569-.196-.924 0-1.232.845-1.96 2.534-2.184l1.162-.154zm10.047.574c0-.411-.056-.798-.168-1.162-.112-.373-.275-.695-.49-.966-.205-.28-.462-.499-.77-.658-.299-.168-.639-.252-1.022-.252-.439 0-.817.089-1.134.266-.317.168-.579.401-.784.7-.205.299-.355.649-.448 1.05-.093.392-.131.817-.112 1.274 0 .457.061.863.182 1.218.131.345.308.639.532.882.224.243.485.429.784.56.299.121.625.182.98.182.392 0 .742-.079 1.05-.238.308-.159.565-.373.77-.644.205-.28.359-.607.462-.98.112-.383.168-.793.168-1.232zm0-6.426h.84V213h-.84v-1.274h-.028c-.121.243-.28.457-.476.644-.187.177-.397.327-.63.448-.224.121-.457.215-.7.28-.243.065-.481.098-.714.098-.588 0-1.087-.098-1.498-.294-.411-.196-.751-.462-1.022-.798-.261-.345-.453-.751-.574-1.218-.121-.467-.182-.966-.182-1.498 0-.504.065-.989.196-1.456.131-.467.327-.873.588-1.218.271-.355.607-.635 1.008-.84.411-.215.891-.322 1.442-.322.513 0 1.003.117 1.47.35.476.224.849.56 1.12 1.008v-3.99zm8.209 5.95c0-.355-.052-.686-.154-.994-.094-.317-.238-.588-.434-.812-.187-.233-.425-.415-.714-.546-.29-.14-.621-.21-.994-.21-.374 0-.705.07-.994.21-.28.14-.523.327-.728.56-.196.233-.355.504-.476.812-.122.308-.201.635-.238.98h4.732zm-4.732.7c0 .392.051.765.154 1.12.102.345.252.649.448.91.205.252.462.457.77.616.308.149.662.224 1.064.224.55 0 1.022-.145 1.414-.434.392-.289.653-.7.784-1.232h.938c-.103.345-.238.667-.406.966-.168.289-.378.546-.63.77-.252.215-.551.383-.896.504-.346.121-.747.182-1.204.182-.579 0-1.078-.098-1.498-.294-.42-.196-.766-.462-1.036-.798-.271-.345-.472-.747-.602-1.204-.131-.467-.196-.966-.196-1.498s.074-1.031.224-1.498c.158-.467.378-.873.658-1.218.289-.355.639-.63 1.05-.826.41-.205.877-.308 1.4-.308.998 0 1.782.345 2.352 1.036.569.681.849 1.675.84 2.982h-5.628zm13.706 3.458c-.103.019-.238.051-.406.098-.168.047-.355.07-.56.07-.42 0-.742-.103-.966-.308-.215-.215-.322-.593-.322-1.134v-5.306h-1.022v-.7h1.022v-2.016h.84v2.016h1.358v.7h-1.358v4.97c0 .177.004.331.014.462.009.131.037.238.084.322.046.084.116.145.21.182.102.037.242.056.42.056.112 0 .224-.009.336-.028.121-.019.238-.042.35-.07v.686zm4.232.168c-.467-.009-.905-.093-1.316-.252-.401-.159-.756-.397-1.064-.714-.299-.317-.537-.714-.714-1.19-.177-.476-.266-1.031-.266-1.666 0-.532.07-1.027.21-1.484.14-.467.35-.873.63-1.218s.63-.616 1.05-.812c.42-.205.91-.308 1.47-.308.569 0 1.064.103 1.484.308.42.196.77.467 1.05.812.28.336.485.737.616 1.204.14.467.21.966.21 1.498 0 .579-.079 1.101-.238 1.568-.159.467-.387.868-.686 1.204-.289.336-.644.597-1.064.784-.411.177-.868.266-1.372.266zm2.464-3.822c0-.429-.047-.831-.14-1.204-.093-.373-.238-.695-.434-.966-.196-.28-.448-.499-.756-.658-.308-.159-.686-.238-1.134-.238-.439 0-.817.089-1.134.266-.308.168-.56.397-.756.686-.196.28-.341.607-.434.98-.093.364-.14.742-.14 1.134 0 .448.051.863.154 1.246.112.373.271.695.476.966.205.271.462.481.77.63.308.149.663.224 1.064.224.439 0 .812-.084 1.12-.252.317-.177.574-.411.77-.7.196-.289.341-.616.434-.98.093-.364.14-.742.14-1.134zm8.031-.028c0-.411-.056-.798-.168-1.162-.112-.373-.275-.695-.49-.966-.205-.28-.462-.499-.77-.658-.298-.168-.639-.252-1.022-.252-.438 0-.816.089-1.134.266-.317.168-.578.401-.784.7-.205.299-.354.649-.448 1.05-.093.392-.13.817-.112 1.274 0 .457.061.863.182 1.218.131.345.308.639.532.882.224.243.486.429.784.56.299.121.626.182.98.182.392 0 .742-.079 1.05-.238.308-.159.565-.373.77-.644.206-.28.36-.607.462-.98.112-.383.168-.793.168-1.232zm0-6.426h.84V213h-.84v-1.274h-.028c-.121.243-.28.457-.476.644-.186.177-.396.327-.63.448-.224.121-.457.215-.7.28-.242.065-.48.098-.714.098-.588 0-1.087-.098-1.498-.294-.41-.196-.751-.462-1.022-.798-.261-.345-.452-.751-.574-1.218-.121-.467-.182-.966-.182-1.498 0-.504.066-.989.196-1.456.131-.467.327-.873.588-1.218.271-.355.607-.635 1.008-.84.411-.215.892-.322 1.442-.322.514 0 1.004.117 1.47.35.476.224.85.56 1.12 1.008v-3.99zm7.705 6.272c-.355.149-.714.247-1.078.294-.364.047-.728.084-1.092.112-.644.047-1.148.191-1.512.434-.355.243-.532.611-.532 1.106 0 .224.042.42.126.588.093.159.21.294.35.406.149.103.317.182.504.238.196.047.392.07.588.07.336 0 .663-.042.98-.126.317-.084.597-.21.84-.378.252-.177.453-.397.602-.658.149-.271.224-.588.224-.952v-1.134zm-1.414-.42c.159-.019.345-.047.56-.084.224-.037.406-.089.546-.154s.224-.173.252-.322c.037-.159.056-.303.056-.434 0-.429-.14-.779-.42-1.05-.271-.28-.733-.42-1.386-.42-.289 0-.555.028-.798.084-.243.047-.457.135-.644.266-.177.121-.327.289-.448.504-.112.205-.187.467-.224.784h-.854c.028-.429.126-.793.294-1.092.168-.308.383-.555.644-.742.271-.196.579-.336.924-.42.355-.093.728-.14 1.12-.14.364 0 .705.042 1.022.126.327.075.607.201.84.378.243.168.429.397.56.686.14.289.21.644.21 1.064v3.948c0 .327.056.537.168.63.121.084.359.061.714-.07v.658l-.294.084c-.121.037-.243.056-.364.056-.131 0-.257-.014-.378-.042-.14-.019-.252-.061-.336-.126-.084-.075-.154-.159-.21-.252-.047-.103-.079-.21-.098-.322-.019-.121-.028-.247-.028-.378-.355.392-.761.691-1.218.896-.457.205-.952.308-1.484.308-.317 0-.625-.042-.924-.126-.289-.084-.546-.215-.77-.392-.224-.177-.401-.392-.532-.644-.131-.261-.196-.569-.196-.924 0-1.232.845-1.96 2.534-2.184l1.162-.154zm4.391 6.202l.336.056c.122.019.243.028.364.028.234 0 .425-.075.574-.224.15-.149.271-.331.364-.546.103-.205.187-.425.252-.658.066-.224.14-.415.224-.574l-2.814-7.308h.938l2.324 6.23 2.324-6.23h.91l-2.702 7.154c-.168.457-.331.868-.49 1.232-.149.364-.312.672-.49.924-.168.261-.359.457-.574.588-.205.14-.452.21-.742.21-.149 0-.294-.009-.434-.028-.13-.019-.252-.042-.364-.07v-.784z"/>
        <path fill="#232323" d="M110.963 127.312c0 2.666.718 4.842 2.153 6.528 1.436 1.686 3.259 2.529 5.469 2.529 2.165 0 3.862-.809 5.093-2.427 1.253-1.64 1.88-3.759 1.88-6.357 0-2.894-.707-5.104-2.12-6.631-1.412-1.549-3.144-2.324-5.195-2.324-1.663 0-3.133.501-4.409 1.504-1.914 1.481-2.871 3.873-2.871 7.178zm13.706-21.397c0-.797-.308-1.675-.923-2.632-1.048-1.549-2.632-2.324-4.751-2.324-3.167 0-5.423 1.777-6.767 5.332-.73 1.96-1.231 4.854-1.504 8.682 1.207-1.436 2.609-2.484 4.204-3.145 1.595-.661 3.418-.991 5.468-.991 4.398 0 7.999 1.492 10.801 4.477 2.826 2.985 4.239 6.802 4.239 11.451 0 4.625-1.379 8.704-4.136 12.236s-7.041 5.298-12.852 5.298c-6.243 0-10.846-2.609-13.808-7.827-2.302-4.079-3.452-9.343-3.452-15.791 0-3.783.159-6.859.478-9.229.57-4.215 1.675-7.724 3.315-10.527 1.413-2.393 3.259-4.318 5.538-5.777 2.301-1.458 5.047-2.187 8.237-2.187 4.603 0 8.271 1.185 11.006 3.555 2.734 2.347 4.272 5.48 4.614 9.399h-9.707zm49.902 26.421h-5.605V143h-9.536v-10.664h-19.619v-8.511l18.217-30.078h10.938v30.967h5.605v7.622zm-15.141-7.622v-21.397l-12.408 21.397h12.408z"/>
    </g>
    <defs>
        <clipPath id="prefix__clip0">
            <path fill="#fff" d="M0 0H272V230H0z"/>
        </clipPath>
        <filter id="prefix__filter0_dd" width="336" height="294" x="-32" y="-8" color-interpolation-filters="sRGB" filterUnits="userSpaceOnUse">
            <feFlood flood-opacity="0" result="BackgroundImageFix"/>
            <feColorMatrix in="SourceAlpha" values="0 0 0 0 0 0 0 0 0 0 0 0 0 0 0 0 0 0 127 0"/>
            <feOffset dy="24"/>
            <feGaussianBlur stdDeviation="16"/>
            <feColorMatrix values="0 0 0 0 0.196487 0 0 0 0 0.196487 0 0 0 0 0.279476 0 0 0 0.08 0"/>
            <feBlend in2="BackgroundImageFix" mode="multiply" result="effect1_dropShadow"/>
            <feColorMatrix in="SourceAlpha" values="0 0 0 0 0 0 0 0 0 0 0 0 0 0 0 0 0 0 127 0"/>
            <feOffset dy="16"/>
            <feGaussianBlur stdDeviation="8"/>
            <feColorMatrix values="0 0 0 0 0.196487 0 0 0 0 0.196487 0 0 0 0 0.279476 0 0 0 0.08 0"/>
            <feBlend in2="effect1_dropShadow" mode="multiply" result="effect2_dropShadow"/>
            <feBlend in="SourceGraphic" in2="effect2_dropShadow" result="shape"/>
        </filter>
    </defs>
</svg>
