<svg xmlns="http://www.w3.org/2000/svg" width="24" height="25" fill="none" viewBox="0 0 24 25">
    <path fill="#000" fill-opacity=".46" fill-rule="evenodd" d="M18.656 21.607l2.217-2.217-.78-2.837.34-.813L23 14.291v-3.135l-2.56-1.455-.335-.81.791-2.839-2.219-2.215-2.837.78-.81-.34-1.45-2.567h-3.135L8.991 4.27l-.811.334-2.838-.791-2.215 2.215.78 2.837-.34.811L1 11.125v3.134l2.558 1.458.335.812-.791 2.838 2.216 2.216 2.838-.78.81.34 1.45 2.566h3.134l1.457-2.558.811-.335 2.838.79zm.197-7.272l-.872 2.082.655 2.381-.568.569-2.376-.662-2.083.859-1.222 2.145h-.804l-1.212-2.146-2.08-.872-2.382.655-.567-.567.662-2.376-.86-2.083L3 13.097v-.804l2.147-1.212.872-2.08-.655-2.382.566-.566 2.376.663 2.084-.86 1.22-2.146h.803l1.211 2.147 2.08.872 2.383-.656.569.568-.662 2.376.86 2.083L21 12.32v.804l-2.147 1.211zM12 16.71c-2.21 0-4-1.791-4-4 0-2.21 1.79-4 4-4s4 1.79 4 4c0 2.209-1.79 4-4 4zm2-4c0 1.104-.895 2-2 2s-2-.896-2-2c0-1.105.895-2 2-2s2 .895 2 2z" clip-rule="evenodd"/>
</svg>
