<svg xmlns="http://www.w3.org/2000/svg" width="24" height="25" fill="none" viewBox="0 0 24 25">
    <path fill="#000" fill-opacity=".46" fill-rule="evenodd" d="M8.996 2.29c.752-.637 1.843-1 3.004-1 1.16 0 2.252.363 3.004 1H16c1.105 0 2 .895 2 2h1c1.105 0 2 .895 2 2v15c0 1.105-.895 2-2 2H5c-1.105 0-2-.895-2-2v-15c0-1.105.895-2 2-2h1c0-1.105.895-2 2-2h.996zm7.004 5c.74 0 1.387-.402 1.732-1H19v15H5v-15h1.268c.345.598.992 1 1.732 1h8zm-.707 3.293L11 14.876l-2.293-2.293-1.414 1.414L11 17.704l5.707-5.707-1.414-1.414zM9.858 4.29l.299-.345c.328-.378 1.032-.655 1.843-.655.81 0 1.515.277 1.843.655l.3.345H16v1H8v-1h1.858z" clip-rule="evenodd"/>
</svg>
