<svg xmlns="http://www.w3.org/2000/svg" width="25" height="24" fill="none" viewBox="0 0 25 24">
    <path fill="#000" fill-opacity=".46" fill-rule="evenodd" d="M20.557 8H16.78V4.222C16.78 2.995 15.965 2 14.961 2h-4.364C9.594 2 8.78 2.995 8.78 4.222V8H5.002c-1.228 0-2.223.814-2.223 1.818v4.364c0 1.004.995 1.818 2.223 1.818h3.777v3.778c0 1.227.814 2.222 1.819 2.222h4.363c1.004 0 1.818-.995 1.818-2.222V16h3.778c1.227 0 2.222-.814 2.222-1.818V9.818C22.78 8.814 21.784 8 20.557 8zm.222 2h-6V4h-4v6h-6v4h6v6h4v-6h6v-4z" clip-rule="evenodd"/>
</svg>
