<svg xmlns="http://www.w3.org/2000/svg" width="25" height="24" fill="none" viewBox="0 0 25 24">
    <path fill="#000" fill-opacity=".46" fill-rule="evenodd" d="M19.78 5c1.104 0 2 .895 2 2v1c1.104 0 2 .895 2 2l-.024.217-1.98 8.91C21.708 20.174 20.84 21 19.778 21h-16c-1.104 0-2-.895-2-2V5c0-1.105.896-2 2-2h6c1.12 0 1.833.475 2.55 1.379l.12.156h.001c.075.097.161.208.192.246l.079.096c.088.107.1.123.06.123h6.998zm0 2v1h-14c-1.167 0-1.69.621-1.972 1.76l-.029.131V5h6c.385 0 .607.149.982.621l.087.113.237.303c.503.623.97.96 1.689.963h7.005zm0 12H3.803l1.951-8.783c.024-.096.045-.167.06-.217h15.94l-1.952 8.783-.024.217z" clip-rule="evenodd"/>
</svg>
